<?xml version="1.0" encoding="utf-8"?>
<!-- Generator: Adobe Illustrator 24.0.1, SVG Export Plug-In . SVG Version: 6.00 Build 0)  -->
<svg version="1.1" id="Camada_1" xmlns="http://www.w3.org/2000/svg" xmlns:xlink="http://www.w3.org/1999/xlink" x="0px" y="0px"
	 viewBox="0 0 500 500" style="enable-background:new 0 0 500 500;" xml:space="preserve">
<style type="text/css">
	.st0{fill:url(#SVGID_1_);}
	.st1{fill:url(#SVGID_2_);}
	.st2{fill:url(#SVGID_3_);}
	.st3{fill:#EBEBEB;}
	.st4{fill:#AD6359;}
	.st5{fill:#263238;}
	.st6{fill:#6A6A6A;}
	.st7{opacity:0.1;enable-background:new    ;}
	.st8{fill:#DBDBDB;}
	.st9{fill:#2C164F;}
	.st10{fill:#FF9BBC;}
	.st11{fill:#FFFFFF;}
	.st12{fill:#EB9481;}
	.st13{fill:#A6A6A6;}
	.st14{fill:#37474F;}
</style>
<linearGradient id="SVGID_1_" gradientUnits="userSpaceOnUse" x1="132.2692" y1="383.8034" x2="370.1197" y2="145.9529">
	<stop  offset="0" style="stop-color:#645FCE;stop-opacity:0.5"/>
	<stop  offset="1" style="stop-color:#330080;stop-opacity:0.5"/>
</linearGradient>
<circle class="st0" cx="251.2" cy="264.9" r="168.2"/>
<linearGradient id="SVGID_2_" gradientUnits="userSpaceOnUse" x1="45.453" y1="174.56" x2="162.553" y2="174.56">
	<stop  offset="0" style="stop-color:#645FCE;stop-opacity:0.2"/>
	<stop  offset="1" style="stop-color:#330080;stop-opacity:0.3"/>
</linearGradient>
<circle class="st1" cx="104" cy="174.6" r="58.6"/>
<linearGradient id="SVGID_3_" gradientUnits="userSpaceOnUse" x1="273.9181" y1="350.3446" x2="451.6403" y2="350.3446">
	<stop  offset="0" style="stop-color:#645FCE;stop-opacity:0.2"/>
	<stop  offset="1" style="stop-color:#330080;stop-opacity:0.3"/>
</linearGradient>
<circle class="st2" cx="362.8" cy="350.3" r="88.9"/>
<g id="freepik--Shadow--inject-2">
	<ellipse class="st3" cx="250" cy="453.4" rx="188" ry="16.8"/>
</g>
<g id="freepik--character-2--inject-2">
	<path class="st4" d="M308.8,333c0,0,20.3,33.8,20.3,33.8c3.9,6.4,7.2,12.1,8.7,15.3l0,0c0.4,0.7,0.7,1.5,0.7,2.3c0,0,0,0,0,0.1
		c-1.1,2.5-51.6,35.3-53.8,35.8s-3.9-5.5-2.9-8.4s14.7-24,14.7-24l-20-34L308.8,333z"/>
	<path class="st4" d="M323.1,356.8l-33.6,19.2c0,0-29.1-41.3-34.9-66.2c-4.1-17.7,32.9-100.4,32.9-100.4l35.3,1.4
		c0,0-31.7,80-30,88.3C294.8,309.1,323.1,356.8,323.1,356.8z"/>
	<path class="st5" d="M338.6,384.4C338.6,384.4,338.6,384.5,338.6,384.4c-1.1,2.5-51.7,35.3-53.8,35.9s-3.9-5.5-2.9-8.4
		c0.5-1.5,4.8-8.4,8.5-14.4c-3.5,5.8-10.8,22.9,42.5-24.5c2.2,3.8,4,7,5,9.1l0,0C338.3,382.8,338.5,383.6,338.6,384.4z"/>
	<path class="st4" d="M358.9,270l24.1-25.5c5.5-5.1,13.4-13,14.8-13.1c2.6,0.6,45.5,43.9,46.5,45.9s-4.6,4.9-7.6,4.5
		s-26.5-9.6-26.5-9.6l-25.4,25.3L358.9,270z"/>
	<path class="st5" d="M436.6,281.9c-1.5-0.2-8.1-2.6-14.4-4.9c7.2,1.4,21.3,1.2-38.3-33.4c5.4-5.1,12.5-12.1,13.8-12.2
		c2.6,0.6,45.5,43.9,46.5,45.9S439.6,282.3,436.6,281.9z"/>
	<path class="st4" d="M287.7,209.4c0,0,2.2,12.4,4.4,22.4c1.6,7.3,3.3,13.8,4.4,14.4s7.2,3.7,9.2,4.7c0,0,8.5,47.9,18,64.3
		c3.3,5.6,20.2,12.6,29.3,8c21.4-11,49.3-43,49.3-43l-26-28.5l-28,27.5c-4.9-11.9-5.7-35-5.7-35s1-22.6-6.2-32.8L287.7,209.4z"/>
	<path class="st5" d="M287.2,209.3c0,0-34.6,68.7-35.3,96.9c-0.2,9.1,4.4,20.7,4.4,20.7s33.4,6.1,52.2-2.3s27-25.2,35.2-39.4
		c3.6-6.3,6.4-7.9,6.4-7.9s-6.4-29.1-6.5-32.3c0,0,1.6-21.2-7.1-33.8L287.2,209.3z"/>
	<path class="st5" d="M315.1,121.8c-10.3,10.5-11.9,36.9,1.5,54.3c11.4,14.8,37,17,47.8,7.9c11.5-9.8,9.4-25.1,0.7-32.4
		c-9-7.5-19.5-5.2-25-12c-2.6-3.2-3.7-10.2-7.4-15.2C328.6,118.9,320.4,116.4,315.1,121.8z"/>
	<path class="st5" d="M335.4,129.1c0.8,2.4,1.8,4.7,3,6.9c1.2,2.3,2.9,4.2,4.9,5.8c1.1,0.7,2.3,1.2,3.5,1.6c1.2,0.4,2.4,0.7,3.6,1
		c2.4,0.6,4.8,1.3,7.1,2.1c2.3,0.8,4.6,1.9,6.6,3.2c4.1,2.8,6.9,7.1,7.7,12c0.4,2.5,0.5,5,0.4,7.4c0.3-2.5,0.4-5,0.1-7.5
		c-0.3-2.5-1.2-5-2.5-7.2c-1.3-2.2-3.1-4.1-5.2-5.5c-2.1-1.4-4.4-2.6-6.8-3.4c-2.4-0.8-4.8-1.5-7.3-2.1c-1.2-0.3-2.4-0.6-3.6-0.9
		c-1.2-0.3-2.3-0.8-3.3-1.4c-2-1.4-3.7-3.3-4.9-5.4C337.5,133.6,336.4,131.3,335.4,129.1z"/>
	<path class="st5" d="M313.1,124.1c-3,4.5-5.2,9.4-6.7,14.6c-1.5,5.2-2,10.7-1.5,16.1c0.3,2.7,0.9,5.4,1.8,7.9
		c0.2,0.6,0.5,1.3,0.8,1.9c0.2,0.6,0.5,1.2,0.8,1.9c0.3,0.6,0.6,1.2,1,1.8l1.1,1.7c3,4.5,6.9,8.3,11.4,11.3c-1-0.9-2.1-1.7-3.1-2.6
		c-1-0.9-1.9-1.8-2.9-2.8c-1.9-1.9-3.5-4-4.9-6.3c-2.8-4.5-4.6-9.6-5.1-14.9c-0.5-5.3-0.1-10.6,1.3-15.8c0.7-2.6,1.5-5.1,2.5-7.6
		C310.6,128.9,311.8,126.5,313.1,124.1z"/>
	<path class="st4" d="M309.7,165.2c-7.2,3.4-39,9.7-48.7,2.2c-9.9-7.6-17.1-38.4-18.3-42.2c-2.8-9,25.1-10.1,25.9-7.6
		c2.9,8.8,6.2,31.8,9.9,33c7.8,2.5,15.3,2.9,27.8,5.1C315,157.2,317.6,161.5,309.7,165.2z"/>
	<path class="st4" d="M243.3,126.8c-1.3-2.9-6.2-16.8-6.6-20.9s-0.9-16.1,2.2-16.8s3.5,2.8,3.5,2.8s0.6-5.1,3.8-5.5s3.7,5.1,3.7,5.1
		s1-5.2,4.2-5.3s2.8,5.4,2.8,5.4s0.7-4.8,3.4-3.8c3.3,1.2,1,9.8,1.9,14.3c0.2,1,5.4,20.5,5.4,20.5L243.3,126.8z"/>
	<path class="st5" d="M256.8,91.2c-1.6,6.4-1.3,9.4,0.7,15.6c0,0.1-0.1,0.2-0.2,0.1c-2.5-5.9-3.5-9.7-0.8-15.8
		C256.7,90.8,256.9,90.8,256.8,91.2z"/>
	<path class="st5" d="M250,91.1c-1.1,6.8-0.8,10.1,0.8,16.7c0,0,0,0.1-0.1,0.1s-0.1,0-0.1-0.1c-2.1-6.3-3-10.2-1-16.8
		C249.7,90.8,250,90.8,250,91.1z"/>
	<path class="st5" d="M242.4,92.3c-0.6,6.6-0.4,10.3,2,16.5c0,0.1,0,0.1-0.1,0.1c0,0-0.1,0-0.1,0c-3-6.1-3.4-10.7-2-16.6
		C242.3,91.9,242.5,91.9,242.4,92.3z"/>
	<path class="st4" d="M268.8,126.6c0,0,3.5-7.4,4.3-11.1s-1.1-18.2-4.3-18c-4.1,0.3-4.6,8.9-4.4,13.2c0,0-9.5,0.7-11.2,6.8
		S268.8,126.6,268.8,126.6z"/>
	<path class="st5" d="M267.7,98c-3.5,3-2.8,8.6-2.8,12.7c0,0.2-0.2,0.4-0.4,0.4c0,0-0.1,0-0.1,0c-4,0.6-9.4,2.5-11.3,6.3
		c0,0-0.1,0.1-0.1,0c0,0-0.1-0.1,0-0.1c1.5-4.3,6.7-6.6,11-7C263.9,106,263.4,100.4,267.7,98C267.7,97.9,267.8,98,267.7,98z"/>
	<path class="st6" d="M270.7,123.4c0,0,5.2,24.7,7.4,25.9c3.7,1.9,24.9,5.1,32.4,6.7s12.7,6.4-5.6,12.9c-17.7,6.3-37,9.9-46.5,6.3
		c-11.6-4.4-22.1-30.9-22.1-30.9L270.7,123.4z"/>
	<path class="st5" d="M240.7,150c13.7-9.1,28.5-17,31-18.5c0.1-0.1,0.2,0.2,0.1,0.2c-2.4,1.4-19.2,12.2-31.1,18.5
		C240.6,150.4,240.6,150.1,240.7,150z"/>
	<path class="st7" d="M317.2,161.6c-0.9,2.1-4.5,4.5-12.3,7.3c-17.7,6.3-37,9.9-46.5,6.3c-1.3-0.5-2.6-1.2-3.7-2.1L317.2,161.6z"/>
	<path class="st3" d="M287.2,209.3l49.7,1.9c0,0-2.3-34.6-9.7-48.9c-3.4-6.5-8.3-7-13.2-4.8c-1.2,0.6-18,12.8-20.5,18
		c-2.3,4.6,0.2,11,0.2,11L287.2,209.3z"/>
	<path class="st6" d="M312.4,158c0,0-7.3,8.4-7.8,11.7c-0.3,2.7-0.3,5.3,0,8c4.2-1.7,8.3-3.5,12.3-5.6c4.1-2.3,6.9-14.2,6.9-14.2
		s5.9,5.6,8.4,16.8c1.9,8.7,6.3,35.3,6.6,36.1s7,17.2,6.1,33.9c0,0,4.8,20.6,7.2,22.9s6.2-0.6,6.2-0.6s-13.4,46.3-38.7,54
		c-22.5,6.9-70.4-10.2-69.4-19.7s16.5-52.3,35.4-92l7.4-22.6c0,0-3.3-6.6,0.2-11.8S309.7,159.2,312.4,158z"/>
	<path class="st7" d="M283.2,274.7c-1.5,4.2-2.8,8.4-4.4,12.5c-0.8,2.1-1.5,4.2-2.2,6.4c-0.8,2.2-1.2,4.4-1.4,6.7c0,0,0,0.1-0.1,0.1
		c0,0-0.1,0-0.1-0.1l0,0c0.1-2.5,0.4-5,1-7.5c0.8-4.5,2.1-8.8,3.7-13.1c0.8-2.1,1.8-4.1,2.8-6.2s2-4.1,3.1-6
		c0.1-0.1,0.3-0.1,0.3,0.1C285,270,284,272.3,283.2,274.7z"/>
	<path class="st7" d="M321.1,285.1c0-3,0-5.9,0.2-8.9c0.2-2.6,0.4-5.2,0.8-7.8s0.9-5.2,1.5-7.8c1.2-5.1,2.6-10.3,4.1-15.4l0,0
		c-0.8,2.9-1.6,5.7-2.2,8.6c-1,5.1-1.6,10.3-2.3,15.5s-1.5,10.4-1.9,15.7C321.3,285.2,321.1,285.2,321.1,285.1z"/>
	<path class="st7" d="M333.3,312.6c-0.3,0.3-0.7,0.6-1,1c-0.6-0.4-1.2-0.9-1.8-1.3c-5.1-3.9-10.7-8.4-12.9-14.6
		c-0.9-3-1.3-6.2-1.1-9.4c0.1-3.3,0.4-6.5,0.9-9.7c0-0.1,0.2-0.1,0.2,0c-0.4,3.5-0.6,7.1-0.4,10.7c0.2,3.1,1.1,6.1,2.5,8.8
		c1.5,2.7,3.4,5.1,5.6,7.2C327.8,307.9,330.5,310.3,333.3,312.6z"/>
	<path class="st7" d="M302.8,269.6c-1.6,4.4-3.1,8.8-4.4,13.3c-0.6,2.2-1.2,4.4-1.7,6.7c-0.5,2.3-0.9,4.5-1.3,6.8
		c-0.4,2.2-0.7,4.5-0.8,6.8c-0.1,1.2-0.1,2.3,0,3.5s-0.1,2.3,0,3.4c0,0.2-0.2,0.2-0.3,0c-0.1-0.7-0.3-1.4-0.4-2.1
		c-0.1-0.6-0.2-1.2-0.2-1.9c-0.1-1.3-0.1-2.6-0.2-3.9c-0.1-2.6,0-5.1,0.3-7.7c0.6-4.6,1.6-9.2,3-13.6c1.3-4.5,2.9-8.9,4.5-13.2
		c1.7-4.5,3.3-9.1,5.3-13.5s3.9-9.1,5.7-13.7c0-0.1,0.2-0.1,0.2,0c-0.9,2.6-1.7,5.2-2.6,7.8s-1.5,5.2-2.4,7.8
		c-0.7,2.3-1.5,4.6-2.3,6.8S303.6,267.4,302.8,269.6z"/>
	<path class="st7" d="M283.9,319.5l-1.5-0.4c-1.2-3.2-2-6.6-2.2-10.1c0-1.3,0-2.6,0.2-4c0.1-1.2,0.2-2.5,0.4-3.7
		c0.4-2.5,1.1-5,2-7.4c0-0.1,0.2,0,0.1,0.1c-1,2.6-1.5,5.3-1.6,8c-0.1,1.2,0,2.4,0.1,3.6c0.1,1.2,0.4,2.4,0.6,3.6
		c0.3,2.4,0.7,4.8,1.3,7.2C283.4,317.5,283.6,318.5,283.9,319.5z"/>
	<path class="st7" d="M326.4,318c-2.1,1.3-4.3,2.3-6.7,3c-3.9,1.1-7.9,1.6-12,1.6c-0.8-1-1.5-2.1-2.1-3.2c-2.4-3.8-4-8.1-4.7-12.6
		c-0.6-5.2,0.6-10.5,1.7-15.5c1.1-5.2,9.2-27.9,10.5-26.3c1.6,2.1-3,26.1-3.2,29c-0.4,2.7,0.1,5.4,1.4,7.8c1.5,2.3,3.2,4.4,5.1,6.3
		c1.9,2.1,3.9,4.1,5.9,6.1C323.6,315.5,325,316.7,326.4,318z"/>
	<path class="st7" d="M354.4,268.5c-0.5,1-1.1,1.9-1.8,2.9c-1.6,2.5-3.3,4.9-4.9,7.3s-3.4,4.9-5,7.4c-1.4,2-2.6,4.1-4.7,5.5
		c-0.2,0.1-0.5,0-0.6-0.2c-0.1-0.1-0.1-0.3,0-0.4c1.3-2.5,2.7-5,4.1-7.5c2.4-4.1,4.5-8.3,6.5-12.6c0.9-2.2,1.7-4.5,2.4-6.8
		c0-0.1,0-0.2,0.1-0.3c0.4,1.4,1,2.7,1.9,3.9C352.8,268.1,353.6,268.5,354.4,268.5z"/>
	<path class="st7" d="M335.2,207.7c-3.1,1.2-6.2,2.5-9.4,3.4c-3.1,0.9-6.3,1.6-9.5,2.1c-5.6,1-11.4,0.7-16.9-1
		c-3.1-1.1-6-2.8-8.4-5.1c-0.1-0.1-0.2,0-0.1,0.1c3.8,4.5,9.2,7.3,15,7.9c6.4,0.8,12.7-0.5,18.6-2.9c3.6-1.4,7.2-3,10.8-4.5
		C335.3,207.8,335.3,207.7,335.2,207.7z"/>
	<path class="st5" d="M310.4,187.7c-2.1-0.4-4.3-0.7-6.4-0.8c-1.1,0-2.1,0-3.2,0c-0.5,0-1.1,0-1.6,0c-0.6,0-1.1,0-1.7-0.2
		c0,0-0.1,0.1,0,0.1c0.5,0.2,1,0.3,1.5,0.4c0.5,0.1,1,0.1,1.5,0.1c1.1,0.1,2.2,0.1,3.3,0.1c2.2,0.1,4.4,0.1,6.5,0.4
		C310.5,187.9,310.5,187.7,310.4,187.7z"/>
	<path class="st5" d="M314.9,191c-1.6-0.7-3.3-1.3-5-1.8c-0.9-0.2-1.7-0.4-2.6-0.6l-1.3-0.2c-0.5-0.1-0.9-0.1-1.4-0.2
		c0,0-0.1,0.1,0,0.1c0.4,0.1,0.9,0.3,1.3,0.4l1.3,0.3c0.9,0.2,1.7,0.5,2.6,0.7c1.7,0.4,3.4,0.9,5.1,1.4
		C315,191.1,315,191.1,314.9,191C315,191,315,191,314.9,191z"/>
	<path class="st4" d="M325.7,169.9c11.5,16.4,29.2,40.8,39.8,40.6c9.5-0.2,24.7-8.4,41.3-17.2c3.3-1.8-11.7-26.6-15-24.4
		c-6.5,4.4-20.5,16-25,16.8c-1.9,0.3-23.6-15.6-35.8-23.3C320.2,155.5,323.4,166.7,325.7,169.9z"/>
	<path class="st4" d="M421.2,185.9c-4.6,3.8-19.3,9.8-22.7,9.6s-11.1-21.2-9.2-24.2s18.5-14.6,24.6-14.7S426,181.9,421.2,185.9z"/>
	<path class="st3" d="M398.4,140.8c0,0,7.8-7.7,17.5-1.8c0,0,0.4,29.1,0.7,30.9s8.2,34.3,8.2,34.3s-7.4,5.2-18.7,0.9
		c0,0,1.8-33.4,1.6-34.3S398.4,140.8,398.4,140.8z"/>
	<path class="st8" d="M424.8,204.2c0,0-10.7-6-18.7,0.9C406.1,205.1,414.4,210,424.8,204.2z"/>
	<path class="st6" d="M416.6,169.9c0.2-0.2,0-0.3-0.2-0.3c-0.2-0.1-0.4-0.1-0.6-0.1c-0.4-0.1-0.8-0.1-1.3-0.1c-0.8,0-1.7,0-2.5,0.1
		c-0.8,0.1-1.7,0.2-2.5,0.3c-0.4,0.1-0.8,0.2-1.2,0.3c-0.4,0.1-0.9,0.3-0.6,0.8c-0.1-0.1-0.2-0.2-0.2-0.3c0-0.1,0-0.3,0.1-0.4
		c0.1-0.2,0.3-0.4,0.5-0.5c0.4-0.3,0.8-0.5,1.2-0.6c0.9-0.3,1.7-0.5,2.6-0.5c0.9-0.1,1.8,0,2.7,0.2c0.4,0.1,0.9,0.2,1.3,0.4
		c0.2,0.1,0.4,0.2,0.6,0.3c0.1,0.1,0.2,0.2,0.3,0.3c0,0.1,0,0.1,0,0.2C416.7,169.9,416.7,169.9,416.6,169.9z"/>
	<path class="st6" d="M416.7,170.4c0.2-0.2,0-0.3-0.2-0.3c-0.2,0-0.4-0.1-0.6-0.1c-0.4,0-0.9,0-1.3,0c-0.9,0-1.7,0.1-2.5,0.3
		s-1.7,0.3-2.5,0.5c-0.4,0.1-0.8,0.2-1.2,0.4c-0.2,0.1-0.4,0.2-0.5,0.3c-0.1,0.1-0.2,0.3-0.1,0.4c0,0,0,0,0.1,0.1
		c-0.1-0.1-0.2-0.1-0.2-0.3c0-0.1,0-0.3,0.1-0.4c0.1-0.2,0.3-0.4,0.5-0.5c0.4-0.3,0.8-0.5,1.2-0.7c0.8-0.3,1.7-0.6,2.6-0.7
		c0.9-0.1,1.8-0.1,2.7,0c0.5,0.1,0.9,0.1,1.3,0.3c0.2,0.1,0.4,0.2,0.6,0.3c0.1,0.1,0.2,0.2,0.3,0.3
		C416.9,170.2,416.8,170.3,416.7,170.4C416.7,170.3,416.7,170.3,416.7,170.4z"/>
	<path class="st6" d="M416.8,170.7c0,0,0.1-0.1,0.1-0.1l0,0c-0.1,0-0.2,0-0.3,0l-0.6,0.1l-1.3,0.3c-0.8,0.2-1.7,0.3-2.5,0.5
		s-1.7,0.3-2.5,0.4c-0.4,0.1-0.8,0.1-1.3,0.2c-0.2,0-0.4,0.1-0.6,0.1c-0.2,0.1-0.3,0.2-0.1,0.4c-0.1,0-0.2-0.2-0.2-0.3
		c0-0.1,0.1-0.3,0.2-0.4c0.2-0.2,0.4-0.3,0.6-0.4c0.4-0.2,0.8-0.4,1.2-0.5c1.7-0.5,3.4-0.8,5.1-0.9c0.4,0,0.9,0,1.3,0
		c0.2,0,0.4,0,0.7,0.1c0.1,0,0.2,0.1,0.3,0.1c0,0,0.1,0,0.1,0.1c0,0,0,0.1,0,0.1C416.9,170.7,416.9,170.7,416.8,170.7z"/>
	<path class="st4" d="M404.5,158.7c-1,3,3.1,2.5,3.1,2.5s-5.8,2.1-5.7,5.6s5.1,2.6,5.5,2.6c-0.3,0.1-5.6,2.2-5.1,5.7
		c0.5,3.7,5.4,2,5.7,1.9c-0.3,0.2-3.6,2.9-2.6,5.5c1.7,4.5,10.3-2.2,14.1-1.5c0,0,1.4,4.9,1.5,5.1c0,0,6.5-4.5,7.2-9.7
		c0.2-1.5-0.7-3-2.1-3.6c0,0,2.9-1.7,2.6-4.5c-0.2-1.4-2.5-2.4-2.5-2.4c1.3-0.9,2-2.4,1.9-3.9c-0.3-2-2.7-2.7-2.7-2.7
		s1.5-2.4,0.6-4.3C423.7,151.2,406.7,152.2,404.5,158.7z"/>
	<path class="st5" d="M424.8,159.1c-5.9-1.1-12-0.4-17.5,2.1c-0.2,0.1-0.1,0.4,0.1,0.3C413.1,159.9,418.9,159.1,424.8,159.1
		L424.8,159.1z"/>
	<path class="st5" d="M426,165.9c0.1,0,0.1-0.1,0-0.1c-6.5-1.2-13.2,0.1-18.9,3.4c-0.2,0.1-0.3,0.4,0,0.3
		C411.1,167.5,420.5,165.8,426,165.9z"/>
	<path class="st5" d="M407.6,177.4c5.6-3.2,11.7-4.4,18.1-4.6c0.1,0,0.1-0.1,0-0.1c-3.2-0.7-7.2-0.1-10.4,0.6c-2.9,0.6-5.6,2-7.8,4
		C407.4,177.3,407.5,177.5,407.6,177.4z"/>
	<path class="st5" d="M407.5,161.2c-1.1,0.5-2.1,1.1-3.1,1.8c-1,0.6-1.7,1.5-2.2,2.6c-0.2,0.5-0.2,1-0.1,1.5c0.2,0.5,0.5,1,0.9,1.3
		c0.9,0.6,2,0.9,3,0.6l2.6-0.4l-2.3,1.3c-1,0.6-1.9,1.3-2.7,2.1c-0.8,0.8-1.2,1.8-1.1,2.9c0.1,1,0.8,1.9,1.9,2
		c1.1,0.1,2.2,0,3.3-0.4l2.9-1l-2.4,1.9c-0.7,0.5-1.3,1.2-1.8,1.8c-0.5,0.6-0.8,1.4-0.9,2.2c0,0.7,0.4,1.4,1,1.8
		c0.8,0.3,1.6,0.4,2.4,0.2c1.8-0.3,3.5-0.8,5.2-1.4c0.9-0.3,1.7-0.6,2.6-0.8c0.9-0.3,1.8-0.4,2.7-0.3c-0.9,0-1.8,0.2-2.6,0.5
		c-0.9,0.3-1.7,0.6-2.5,1c-1.7,0.7-3.4,1.3-5.2,1.7c-1,0.2-2,0.2-2.9-0.1c-1-0.5-1.6-1.5-1.6-2.6c0.1-1,0.4-2,1-2.8
		c0.6-0.8,1.2-1.5,1.9-2.1l0.5,0.9c-1.2,0.5-2.5,0.7-3.9,0.5c-0.7-0.1-1.4-0.5-1.9-1c-0.5-0.6-0.7-1.2-0.8-1.9
		c-0.1-1.4,0.4-2.7,1.4-3.7c0.9-0.9,1.9-1.7,3-2.3l0.3,0.9c-1.3,0.2-2.7-0.1-3.7-1c-0.5-0.5-0.8-1-1-1.7c-0.2-0.6-0.1-1.3,0.1-1.9
		c0.6-1.1,1.5-2,2.6-2.6C405.3,162.1,406.4,161.6,407.5,161.2z"/>
	<path class="st4" d="M391.7,168.8c0,0,11.7-22.6,18.3-13.7c2,2.6,6.9,15.9,4.2,16.9c-3.4,1.3-6.5-3.8-7.9-7.3c0,0-2.9,8.3-9.2,7.9
		C394.8,172.5,392.7,171,391.7,168.8z"/>
	<path class="st5" d="M409.4,154.4c0.9,0.9,1.6,2,2.2,3.2c0.6,1.1,1.1,2.3,1.6,3.6c0.9,2.4,1.7,4.9,2.2,7.5c0.1,0.7,0.2,1.4,0.1,2.1
		c0,0.4-0.2,0.8-0.4,1.1c-0.1,0.2-0.3,0.4-0.4,0.5c-0.2,0.1-0.4,0.3-0.6,0.3c-0.7,0.3-1.5,0.3-2.3,0c-0.7-0.3-1.3-0.6-1.8-1.1
		c-1-0.9-1.8-2-2.5-3.2c-0.7-1.1-1.2-2.3-1.7-3.6h0.8c-0.4,0.9-0.8,1.8-1.4,2.7c-0.5,0.8-1.1,1.6-1.8,2.4c-0.7,0.7-1.5,1.3-2.3,1.8
		c-0.9,0.5-1.8,0.8-2.8,0.9c0.9-0.2,1.8-0.6,2.6-1.2c0.8-0.5,1.5-1.2,2.1-1.9c0.6-0.7,1.1-1.5,1.6-2.3c0.5-0.8,0.8-1.7,1.1-2.6
		l0.4-1.1l0.5,1.1c0.5,1.2,1.1,2.3,1.7,3.4c0.6,1.1,1.4,2,2.3,2.9c0.8,0.8,1.9,1.2,3,0.9c0.8-0.3,0.8-1.7,0.6-2.9
		c-0.2-1.3-0.5-2.5-0.8-3.7c-0.3-1.3-0.6-2.5-1-3.7C412,158.9,410.9,156.6,409.4,154.4z"/>
	<path class="st6" d="M388.4,171c0,0-19.9,13.8-22.3,13.2c-4-1-29.6-19.4-36.3-23.2s-9,1.5-5.1,8.1c10.3,17.3,27.1,44.5,42,47.4
		c8,1.5,36-9,36-9L388.4,171z"/>
	<path class="st5" d="M335.6,186.1c-0.3-0.4-0.5-1-0.8-1.5l-0.9-1.5c-0.6-1-1.2-1.9-1.8-2.9c-1.2-1.9-2.5-3.8-3.8-5.7l0,0
		c1.1,2,2.2,4,3.4,6c0,0,0.1,0.1,0.1,0.1l-0.8-0.8l-1.6-1.6c0,0-0.1,0-0.1,0.1c0.5,0.6,1,1.2,1.6,1.7c0.3,0.3,0.6,0.6,0.9,0.8
		l0.4,0.4l1.4,2.2c0.3,0.5,0.7,1,1,1.5S335.3,185.7,335.6,186.1C335.5,186.3,335.7,186.2,335.6,186.1z"/>
	<path class="st5" d="M383,177c6.2,14.1,11.2,29.1,12.2,31.7c0,0.1-0.2,0.1-0.2,0c-0.9-2.5-8.2-19.7-12.2-31.7
		C382.7,176.9,383,176.9,383,177z"/>
	<path class="st9" d="M314.9,154.4c6.8-1.5,18.6,3.4,19.5,8.6c0.7,4.4,0.9,37.4,1.8,46s27.4,45.1,27.4,45.1l-12.2-0.8l-2.1,11.2
		c0,0-23.2-31.9-27.8-46.9s3.7-57.2,2.4-59.4s-6.4-1.9-8.8-1.4s-6,5-7.9,9.6s-9.2,33.9-9.3,44.6s14.4,51.6,14.4,51.6l-10.6-4.8
		l-7.4,10.2c0,0-11.1-39.8-11.6-57.3c-0.3-11.2,8-31.3,17.1-44.7C304.9,158.3,310.8,155.3,314.9,154.4z"/>
	<path class="st4" d="M323.3,158.9c-0.5,0.9-6.4,5.6-10.5,4.3c-1.3-0.4,0.7-7.8,0.7-7.8v-0.6l0.3-8.1l10.5-3.4l1.5-0.4
		c0,0-0.2,2.2-0.6,5c0,0.1,0,0.3,0,0.4s0,0.3,0,0.4c0,0.4-0.1,0.8-0.1,1.3s-0.1,0.6-0.1,1s-0.1,0.6-0.1,1
		C324.5,154.3,324,156.6,323.3,158.9z"/>
	<path class="st5" d="M325.4,147.8c-2.7,3.9-7,6.5-11.8,6.9l0.3-8.1l10.5-3.4l1.5-0.4C325.9,142.9,325.7,145.1,325.4,147.8z"/>
	<path class="st4" d="M306.5,129.4c-7.6,12.1-1.2,18,1.4,19.6c2.4,1.5,10.6,6.2,19.4-5s5.6-18.6,0.4-22.2S314.1,117.3,306.5,129.4z"
		/>
	<path class="st5" d="M309.5,128.4c0.3,0.1,0.6,0.2,0.9,0.3c0.3,0.2,0.7,0.2,1,0.1c0.2-0.1,0.3-0.3,0.3-0.5
		c-0.1-0.4-0.5-0.8-0.9-0.9c-0.4-0.2-0.9-0.2-1.3,0c-0.3,0.1-0.4,0.5-0.2,0.7C309.3,128.2,309.4,128.3,309.5,128.4z"/>
	<path class="st5" d="M317.9,133.4c-0.3-0.2-0.5-0.4-0.7-0.7c-0.3-0.2-0.5-0.5-0.6-0.8c0-0.2,0.1-0.5,0.3-0.5c0.4-0.1,0.9,0,1.2,0.4
		c0.4,0.3,0.6,0.7,0.7,1.2c0,0.3-0.2,0.6-0.5,0.6C318.2,133.5,318,133.4,317.9,133.4z"/>
	<path class="st5" d="M314.2,135.2c0,0,0,0.1,0,0.1c-0.5,0.8-1,1.8-0.5,2.6c0,0,0,0.1,0,0.1C312.9,137.2,313.5,135.9,314.2,135.2z"
		/>
	<path class="st5" d="M315.5,134.8c1.4,0.7-0.2,3.4-1.5,2.8S314.3,134.2,315.5,134.8z"/>
	<path class="st5" d="M315.9,135.3c0.1,0.3,0.2,0.7,0.5,0.9c0.4,0.2,0.8,0.1,1.1-0.1c0,0,0,0,0,0.1c-0.2,0.6-0.8,0.9-1.4,0.7
		c-0.5-0.3-0.7-0.9-0.5-1.5C315.7,135.3,315.9,135.1,315.9,135.3z"/>
	<path class="st5" d="M309.6,132.3c0,0-0.1,0-0.1,0c-0.5,0.9-1.1,1.8-2,1.6c0,0,0,0,0,0C308.5,134.4,309.3,133.2,309.6,132.3z"/>
	<path class="st5" d="M309.4,131c-1.3-0.9-3,1.8-1.8,2.6S310.5,131.8,309.4,131z"/>
	<path class="st5" d="M308.7,130.9c-0.3,0-0.7,0.1-0.9,0s-0.3-0.6-0.4-1c0,0,0,0-0.1,0c-0.4,0.4-0.4,1.1-0.1,1.5
		c0.4,0.4,1,0.1,1.4-0.3C308.8,131.1,308.8,130.9,308.7,130.9z"/>
	<path class="st5" d="M310.3,142.2c-0.3,0.2-0.7,0.2-1,0.1c-0.3-0.2-0.6-0.4-0.8-0.7 M308.4,141.6c0.1,0.5,0.4,0.8,0.9,1
		c0.4,0.1,0.8-0.1,1.1-0.4c0,0,0,0-0.1,0L308.4,141.6z"/>
	<path class="st5" d="M307.9,138.9c0,0.7,0.3,1.3,0.6,1.9c0.2,0.3,0.5,0.5,0.9,0.7c0.8,0.3,1.2-0.3,1.4-0.9c0.1-0.3,0.2-0.7,0.2-1
		C309.9,139.7,308.8,139.4,307.9,138.9z"/>
	<path class="st10" d="M308.5,140.8c0.2,0.3,0.5,0.5,0.9,0.7c0.8,0.3,1.2-0.3,1.4-0.9C310,140.1,309.1,140.2,308.5,140.8z"/>
	<path class="st5" d="M308.6,137.1c0,0-0.9,1.1-1.3,1.7c0,0.1,0.1,0.2,0.3,0.3l0,0c0.9,0.8,2.2,1,3.3,0.6c0,0,0.1-0.1,0-0.1
		c0,0,0,0,0,0c-1.1,0.1-2.1-0.2-3-0.8c0-0.2,1.6-1.9,1.5-2c-0.5-0.2-1-0.4-1.5-0.5c1.8-2.4,4-4.6,5.8-7c0.1-0.1-0.1-0.2-0.1-0.1
		c-2.4,2.2-4.6,4.7-6.6,7.3C306.8,136.8,308.3,137,308.6,137.1z"/>
	<path class="st5" d="M326.8,144.4c-1.3-0.9-2.8-6.7,0.9-13.5c0,0-2.9,6.3-2.9,7.4s-0.8-3.3,2.1-8.8c-2.4,0.3-4.8,0.2-7.2-0.3
		c-3-0.7-4.5-1.6-4.6-1.9s4.4,0.7,6,0c0,0-8.6-0.7-11.8-2.2c-0.4-0.2,3.3-6.6,10-7s12.4,6,13.4,9.2c0,0,1.9,1.3,2.2,6.4
		C335.1,139.3,328.2,145.3,326.8,144.4z"/>
	<path class="st4" d="M324.5,148.5c-0.2,0-0.4-0.1-0.7-0.1c-0.2-0.1-0.4-0.2-0.6-0.3c-0.2-0.2-0.5-0.4-0.6-0.6
		c-0.1-0.2-0.2-0.4-0.3-0.6c-0.1-0.3-0.1-0.7-0.1-1l2.4-3c0,0,4.8-2.5,6.1-0.6S327,148.8,324.5,148.5z"/>
	<path class="st5" d="M329.3,143.5C329.3,143.5,329.3,143.6,329.3,143.5c-1.7,0-3.4,0.7-4.5,2c0.6-0.4,1.5-0.2,1.8,0.4
		c0,0.1,0.1,0.1,0.1,0.2c0,0,0,0.1-0.1,0.1c-0.4-0.4-1.1-0.6-1.7-0.3c-0.5,0.2-0.9,0.5-1.3,0.8c-0.1,0.1-0.3-0.1-0.2-0.2l0,0
		C324.4,144.5,327.2,142.6,329.3,143.5z"/>
	<path class="st11" d="M324.6,147.9c-0.2,0.3-0.6,0.3-0.9,0.1c-0.3-0.2-0.3-0.6-0.1-0.9c0.2-0.3,0.6-0.3,0.9-0.1
		C324.8,147.1,324.8,147.6,324.6,147.9C324.6,147.8,324.6,147.8,324.6,147.9z"/>
	<path class="st11" d="M326.3,147.6c-0.2,0.2-0.4,0.2-0.6,0.1c0,0,0,0,0,0c-0.2-0.2-0.2-0.5,0-0.7c0.2-0.1,0.4-0.2,0.6-0.1
		C326.4,147.1,326.4,147.4,326.3,147.6C326.3,147.6,326.3,147.6,326.3,147.6z"/>
	<path class="st5" d="M355.5,142.7c-0.8,0-1.6-0.1-2.3-0.4c-1.6-0.5-3-1.7-3.5-3.3c-0.5-1.6,0.5-3.6,1.6-5.6
		c1.2-2.4,2.5-4.8,1.4-6.8c-2.2-3.7-10.6-6.9-10.7-6.9l0.3-0.7c0.4,0.1,8.8,3.3,11.1,7.2c1.4,2.3-0.1,5-1.4,7.5
		c-1,1.9-1.9,3.7-1.5,5c0.5,1.4,1.6,2.4,3,2.8c1.6,0.6,3.4,0.5,4.8-0.4l0.4,0.6C357.7,142.4,356.6,142.7,355.5,142.7z"/>
	<path class="st6" d="M357.8,141.4c0-0.9,0.3-1.8,0.7-2.6c0.9-1.2,1.9-2.3,3.1-3.3l0.5,0.6c-1.1,0.9-2.1,1.9-2.9,3.1
		c-0.4,0.7-0.6,1.4-0.6,2.2L357.8,141.4z"/>
	<path class="st6" d="M360.5,142.2c-0.7,0-1.3-0.1-2-0.2l0.1-0.7c0.8,0.1,1.6,0.2,2.5,0.1c1.3-0.5,2.5-1.3,3.6-2.2l0.5,0.6
		c-0.3,0.2-2.9,2.2-4,2.3C360.9,142.2,360.7,142.2,360.5,142.2z"/>
	<path class="st6" d="M358.6,141.8l-0.6-0.4c0.6-1.1,1.3-2.1,2.1-3l3-2.6l0.5,0.6c0,0-2.4,2-3,2.6
		C359.9,139.8,359.2,140.8,358.6,141.8z"/>
	<path class="st6" d="M358.6,142l-0.3-0.7c1.2-0.5,2.4-1,3.5-1.7c0.6-0.5,2.5-1.8,2.6-1.9l0.4,0.6c0,0-2,1.3-2.5,1.8
		C361.1,140.9,359.9,141.5,358.6,142z"/>
	<polygon class="st6" points="326.9,125.4 306,104.9 336.1,109.4 354.6,132.7 	"/>
	<polygon class="st7" points="326.9,125.4 306,104.9 336.1,109.4 354.6,132.7 	"/>
	<path class="st6" d="M313,120.4l3.4-7.9c0,0,9.5,0.9,15.3,4.2S343,127,343,127l-5.1,7.7c0,0-7.5-6.5-12.3-9.1
		C321.6,123.5,317.3,121.8,313,120.4z"/>
</g>
<g id="freepik--character-1--inject-2">
	<path class="st12" d="M150.3,395.3c0,0,0,40.1,0,40.1c0,7.7,0.1,14.4,0.4,17.9c0,0,0,0,0,0.1c0,0.8,0.2,1.6,0.6,2.4v0
		c2.3,1.6,63.6,3.7,65.7,3s0.5-6.9-1.8-8.8s-25.4-13.3-25.4-13.3l-0.4-40.1L150.3,395.3z"/>
	<path class="st11" d="M150.3,427.2v8.2c0,7.7,0.1,14.4,0.4,17.9c0,0,0,0,0,0.1c0.1,0.8,0.3,1.6,0.6,2.4v0c2.3,1.6,63.6,3.7,65.7,3
		s0.5-6.9-1.8-8.8s-25.4-13.3-25.4-13.3l0.1-8.4L150.3,427.2z"/>
	<path class="st13" d="M217.1,458.8c-2.2,0.6-63.4-1.5-65.7-3c-0.9-0.6-1.1-9.5-1-20.4c0-0.1,0-0.2,0-0.3l39.6,0.9v0.7
		c0,0,23,11.3,25.4,13.3S219.2,458.2,217.1,458.8z"/>
	<path class="st5" d="M216.4,456.4c-10.3-0.6-52-2.1-62.3-1.9c-0.1,0-0.1,0.1,0,0.1c10.2,0.8,51.9,2,62.3,2
		C216.6,456.6,216.6,456.4,216.4,456.4z"/>
	<path class="st5" d="M193.1,436.9c-4-0.9-9-0.5-12.2,2.3c-0.1,0.1,0,0.3,0.2,0.3c3.9-1.1,7.9-1.8,12-2.1c0.1,0,0.3-0.1,0.3-0.3
		C193.3,437.1,193.2,437,193.1,436.9z"/>
	<path class="st5" d="M196,438.8c-4-0.9-9-0.5-12.2,2.3c-0.1,0.1,0,0.3,0.2,0.3c3.9-1.1,7.9-1.8,12-2.1c0.1,0,0.3-0.1,0.3-0.3
		C196.2,438.9,196.1,438.8,196,438.8z"/>
	<path class="st5" d="M198.9,440.7c-4-0.9-9-0.5-12.2,2.3c-0.1,0.1,0,0.3,0.2,0.3c3.9-1.1,7.9-1.8,12-2.1c0.1,0,0.3-0.1,0.3-0.3
		C199.1,440.8,199,440.7,198.9,440.7z"/>
	<polygon class="st5" points="148.3,366.5 148.3,366.9 149.2,437.1 192.1,436.3 183.3,222.2 147,222.2 	"/>
	<path class="st14" d="M190.3,429.1c-6.7-0.1-4.8-0.1-11.5-0.1c-3.3,0-24.8,0.1-27.9,0.6c0,0-0.1,0.1,0,0.1c0,0,0,0,0,0
		c3.1,0.5,24.6,0,27.9,0c6.7-0.1,4.8-0.2,11.5-0.4c0.1,0,0.1,0,0.1-0.1C190.4,429.2,190.3,429.1,190.3,429.1z"/>
	<path class="st14" d="M156.5,405.3c-0.1-6.4-0.2-12.8-0.3-19.3c-0.2-12.8-0.5-25.7-0.7-38.5c-0.5-25.5-0.9-51.1-1.2-76.6
		c-0.2-14.4-0.2-28.8-0.6-43.2 M153.6,227.8c-0.2,12.8-0.1,25.7-0.1,38.5s0.1,25.7,0.2,38.5c0.3,25.5,0.6,51.1,1.2,76.6
		c0.2,7.2,0.3,14.4,0.6,21.6s0.4,14.4,0.9,21.6c0,0,0,0.1,0.1,0.1c0,0,0.1,0,0.1-0.1c0.1-6.4,0-12.9-0.1-19.3L153.6,227.8z"/>
	<polygon class="st14" points="147,222.6 148,331.9 177,222.2 147,222.2 	"/>
	<path class="st12" d="M83.4,375.2l-20.7,33.7c-3.4,6.9-6.2,13-7.3,16.3c0,0,0,0,0,0.1c-0.4,0.7-0.5,1.6-0.5,2.4c0,0,0,0,0,0.1
		c1.4,2.4,55.7,30.9,57.9,31.2s3.4-6,2.2-8.8s-17.2-23-17.2-23l20.3-33.8L83.4,375.2z"/>
	<path class="st11" d="M54.8,427.6C54.8,427.6,54.8,427.7,54.8,427.6c1.4,2.5,55.7,30.9,57.9,31.3s3.4-6,2.2-8.8s-17.2-23-17.2-23
		l3.6-6c-8.9-4.7-25-13-35-18.2l-3.7,6c-3.4,6.9-6.2,13-7.3,16.3c0,0,0,0,0,0.1C55,426,54.8,426.8,54.8,427.6z"/>
	<path class="st13" d="M112.8,458.9c-2.2-0.4-56.5-28.8-57.9-31.2c-0.5-0.9,3.2-9.1,7.9-18.8l0.2-0.3l35.3,18l-0.3,0.6
		c0,0,15.9,20.2,17.2,23S115,459.3,112.8,458.9z"/>
	<path class="st5" d="M113.3,456.5c-9-5-46-24.4-55.3-28.7c-0.1,0-0.1,0,0,0c8.8,5.2,45.9,24.3,55.2,28.8
		C113.4,456.7,113.4,456.6,113.3,456.5z"/>
	<path class="st5" d="M100.7,428.8c-3.3-2.6-7.9-4.3-12-3.2c-0.2,0-0.1,0.3,0,0.3c4,0.7,8,1.8,11.8,3.4c0.1,0.1,0.3,0,0.3-0.2
		C100.8,429,100.8,428.9,100.7,428.8z"/>
	<path class="st5" d="M102.5,431.7c-3.3-2.6-7.9-4.3-12-3.2c-0.2,0-0.1,0.3,0,0.3c4,0.7,8,1.8,11.8,3.4c0.1,0.1,0.3,0,0.3-0.1
		C102.6,431.9,102.6,431.8,102.5,431.7z"/>
	<path class="st5" d="M104.3,434.7c-3.3-2.6-7.9-4.3-12-3.2c-0.2,0-0.1,0.3,0,0.3c4,0.7,8,1.8,11.8,3.3c0.1,0.1,0.3,0,0.3-0.2
		C104.4,434.9,104.3,434.7,104.3,434.7z"/>
	<path class="st5" d="M178.4,222.2L178.4,222.2c-0.2,0.8-2.7,12.5-5.3,22.6c-1.9,7.4-3.9,13.9-5,14.5c-1.3,0.8-7.5,3.5-9.6,4.4
		c0,0-14,69.9-21.4,91.5c-6.8,20-35,73.4-35,73.4l-41-20.6c0,0,32-54.2,35.3-64c5.2-15.1,24.7-88.7,24.7-88.7s-0.2-23.1,7.6-33.1
		L178.4,222.2z"/>
	<path class="st14" d="M101.5,420.6c-5.8-3.3-4.1-2.4-10-5.6c-2.9-1.6-21.8-11.9-24.8-12.8c-0.1,0-0.1,0.1-0.1,0.1
		c2.5,1.9,21.6,11.8,24.5,13.4c6,3.1,4.3,2.1,10.3,5.1C101.4,420.8,101.5,420.8,101.5,420.6C101.5,420.7,101.5,420.7,101.5,420.6z"
		/>
	<path class="st14" d="M131.7,248.9c1.1-0.3,2.3-0.4,3.5-0.6c0.9-0.1,1.9-0.3,2.8-0.5c1.8-0.3,3.4-1,4.9-2.1c1.5-1.3,2.5-3,3.2-4.9
		c0.4-1.1,0.9-2.1,1.4-3.2l0.7-1.5c0.3-0.6,0.6-1.2,0.9-1.9c0,0,0.1-0.1,0.1,0s0.1,0.1,0,0.1c-0.2,0.4-0.3,0.9-0.4,1.3
		c-0.2,0.5-0.3,1-0.5,1.6c-0.3,0.9-0.6,1.8-0.9,2.7c-0.5,1.7-1.1,3.3-2,4.8c-1.7,2.7-4.7,3.8-7.7,4.2c-0.9,0.1-1.7,0.2-2.6,0.2
		c-1.1,0.1-2.2,0.1-3.3,0C131.6,249.1,131.6,249,131.7,248.9C131.6,248.9,131.6,248.9,131.7,248.9z"/>
	<path class="st14" d="M171.4,257.7c-4.4,1.6-8.7,3.6-12.8,6c-0.1,0-0.1,0.1,0,0.2c0,0.1,0.1,0.1,0.2,0.1c4.3-1.9,8.7-3.6,12.9-5.7
		c0.1-0.1,0.2-0.2,0.2-0.4C171.7,257.7,171.5,257.6,171.4,257.7z"/>
	<path class="st14" d="M172.7,228.1c0-0.1-0.3-0.2-0.3,0c0,5.1-0.3,9.6-0.7,14.4c-0.2,2.2-2,14.5-5.9,13.6c-0.6-0.1-1-0.8-1.1-1.8
		c0-1.3,0.2-2.5,0.5-3.8c0.4-2.6,0.8-5.1,1-7.8c0.4-4.8,0.4-9.7-0.2-14.6c0-0.1-0.1-0.1-0.2-0.1c0,0-0.1,0-0.1,0.1
		c0.1,6.7-0.3,13.4-1.2,20.1c-0.5,3.2-2.1,8,1.3,8.5s5.6-7.6,6-9.8C173,240.8,173.2,234.4,172.7,228.1z"/>
	<path class="st14" d="M165.9,256.5c-0.3,0.8-0.6,1.7-0.9,2.5c-0.3,0.7-0.4,1.4-0.4,2.1c0,0.1,0.1,0.1,0.2,0.1c0,0,0.1,0,0.1-0.1
		c0.4-0.6,0.7-1.3,0.9-2c0.3-0.8,0.6-1.6,0.9-2.4c0.1-0.2,0-0.5-0.2-0.6C166.3,256.1,166,256.2,165.9,256.5z"/>
	<path class="st14" d="M72.2,401.2c5.8-11,11.8-21.8,17.8-32.7c3-5.4,6.1-10.6,8.9-16.1c2.7-5.4,4.8-11,6.5-16.8
		c3.6-11.7,7-23.5,10.2-35.3s6.2-23.7,9.1-35.6c0.7-3,1.5-6,2.1-9c0.5-3,0.5-6.1,0-9.2c-0.4-2.8-0.5-5.7-0.1-8.6
		c0.5-2.8,1.1-5.6,2-8.4c0.4-1.4,0.9-2.9,1.4-4.3c0.1-0.2,0.3-0.1,0.3,0.1c-1.8,5.8-3.6,11.6-3.2,17.7c0.2,2.9,1,5.8,0.9,8.8
		c-0.2,2.9-0.7,5.8-1.5,8.7c-2.8,12-5.8,23.9-9,35.8s-6.6,23.7-10.1,35.6c-1.7,5.7-3.4,11.5-5.8,17s-5.6,10.6-8.5,15.9
		c-6.1,10.8-12.2,21.6-18.5,32.3l-2.4,4.1C72.3,401.3,72.1,401.3,72.2,401.2z"/>
	<path class="st12" d="M155.4,176.2c7.4,3.3,39.9,9.3,49.8,1.5c10-7.9,16.5-41,17.3-44.9s-24.7-10-25.6-6.4
		c-2.2,9.1-6.1,33.1-9.8,34.4c-7.9,2.7-15.6,3.2-28.3,5.6C149.9,168.1,147.3,172.5,155.4,176.2z"/>
	<path class="st12" d="M222,133.6c1.5-2.8,7.6-16.2,8.4-20.2s2.3-15.9-0.7-16.9s-3.8,2.5-3.8,2.5s-0.2-5.1-3.3-5.8s-4.1,4.7-4.1,4.7
		s-0.6-5.2-3.7-5.7s-3.2,5.1-3.2,5.1s-0.3-4.8-3-4.1c-3.4,0.9-1.9,9.7-3.1,14.1c-0.3,1-7.1,19.9-7.1,19.9L222,133.6z"/>
	<path class="st5" d="M211.6,97c1.1,6.5,0.4,9.5-2.1,15.5c0,0,0,0.1,0,0.1s0.1,0,0.1,0l0,0c3-5.6,4.3-9.3,2.2-15.6
		C211.8,96.6,211.5,96.6,211.6,97z"/>
	<path class="st5" d="M218.4,97.5c0.6,6.8-0.1,10.1-2.3,16.6c0,0.1,0.1,0.2,0.1,0.1c2.6-6.2,3.9-9.8,2.5-16.6
		C218.7,97.2,218.4,97.2,218.4,97.5z"/>
	<path class="st5" d="M225.8,99.4c0.1,6.7-0.5,10.3-3.4,16.3c0,0.1,0,0.1,0,0.2c0.1,0,0.1,0,0.2,0l0,0c3.6-5.8,4.3-10.3,3.4-16.4
		C226,99,225.8,98.9,225.8,99.4z"/>
	<path class="st12" d="M196.6,131.2c0,0-2.9-7.7-3.4-11.4s2.7-18,5.8-17.5c4.1,0.7,3.9,9.3,3.2,13.5c0,0,9.4,1.5,10.6,7.8
		S196.6,131.2,196.6,131.2z"/>
	<path class="st5" d="M200.1,102.8c3.3,3.3,2.1,8.8,1.7,12.9c0,0.2,0.1,0.4,0.3,0.4c0,0,0.1,0,0.1,0c3.9,0.9,9.1,3.3,10.7,7.2
		c0,0,0.1,0.1,0.1,0.1s0.1-0.1,0.1-0.1l0,0c-1.1-4.4-6.1-7.2-10.4-7.9C203.2,111.1,204.2,105.6,200.1,102.8
		C200.1,102.8,200.1,102.8,200.1,102.8z"/>
	<path class="st6" d="M195.3,132.5c0,0-5.6,25.9-7.9,27.1c-3.7,1.9-25.3,5.6-33,7.3s-13.7,10.1,6,13.1s37.6,7.8,47,3.5
		c5.9-2.7,24.3-29.5,24.3-29.5L195.3,132.5z"/>
	<path class="st5" d="M194.6,141.6c14.4,7.8,28.3,17.2,30.9,18.8c0.1,0.1,0,0.3-0.2,0.2c-2.4-1.5-19.7-11.3-30.9-18.8
		C194.3,141.7,194.4,141.5,194.6,141.6z"/>
	<path class="st7" d="M203.2,184.7c-10,1.8-25.8-2.1-42.9-4.8c-12-1.9-14.4-5.7-12.7-8.8L203.2,184.7z"/>
	<path class="st3" d="M121,238.8c0.2,0.1,63.8-4.3,64.3-5c0.2-0.4-0.6-9.1-3.9-19.4c-5.4-17.3-17-40.6-24.7-47.8
		c-3.1-2.9-11.7-1.6-15.1,2.1C131.6,179.8,120.4,238.3,121,238.8z"/>
	<path class="st6" d="M140.3,169.1c0,0,5.3,9.5,6.9,12c3.8,5.8,13,14,13,14c0.7-6.2,0.9-12.5,0.5-18.7c-0.2-2.3-3.1-9.4-3.1-9.4
		s17.4,18.3,26.6,55.1s22.1,143.5,22.1,143.5s-22.6,18.2-46.2,18.2c-38.1-0.1-77.7-25.7-77.7-25.7s13.1-21.7,14.1-24.5
		s20.4-78.4,20.7-79S130.8,180.3,140.3,169.1z"/>
	<path class="st7" d="M166.8,349.6c-0.9,4.7-6.7,22.9-10.4,34.1c-7.3-0.4-14.6-1.5-21.7-3.2c6.9-8.5,19.3-27.7,21.1-32.5
		c2.2-5.7,4.2-32.7,7.3-35.3S168.1,342.6,166.8,349.6z"/>
	<path class="st7" d="M158.8,294c0-0.2-0.3-0.3-0.4,0c-0.2,1.6-0.2,3.2-0.4,4.8s-0.4,3.2-0.7,4.8c-0.4,3.2-0.9,6.5-1.4,9.7
		c-0.9,6.4-2.1,12.8-3.5,19.2c-0.8,3.6-1.7,7.1-2.8,10.6c0,0.1,0.1,0.1,0.1,0c2.4-6.1,4.4-12.4,6.1-18.8c0.8-3.1,1.4-6.3,1.8-9.5
		c0.5-3.2,0.8-6.4,1-9.7c0.1-1.8,0.1-3.6,0.1-5.4S158.9,295.9,158.8,294z"/>
	<path class="st7" d="M198.2,367.4c0,1.3-0.1,2.6-0.2,4l-1.3,0.8c0-0.1,0-0.2,0-0.3c-0.1-2-0.1-3.9-0.2-5.9
		c-0.2-6.9-0.5-13.7-1.1-20.5c-0.2-1.7-0.2-3.4-0.4-5.1c-0.2-1.7-0.3-3.5-0.3-5.2c0-1.7-0.2-3.4-0.5-5.1c-0.2-1.7-0.5-3.5-0.7-5.2
		c0,0,0.1-0.1,0.1,0c0,0,0,0,0,0c0.4,1.9,0.8,3.8,1.2,5.8c0.2,1,0.3,1.9,0.5,2.9s0.5,1.9,0.6,2.8c1.2,6.9,1.9,13.8,2.1,20.8
		C198.2,360.4,198.3,363.9,198.2,367.4z"/>
	<path class="st7" d="M191.1,333.2c-0.1-2.5-0.2-5.1-0.3-7.6s-0.4-5-0.6-7.5s-0.7-5-0.9-7.6c-0.3-2.9-0.5-5.7-0.7-8.6
		c0-0.1-0.2-0.1-0.2,0c0.1,2.5,0.2,5,0.4,7.6s0,5.1,0.1,7.6c0.2,5,0.7,10,1.3,15c0.4,2.9,0.9,5.7,1.1,8.6c0,0.1,0.2,0.1,0.2,0
		C191.1,338.3,191.1,335.8,191.1,333.2z"/>
	<path class="st7" d="M149.6,350.4c-1.7,3-3.4,6-5.2,9c-1.6,2.6-3.1,5.3-4.9,7.8s-3.6,4.8-5.6,7.1c-1.4,1.6-2.7,3.2-4.2,4.8
		l-1.3-0.4l1.3-1.5c3.5-4.2,6.8-8.7,10.1-13.1c1.7-2.2,3.5-4.4,5.1-6.8s3.1-4.6,4.6-7C149.5,350.3,149.6,350.3,149.6,350.4
		C149.6,350.4,149.6,350.4,149.6,350.4L149.6,350.4z"/>
	<path class="st7" d="M142.2,306.5c-2.3,7.2-4.7,14.3-7.5,21.3c-1.4,3.4-3,6.8-4.5,10.1s-3,6.8-4.8,10c-2,3.7-4.2,7.2-6.7,10.6
		c0,0.1,0.1,0.2,0.1,0.1c4.7-5.7,8.8-12,12-18.7c1.6-3.4,2.9-6.9,4.1-10.5c1.3-3.5,2.4-7.1,3.6-10.7c1.3-4.1,2.5-8.1,3.7-12.2
		C142.3,306.5,142.3,306.5,142.2,306.5C142.2,306.5,142.2,306.5,142.2,306.5z"/>
	<path class="st7" d="M185.1,230.6c-0.8,0.8-1.7,1.5-2.5,2.3l-1.2,1.1c-0.4,0.4-0.9,0.7-1.4,1.1c-1.7,1.4-3.4,2.6-5.1,4
		c-3.3,2.7-7,4.8-10.9,6.4c-8.7,3.4-18.3,2.6-27.1,0.5c-5.2-1.2-10.3-3-15.4-4.6c-0.1,0-0.1,0.1,0,0.1c4.5,2,9,3.7,13.7,5.2
		c4.6,1.6,9.3,2.5,14.1,2.9c4.7,0.3,9.5-0.3,14-1.8c4.1-1.5,8-3.5,11.4-6.2c2-1.5,3.9-3.2,5.6-5c0.9-0.9,1.7-1.9,2.6-2.9
		s1.6-2,2.5-3C185.4,230.7,185.2,230.5,185.1,230.6z"/>
	<path class="st12" d="M130.3,180c-18.3-9.1-39-22.3-40.1-33c-1-9.7,5.4-26.1,12.3-44c1.4-3.6,28.4,8.5,26.6,12.1
		c-3.6,7.2-13.7,22.7-13.8,27.4c-0.1,2,16.3,18.7,25.6,30.2C152,186.7,137.6,183.6,130.3,180z"/>
	<path class="st12" d="M108.1,87.5c-3.3,5.2-7.5,20.8-6.9,24.2s22.9,8.5,25.7,6.3c2.8-2.3,12.4-20.5,11.8-26.7
		S111.5,82.2,108.1,87.5z"/>
	<path class="st3" d="M153.7,83.2c0,0,8,7.5,2.3,17.4c0,0-29.1,1.3-30.8,1.7s-34,9.3-34,9.3s-5.4-7.2-1.5-18.7
		c0,0,33.4,0.8,34.4,0.6S153.7,83.2,153.7,83.2z"/>
	<path class="st8" d="M91.2,111.6c0,0,5.7-10.8-1.5-18.7C89.7,92.9,85,101.4,91.2,111.6z"/>
	<path class="st6" d="M125.2,102.3c0.2,0.2,0.3,0,0.3-0.2c0-0.2,0.1-0.4,0.1-0.6c0-0.4,0-0.8,0-1.3c0-0.8-0.1-1.7-0.2-2.5
		c-0.1-0.8-0.2-1.7-0.4-2.5c-0.1-0.4-0.2-0.8-0.3-1.2c-0.1-0.3-0.3-0.8-0.8-0.6c0.1-0.1,0.2-0.2,0.3-0.2c0.1,0,0.3,0,0.4,0.1
		c0.2,0.1,0.4,0.3,0.5,0.5c0.3,0.4,0.5,0.8,0.7,1.2c0.3,0.8,0.5,1.7,0.6,2.6c0.1,0.9,0.1,1.8-0.1,2.7c-0.1,0.4-0.2,0.9-0.3,1.3
		c-0.1,0.2-0.2,0.4-0.3,0.6c-0.1,0.1-0.2,0.2-0.3,0.3c-0.1,0-0.1,0-0.2,0C125.2,102.4,125.2,102.4,125.2,102.3z"/>
	<path class="st6" d="M124.8,102.4c0.2,0.2,0.3,0,0.3-0.2c0-0.2,0-0.4,0-0.6c0-0.4,0-0.8,0-1.3c-0.1-0.8-0.2-1.7-0.3-2.5
		c-0.2-0.8-0.3-1.7-0.5-2.5c-0.1-0.4-0.2-0.8-0.4-1.2c-0.1-0.2-0.2-0.4-0.3-0.5c-0.1-0.1-0.3-0.2-0.4-0.1c0,0,0,0-0.1,0.1
		c0-0.1,0.1-0.2,0.3-0.3c0.1,0,0.3,0,0.4,0.1c0.2,0.1,0.4,0.3,0.6,0.5c0.3,0.4,0.5,0.8,0.7,1.2c0.4,0.8,0.6,1.7,0.8,2.6
		c0.2,0.9,0.2,1.8,0.1,2.7c0,0.5-0.1,0.9-0.3,1.3c-0.1,0.2-0.2,0.4-0.3,0.7c-0.1,0.1-0.2,0.2-0.3,0.3
		C124.9,102.7,124.8,102.5,124.8,102.4z"/>
	<path class="st6" d="M124.4,102.5c0,0,0.1,0.1,0.1,0.1l0,0c0-0.1,0-0.2,0-0.3c0-0.2-0.1-0.4-0.1-0.6l-0.3-1.2
		c-0.2-0.8-0.4-1.7-0.6-2.5s-0.3-1.7-0.4-2.5c-0.1-0.4-0.1-0.8-0.2-1.2c0-0.2-0.1-0.4-0.2-0.6c-0.1-0.2-0.2-0.3-0.4-0.1
		c0-0.1,0.1-0.2,0.3-0.2c0.1,0,0.3,0.1,0.4,0.2c0.2,0.2,0.3,0.4,0.4,0.6c0.2,0.4,0.4,0.8,0.5,1.2c0.3,0.8,0.5,1.7,0.7,2.5
		c0.2,0.8,0.3,1.7,0.3,2.6c0,0.4,0,0.9,0,1.3c0,0.2,0,0.4-0.1,0.7c0,0.1-0.1,0.2-0.1,0.3c0,0,0,0.1-0.1,0.1c0,0-0.1,0-0.1,0
		C124.4,102.7,124.4,102.6,124.4,102.5z"/>
	<path class="st12" d="M137.8,101.1c-2.9,1.4-2.9-2.8-2.9-2.8s-1.4,6.1-5,6.5s-3.3-4.8-3.3-5.2c-0.1,0.3-1.5,5.9-5.2,5.9
		s-2.8-5.2-2.7-5.5c-0.2,0.3-2.5,4-5.2,3.3c-4.7-1.1,0.9-10.7-0.2-14.5c0,0-5.2-0.8-5.4-0.8c0,0,3.8-7.2,8.9-8.5
		c1.5-0.4,3.1,0.3,3.9,1.7c0,0,1.4-3.1,4.2-3.2c1.5,0,2.8,2.3,2.8,2.3c0.7-1.4,2.1-2.4,3.7-2.4c2,0.1,3.1,2.4,3.1,2.4
		s2.2-1.9,4.3-1.1C142.9,80.6,144,98,137.8,101.1z"/>
	<path class="st5" d="M134.7,80.5c1.9,5.9,1.9,12.1,0.1,18c-0.1,0.2-0.4,0.2-0.4,0C135.4,92.6,135.5,86.5,134.7,80.5L134.7,80.5z"/>
	<path class="st5" d="M127.7,80.1c0-0.1,0.1-0.1,0.1,0c2,6.5,1.6,13.4-1.1,19.6c-0.1,0.2-0.4,0.3-0.3,0
		C128,95.4,128.5,85.7,127.7,80.1z"/>
	<path class="st5" d="M118.3,100.3c2.6-6.1,3-12.4,2.4-18.9c0-0.1,0.1-0.1,0.1,0c1.1,3.1,1.1,7.3,0.7,10.6c-0.2,3-1.3,5.9-3,8.4
		C118.5,100.4,118.3,100.4,118.3,100.3z"/>
	<path class="st5" d="M134.8,98.2c-0.4,1.2-0.9,2.3-1.4,3.3c-0.5,1.1-1.3,1.9-2.3,2.6c-0.5,0.3-1,0.4-1.6,0.3
		c-0.5-0.1-1-0.4-1.4-0.7c-0.7-0.8-1.1-1.9-1-3l0.1-2.7l-1,2.5c-0.4,1.1-1.1,2.1-1.8,3c-0.7,0.9-1.7,1.4-2.8,1.5
		c-1,0.1-2-0.6-2.3-1.6c-0.3-1.1-0.3-2.3,0-3.4l0.7-3.1l-1.7,2.7c-0.5,0.7-1,1.4-1.6,2c-0.6,0.6-1.3,1-2.1,1.2
		c-0.8,0.2-1.5-0.2-2-0.8c-0.4-0.7-0.6-1.6-0.5-2.4c0.1-1.8,0.4-3.6,0.8-5.4c0.2-0.9,0.3-1.8,0.5-2.7c0.2-0.9,0.2-1.9,0-2.8
		c0.1,0.9,0,1.8-0.2,2.7c-0.2,0.9-0.4,1.8-0.7,2.7c-0.5,1.8-0.9,3.6-1.1,5.5c-0.1,1,0.1,2,0.5,2.9c0.6,1,1.7,1.5,2.8,1.3
		c1-0.2,1.9-0.7,2.7-1.4c0.7-0.7,1.3-1.4,1.9-2.2l-1-0.4c-0.4,1.3-0.4,2.7,0,4c0.2,0.7,0.7,1.3,1.3,1.8c0.6,0.4,1.3,0.6,2.1,0.6
		c1.4-0.1,2.7-0.8,3.6-1.9c0.9-1,1.5-2.1,2-3.3l-0.9-0.2c-0.1,1.4,0.5,2.7,1.5,3.6c0.5,0.4,1.1,0.7,1.8,0.8c0.7,0.1,1.4,0,2-0.4
		c1-0.8,1.8-1.8,2.3-3C134.3,100.5,134.6,99.4,134.8,98.2z"/>
	<path class="st12" d="M129.1,115.2c0,0,21.4-14.7,11.6-20.2c-2.9-1.7-16.9-5-17.6-2.2c-0.9,3.6,4.7,6.1,8.4,7.1c0,0-8,4-6.9,10.4
		C125,112.6,126.7,114.5,129.1,115.2z"/>
	<path class="st5" d="M141.4,95.5c-1.1-0.8-2.2-1.4-3.5-1.8c-1.2-0.5-2.5-0.9-3.8-1.2c-2.6-0.7-5.2-1.1-7.9-1.3
		c-0.7,0-1.4,0-2.1,0.2c-0.4,0.1-0.8,0.3-1.1,0.5c-0.2,0.1-0.3,0.3-0.4,0.5c-0.1,0.2-0.2,0.4-0.3,0.6c-0.2,0.8-0.1,1.6,0.3,2.3
		c0.4,0.6,0.8,1.2,1.4,1.7c1,0.9,2.2,1.6,3.5,2.1c1.2,0.5,2.5,0.9,3.8,1.3l-0.1-0.9c-0.9,0.5-1.7,1.1-2.5,1.7
		c-0.8,0.6-1.5,1.3-2.1,2.1c-0.6,0.8-1.2,1.7-1.5,2.6c-0.4,0.9-0.6,1.9-0.6,2.9c0.1-1,0.4-1.9,0.9-2.8c0.5-0.9,1-1.6,1.7-2.3
		c0.7-0.7,1.4-1.4,2.2-1.9c0.8-0.6,1.6-1.1,2.5-1.5l1.1-0.5l-1.1-0.4c-1.2-0.4-2.5-0.8-3.6-1.3c-1.2-0.5-2.2-1.2-3.2-2
		c-0.9-0.7-1.4-1.8-1.3-2.9c0.2-0.9,1.6-1,2.8-1s2.6,0.2,3.9,0.3s2.6,0.3,3.9,0.6C136.6,93.5,139.1,94.3,141.4,95.5z"/>
	<path class="st6" d="M127.3,118.8c0,0-11.5,21.9-10.5,24.2c1.5,3.9,20.8,24.4,25.5,30.7s7.6,14.3-10.2,10.5
		c-12.8-2.7-41.9-19.8-46.6-30.9c-3.2-7.6-2.3-38.7-2.3-38.7L127.3,118.8z"/>
	<path class="st5" d="M86.1,122.6c16.4,0.6,33,2.8,36,3c0.1,0,0.1,0.2-0.1,0.2c-2.8-0.2-22.7-1.2-36-3
		C85.8,122.9,85.9,122.6,86.1,122.6z"/>
	<path class="st9" d="M149.7,162.8c-7,0-17.3,11.6-16.9,14.6c0.6,4.4,7.3,36.7,8.2,45.3s-17,50-17,50l11.8-3.4l4.5,10.5
		c0,0,15.8-36.2,17-51.8s-16-55.1-15.2-57.5s5.5-5.2,7.9-5.3s7,3.8,9.9,7.8s16.6,32.9,19,43.5s-2.9,53.4-2.9,53.4l9.3-7l9.5,8.4
		c0,0,2.3-41.2-1.1-58.5c-2.1-11-14.8-30.7-26.6-41.8C160.3,164.7,153.9,162.8,149.7,162.8z"/>
	<path class="st12" d="M155.3,176.8c-2.6,0.6-8.9-3.1-11.8-6.8c-0.2-0.3-0.3-3.2-0.5-6.9c-0.2-2.2-0.4-4.6-0.8-6.9l14.5,1
		c-0.3,2.9-0.3,5.8,0.1,8.7c0.1,0.3,0.1,0.6,0.3,0.9c0,0,0,0.1,0,0.1C157.7,168.8,159.3,175.9,155.3,176.8z"/>
	<path class="st5" d="M157.1,166.9c0,0,0,0.1,0,0.1c-0.5,0.1-0.9,0.2-1.4,0.3c-7.9,1.1-11.5-8.1-12.4-11l13.4,0.9
		c-0.3,2.9-0.3,5.8,0.1,8.7C156.9,166.4,157,166.7,157.1,166.9z"/>
	<path class="st5" d="M152.2,128.2c0,0,5.3,0.9,7.3,5.5s2.1,10.1,1.8,10.4S152.2,128.2,152.2,128.2z"/>
	<path class="st12" d="M135.9,139.7c-0.2,5.2,6,18.5,10.3,20.7c6.2,3.2,14.4,1.5,16.7-5.5c2.2-6.8-6.2-23.9-10.8-25.8
		C145.3,126.4,136.2,132,135.9,139.7z"/>
	<path class="st5" d="M147.5,142.5c0.4-0.3,0.6-0.6,1-0.9c0.4-0.3,0.7-0.6,0.8-1.1c0-0.3-0.1-0.6-0.4-0.7c-0.6-0.1-1.2,0.1-1.6,0.5
		c-0.5,0.4-0.8,0.9-0.9,1.5c0,0.4,0.3,0.7,0.7,0.8C147.3,142.6,147.4,142.6,147.5,142.5z"/>
	<path class="st5" d="M156.5,138.7c-0.4,0.1-0.9,0.2-1.3,0.2c-0.4,0.1-0.9,0.1-1.4-0.1c-0.3-0.2-0.4-0.5-0.3-0.8
		c0.3-0.5,0.8-0.9,1.4-0.9c0.6-0.1,1.2,0,1.8,0.3c0.3,0.2,0.4,0.7,0.2,1C156.8,138.5,156.6,138.6,156.5,138.7z"/>
	<path class="st5" d="M152.7,152.8c0.3,0.2,0.7,0.3,1,0.2c0.3-0.2,0.6-0.4,0.9-0.6c0,0,0.1,0,0.1,0c-0.1,0.5-0.5,0.9-0.9,1
		C153.3,153.4,152.9,153.2,152.7,152.8C152.6,152.8,152.7,152.8,152.7,152.8C152.7,152.8,152.7,152.8,152.7,152.8z"/>
	<path class="st5" d="M152.5,149.7c0.8,0.5,1.7,0.7,2.6,0.5c0.4-0.1,0.8-0.2,1.1-0.4l0.2-0.1l0.2-0.1c0.1-0.1,0.1-0.2,0.1-0.3l0,0
		c0,0,0-0.1,0-0.1l0,0V149c-0.3-0.7-0.8-1.7-0.8-1.7c0.3,0,1.9,0,1.7-0.3c-1.4-3.1-3.2-6.1-5.2-8.8c0,0-0.1-0.1-0.1,0
		s-0.1,0.1,0,0.1c1.3,2.9,3.1,5.5,4.5,8.4c-0.6,0-1.1,0.1-1.6,0.2c-0.1,0.1,1.1,2,1.1,2.3l0,0c-1.1,0.6-2.4,0.8-3.6,0.4
		C152.5,149.5,152.4,149.6,152.5,149.7z"/>
	<path class="st5" d="M155.7,149.6c-0.2,0.7-0.5,1.3-1,1.8c-0.3,0.3-0.6,0.4-1,0.5c-0.8,0.1-1.1-0.5-1.2-1.2c-0.1-0.3-0.1-0.7-0.1-1
		C153.5,150,154.7,149.9,155.7,149.6z"/>
	<path class="st10" d="M154.7,151.3c-0.3,0.3-0.6,0.4-1,0.5c-0.8,0.1-1.1-0.5-1.2-1.2C153.3,150.3,154.2,150.6,154.7,151.3z"/>
	<path class="st5" d="M148.6,144.7c0-0.3,0-0.5,0.1-0.8c0.1-0.3,0.3-0.5,0.6-0.6c0.3-0.1,0.6,0,0.9,0.1c0.2,0.2,0.4,0.4,0.5,0.6
		c0.1,0.1,0.1,0.3,0.2,0.4c0.1,0.3,0.2,0.6,0.1,0.9c-0.1-0.2-0.2-0.4-0.3-0.6c-0.1-0.2-0.2-0.4-0.3-0.5c-0.3-0.4-0.6-0.6-0.9-0.5
		s-0.5,0.5-0.5,0.9c0,0.4,0.1,0.9,0.2,1.3C148.9,145.6,148.7,145.2,148.6,144.7z"/>
	<path class="st5" d="M157.4,140.7c-0.2-0.2-0.4-0.4-0.6-0.5c-0.3-0.1-0.6-0.1-0.9,0c-0.3,0.1-0.5,0.4-0.5,0.7c0,0.3,0,0.5,0.1,0.8
		c0,0.1,0.1,0.3,0.2,0.4c0.1,0.3,0.4,0.5,0.6,0.7c-0.1-0.2-0.2-0.4-0.3-0.6c-0.1-0.2-0.1-0.4-0.1-0.6c-0.1-0.4,0-0.8,0.3-1
		c0.4-0.2,0.8,0,1,0.3c0.3,0.3,0.6,0.7,0.8,1.1C157.9,141.5,157.7,141.1,157.4,140.7z"/>
	<path class="st5" d="M140.4,151.4c1.7-0.3,1.3-5.6,1-7.6c-0.3-1.7-2.1-6.9-2.2-7.2s8.6,1.2,11.9-1.7s4.2-7.6,3.5-9.2
		s-7.4-3.4-11.6-1.6s-7.2,9.6-7.2,9.6c0.3-1.1,0.5-2.2,0.7-3.3c-0.1-0.2-2.3,2.2-1.9,4.3c0,0-0.6-2.6-0.8-2.6s-1.3,3-0.1,4.4
		c0,0-1.4,3.2-0.5,5.6S138.4,151.7,140.4,151.4z"/>
	<path class="st5" d="M153.4,132.7c-0.8,1.1-1.9,2.2-3,3c-1.3,0.8-2.8,1.2-4.4,1.3c-1.5,0.1-3.1,0-4.6-0.4c-1.3-0.3-2.6-0.9-4-1.1
		c-0.3-0.1-0.4,0.4-0.2,0.6c2.8,1.6,6.1,2.2,9.3,1.8C149.6,137.5,152.2,135.5,153.4,132.7L153.4,132.7z"/>
	<path class="st12" d="M141.9,150.3c0,0-4.4-3.6-6.1-1.9s2.5,7.5,5.1,7.7c1.4,0.2,2.7-0.7,2.9-2.1c0,0,0-0.1,0-0.1L141.9,150.3z"/>
	<path class="st5" d="M137,150C137,150,137,150.1,137,150c1.9,0.3,3.2,1.6,4.3,3c-0.6-0.5-1.4-0.5-2,0c-0.1,0.1-0.1,0.1-0.1,0.2
		c0,0,0,0.1,0.1,0.1c0.5-0.4,1.3-0.4,1.8,0c0.4,0.3,0.8,0.7,1.2,1.1c0.1,0.1,0.4,0,0.3-0.2l0,0C141.8,152.1,139.3,149.6,137,150z"/>
	<path class="st3" d="M157.2,166.7l-3.1,8.6l-11-10.4l-2.9,3.6c0,0,11,16.7,11.1,15.9l3.2-7.5l5.3,4.9l-0.9-12.8L157.2,166.7z"/>
	<path class="st5" d="M159.7,175.6c-0.2-2.1-0.4-4.3-0.7-6.4c0-0.1-0.1-0.1-0.1,0c-0.3,2.1,0.5,10.1,0.6,12.1l0,0
		c-0.2-0.2-4.9-4.3-4.9-4.3c-0.7,1.2-3.1,6.6-3.2,7.1c-1.8-2.7-8.4-12.3-10.4-14.8c0,0-0.1,0-0.1,0c0,0,0,0.1,0,0.1
		c1.6,2.8,10.4,15.8,10.5,15.8c1.3-2.6,2.4-5.2,3.4-7.9c0.8,0.9,5.5,5.6,5.5,5.2C160.1,180.2,160,177.9,159.7,175.6z"/>
</g>
<g id="freepik--Hat--inject-2">
	<path class="st5" d="M162.1,61.2c-1.4,0-2.8-0.7-3.8-1.7c-1.4-1.3-2.2-3.2-2-5.2l0.7,0.1c-0.1,1.7,0.5,3.4,1.8,4.5
		c1,1.1,2.4,1.6,3.9,1.5c1.5-0.3,2.9-1.7,4.3-3.1c1.7-1.8,3.5-3.6,5.9-4c4.7-0.8,10.9,5.5,11.1,5.7l-0.5,0.5
		c-0.1-0.1-6.1-6.3-10.4-5.5c-2.2,0.4-3.9,2.1-5.5,3.8s-3,3-4.7,3.3C162.6,61.3,162.3,61.3,162.1,61.2z"/>
	<path class="st6" d="M157,54.9l-0.3-0.7c0.7-0.4,1.3-0.9,1.7-1.5c0.6-1.3,1.1-2.6,1.4-4l0.7,0.2c-0.3,1.5-0.9,2.9-1.5,4.2
		C158.5,53.9,157.8,54.5,157,54.9z"/>
	<path class="st6" d="M156.1,54.6c-0.5-0.7-1-1.5-1.3-2.3c-0.4-1,0.2-4.2,0.3-4.6l0.7,0.2c-0.3,1.4-0.5,2.8-0.4,4.2
		c0.3,0.7,0.7,1.5,1.2,2.1L156.1,54.6z"/>
	<path class="st6" d="M157,54.7l-0.6-0.4c0.6-0.9,1.2-2,1.6-3l1-3.9l0.7,0.2c0,0-0.8,3-1,3.9C158.2,52.6,157.7,53.7,157,54.7z"/>
	<path class="st6" d="M156.1,54.5c-0.1-1.4-0.1-2.8,0-4.2c0.2-0.7,0.5-3,0.5-3.1l0.8,0.1c0,0.1-0.3,2.4-0.5,3.2
		c-0.1,1.3-0.1,2.6,0,3.9L156.1,54.5z"/>
	<polygon class="st6" points="200.8,62.9 225.7,47.5 195.3,45.3 172.2,63.9 	"/>
	<polygon class="st7" points="200.8,62.9 225.7,47.5 195.3,45.3 172.2,63.9 	"/>
	<path class="st6" d="M215.5,61l-1.6-8.4c0,0-9.5-1.2-15.9,0.8s-13.3,7.6-13.3,7.6l3.3,8.6c0,0,8.8-4.7,14-6.2
		C206.4,62.2,210.9,61.5,215.5,61z"/>
</g>
</svg>
