<?xml version="1.0" encoding="utf-8"?>
<!-- Generator: Adobe Illustrator 24.0.1, SVG Export Plug-In . SVG Version: 6.00 Build 0)  -->
<svg version="1.1" id="Camada_1" xmlns="http://www.w3.org/2000/svg" xmlns:xlink="http://www.w3.org/1999/xlink" x="0px" y="0px"
	 viewBox="0 0 500 500" style="enable-background:new 0 0 500 500;" xml:space="preserve">
<style type="text/css">
	.st0{fill:url(#SVGID_1_);}
	.st1{fill:url(#SVGID_2_);}
	.st2{fill:#DBDBDB;}
	.st3{fill:#A6A6A6;}
	.st4{fill:#263238;}
	.st5{fill:#F7A9A0;}
	.st6{fill:#6A6A6A;}
	.st7{fill:#FFFFFF;}
	.st8{fill:#FF9CBD;}
	.st9{fill:#37474F;}
	.st10{fill:#455A64;}
	.st11{fill:url(#SVGID_3_);}
	.st12{fill:#330080;}
</style>
<linearGradient id="SVGID_1_" gradientUnits="userSpaceOnUse" x1="128.9099" y1="393.3501" x2="404.8921" y2="117.3679">
	<stop  offset="0" style="stop-color:#645FCE;stop-opacity:0.5"/>
	<stop  offset="1" style="stop-color:#330080;stop-opacity:0.5"/>
</linearGradient>
<circle class="st0" cx="264.1" cy="258.1" r="195.1"/>
<linearGradient id="SVGID_2_" gradientUnits="userSpaceOnUse" x1="296.9611" y1="368.7127" x2="478.4189" y2="368.7127">
	<stop  offset="0" style="stop-color:#645FCE;stop-opacity:0.2"/>
	<stop  offset="1" style="stop-color:#645FCE;stop-opacity:0.3"/>
</linearGradient>
<circle class="st1" cx="387.7" cy="368.7" r="90.7"/>
<g id="freepik--Character--inject-2">
	<polygon class="st2" points="56.5,435.4 177,435.4 153,295.6 62.9,295.6 	"/>
	<polygon class="st3" points="56.5,435.4 67.1,435.4 73,295.6 62.9,295.6 	"/>
	<path class="st4" d="M108.8,275.5c-5.2,20.7-15,44.6-10.2,66.2c3.8,16.9,16.2,30.3,30,40.1c30.2,21.5,76.3,33,106.4,4.8
		c12-11.3,19.2-38.4,5.9-51.6c-6.9-6.8-16-9.9-24.5-14.2c-11.2-5.6-18.3-14-21.5-26.1c-6.3-23.6-0.9-38.9,1.8-62.4
		c0.5-4.4,0.4-8.8-3.1-13.3c-3-4.5-7.2-8.1-12.2-10.5c-4-2.8-8.7-4.6-13.6-5.2c-10.5-1-22.3,6.4-31.4,10.7s-14.2,9.8-16.9,19.7
		C115.7,247.7,112.3,261.6,108.8,275.5z"/>
	<path class="st4" d="M104.2,284.9c6-18.7,12.4-37.2,18.7-55.7c0-0.1,0.2-0.1,0.2,0c-4.7,15.4-9.2,30.9-14.1,46.3
		c-4.8,15.1-10.8,30.2-14.3,45.6c-7.8,34.6,25,56.1,55,60.5c1.4,0.2,0.9,2.4-0.5,2.1c-26.2-4.7-55.4-19.9-57.4-49.8
		C90.6,317.5,99.3,300.1,104.2,284.9z"/>
	<path class="st4" d="M195.3,230.3c0-0.2,0.2-0.3,0.4-0.2s0.3,0.2,0.2,0.4c-3.1,19.3-8.4,41.5-1,60.4c3.7,9.3,10.1,17.3,18.4,22.9
		c6.6,4.4,14.1,6.2,21.4,9.2c28.2,11.8,20.3,51.5-4.2,62.6c-0.5,0.2-0.9-0.6-0.4-0.9c17.5-8.9,27-29.6,18-48.1
		c-7.2-14.8-26.9-14.6-38.9-24.3C184.3,292.1,189,257.9,195.3,230.3z"/>
	<path class="st5" d="M158.7,312.9c4.9,30.4,29.8,104.8,49.5,113.4c17.4,7.6,65.2,9.8,82.7,5.8c8-1.9,5-58.3-7.3-59.1
		c-15.4-1-37.2,0.6-50.9-2.4c-4.9-1.1-23.3-24-56.3-62.2C164.1,294.3,156,295.8,158.7,312.9z"/>
	<path class="st5" d="M267.5,429.4c1,0.5,15,7.6,23.7,10.1c6.5,1.9,25.3,6.8,28-0.1c1.9-4.7-8.8-8.9-16.3-12c-4-1.6-8.8-5.8-7.7-8.3
		c2-4.4,12.2,0,18.9,3.9c12.9,7.5,30.2,21,38.1,14.5c3-2.5-0.5-7-5.6-11.4c8.2,5.2,17,9.4,20.4,6.8c2-1.5,2.1-3.5,1-5.9
		c2.5,0.8,4.8,0.7,6.4-1c2.7-2.8,1.4-6.9-1.5-11.2c1-0.1,1.9-0.7,2.4-1.6c5.7-8.6-22.7-33.5-32.5-35.8c-28.9-6.9-59.6-4.4-59.6-4.4
		C271.9,382,267.5,429.4,267.5,429.4z"/>
	<path class="st4" d="M310,402.8c6.9,1.1,13.4,3.6,19.3,7.4c7.3,4.8,12.2,10.5,18.3,16.2c0.1,0.1,0.1,0.2,0,0.2
		c-0.1,0.1-0.2,0.1-0.2,0c-2.9-2.7-15-12.9-18.2-15.2c-5.7-4.3-12.2-7.2-19.2-8.5C309.9,402.9,309.9,402.8,310,402.8z"/>
	<path class="st4" d="M315.4,390.5c7.6,2.1,15.4,4.2,22.4,7.8c7.7,3.9,13.7,10.3,19.7,16.5c3.6,3.7,7,7.5,10.4,11.3
		c0.1,0.2-0.1,0.4-0.2,0.3c-6-6.4-12.2-12.6-18.6-18.5c-5.9-5.6-12.8-10-20.4-12.8c-4.3-1.7-8.8-3-13.3-4.3
		C315.3,390.7,315.3,390.5,315.4,390.5z"/>
	<path class="st4" d="M323.5,379.8c7.4,1.5,13.8,2.8,20.3,6.8c8.6,5.2,17,14,19.9,17.2c3.2,3.5,6.4,7,9.4,10.6
		c0.1,0.1-0.1,0.4-0.3,0.2c-7-7.9-14.5-15.3-22.5-22.3c-3.7-3.4-8-6.1-12.6-8.2C333.1,382.3,328.3,380.9,323.5,379.8
		C323.4,379.9,323.4,379.8,323.5,379.8z"/>
	<path class="st6" d="M215.9,346.6l-49.6,5.3c0,0-8.6-23.6-11.4-37.3c-3.8-18.2,2-23.8,20.2-10.2
		C187.2,313.5,215.9,346.6,215.9,346.6z"/>
	<path class="st4" d="M172.3,351.2c-0.5,0-5.7,0.3-6,0.5c-0.9-2.8-1.8-5.6-2.8-8.4c-0.5-1.4-1-2.8-1.5-4.2s-1.2-3.3-1.7-4.6
		c0-0.1-0.1-0.2-0.2-0.1s-0.2,0.1-0.1,0.2c0,0,0,0,0,0.1c0.5,1.8,0.9,3.1,1.4,4.7c0.4,1.4,0.8,2.8,1.3,4.2c1,2.9,1.9,6.1,3,9
		c0.1,0.2,6.2-0.9,6.8-1C172.4,351.4,172.4,351.2,172.3,351.2z"/>
	<path class="st4" d="M210.4,342.4c-7.3,0.3-14.5,0.6-21.8,1.4c-3.6,0.3-7.2,0.7-10.8,1.2c-3.6,0.5-7.2,1.3-10.8,1.7
		c-0.1,0-0.1,0.1-0.1,0.2c0,0.1,0.1,0.1,0.1,0.1c3.6-0.6,7.3-0.7,10.9-1.1s7.2-0.8,10.8-1.1c7.2-0.7,14.4-1.5,21.7-2
		C210.6,342.7,210.6,342.4,210.4,342.4z"/>
	<path class="st6" d="M192,435.7l-123-0.3c0,0,25.1-103.9,52.3-132.9c12.4-13.2,24.4-11.2,34.7-2.7c2.6,2.1,34.2,42.3,36.9,56.3
		c2.4,12.4-7.7,26.1-7.7,26.1L192,435.7z"/>
	<path class="st4" d="M172.5,321c4,6.3,8.3,12.4,12.3,18.7c2.1,3.1,3.9,6.3,5.6,9.6c1.7,3.3,2.6,6.9,2.7,10.7
		c0.2-1.9,0.1-3.8-0.2-5.6c-0.4-1.9-0.9-3.7-1.7-5.4c-1.5-3.4-3.4-6.7-5.4-9.9c-1.9-2.9-3.9-5.7-5.9-8.5c-0.3-1-0.7-1.9-1.1-2.9
		c-0.6-1.4-1.3-2.8-2.1-4.1c0.4,1.5,0.9,2.9,1.5,4.3c0.2,0.4,0.4,0.8,0.5,1.2C176.8,326.4,174.7,323.7,172.5,321z"/>
	<path class="st7" d="M116.3,351.8c-0.1,3.9-0.4,7.9-0.9,11.8c-0.5,3.1-1.4,6.5-3.7,8.7s-5.9,2.2-9,1.7c-4.9-1-9.7-2.5-14.4-4.4
		l-1.6-0.6l-0.1,0.3l1.6,0.6c4.7,1.9,9.5,3.4,14.4,4.5c1.6,0.3,3.3,0.4,4.9,0.2c1.7-0.2,3.3-0.9,4.5-2c2.4-2.4,3.3-5.8,3.8-8.9
		c0.6-3.8,0.8-7.6,0.9-11.4C116.6,352.1,116.5,351.9,116.3,351.8z M153.7,320.8c-4.3-1-8.7-1.6-13.1-1.8c-3.3-0.2-6.6,0.2-9.7,1.2
		c-3.1,1.1-5.9,3.1-8,5.6c-2.1,2.6-3.6,5.5-4.4,8.7c-0.9,3.1-1.5,6.4-1.7,9.6c-0.2,2.4-0.4,4.7-0.5,7c0.2,0.2,0.3,0.3,0.5,0.5
		c0.1-2.5,0.2-5,0.5-7.5c0.3-3.2,0.8-6.4,1.7-9.5c0.8-3.1,2.3-6,4.3-8.5c2-2.5,4.7-4.4,7.7-5.5c3.1-1,6.3-1.4,9.5-1.2
		c4.5,0.2,8.9,0.8,13.3,1.8C153.8,321.1,153.8,321,153.7,320.8L153.7,320.8z M175.4,325.1l-0.1-0.2l0,0c-5.2-0.6-10.3-1.7-15.4-2.8
		c-1.9-0.4-3.8-0.8-5.7-1.2c0.1,0.2,0.1,0.3,0.2,0.5l5.5,1.2c5.2,1.1,10.5,2.2,15.8,2.8L175.4,325.1z M188.9,435.6
		c-2.1-3.6-4.5-7.1-7.3-10.3c-1.1-1.2-2.3-2.3-3.7-3.2c-1.4-0.9-3.1-1.3-4.8-1.2c-3.4,0.4-6.1,2.5-8.5,4.6c-3.3,3.1-6.3,6.6-9.3,10
		h0.6c2.9-3.3,5.7-6.7,8.9-9.7c2.4-2.1,5.1-4.2,8.3-4.5s6,2,8.1,4.3c2.7,3.1,5.1,6.5,7.1,10l0.2,0.3l0.4,0
		C189,435.8,189,435.7,188.9,435.6L188.9,435.6z M104.6,430.5c-4-5.1-8.4-10-13.1-14.4c-4.3-3.9-9.4-7.2-15.1-8.4l-0.1,0.3
		c5.7,1.2,10.7,4.5,14.9,8.4c4.8,4.3,8.9,9.4,13.1,14.4c1.3,1.5,2.6,3.1,3.9,4.7h0.6C107.3,433.8,106,432.1,104.6,430.5L104.6,430.5
		z M114.8,349.7c-4.3-4.1-9.6-7.7-15.5-8.9l-0.7-0.1c0,0.1-0.1,0.2-0.1,0.3c0.2,0,0.4,0.1,0.6,0.1c5.9,1.2,11,4.7,15.4,8.8
		c0.6,0.6,1.2,1.2,1.8,1.8c0-0.2,0-0.4,0-0.6C115.8,350.7,115.3,350.2,114.8,349.7L114.8,349.7z M192.9,357.2L192.9,357.2
		c-1.9,0.9-3.7,2.1-5.2,3.6c-4.9,4.4-8.9,9.5-13.6,14c-2.3,2.3-4.7,4.4-7.4,6.2c-2.6,1.8-5.6,3.1-8.8,3.8c-3.2,0.6-6.4,0.4-9.4-0.7
		c-3-1.2-5.7-3-8.1-5.1c-0.9-0.8-1.8-1.7-2.7-2.6c-0.1-0.1-0.3-0.3-0.4-0.4c-3.5-3.6-6.6-7.6-9.8-11.6c-3.4-4.3-6.9-8.7-10.8-12.7
		c0,0.2,0,0.4,0,0.6c3.7,4,7.2,8.1,10.4,12.4c3.1,3.9,6.1,7.8,9.5,11.4c0.1,0.1,0.3,0.3,0.4,0.4c0.9,1,1.9,1.9,2.9,2.8
		c2.4,2.2,5.2,4,8.2,5.3c3.1,1.1,6.5,1.4,9.7,0.8c3.2-0.7,6.3-2,9-3.9c2.7-1.9,5.2-4,7.5-6.3c4.6-4.6,8.6-9.7,13.5-14.1
		c1.5-1.4,3.2-2.5,5-3.4l0,0C193,357.6,193,357.4,192.9,357.2L192.9,357.2z M152,311.9c-1-4.9-1-10,0.1-14.9l-0.3-0.2
		c-1.2,5-1.2,10.2-0.2,15.2c0.6,3,1.3,5.9,2.1,8.9l0.4,0.1C153.3,318,152.6,314.9,152,311.9z M162.6,349.4c-1-6.5-3.2-12.6-5.3-18.8
		c-1-3.1-2.1-6.1-3-9.2c-0.2,0-0.3,0-0.5-0.1c0.9,3.2,2,6.3,3,9.5c2,6.1,4.2,12.3,5.2,18.7c0.6,3.2,0.6,6.4,0,9.6
		c-0.7,3.1-2.3,6-4.6,8.3c-2.3,2.3-5,4.1-8,5.3c-3,1.2-6.1,2.2-9.3,2.8c-0.9,0.2-1.9,0.4-2.8,0.6c-0.2,0-0.4,0.1-0.6,0.1
		c-5.2,0.9-10.6,1.6-15.7,3c-3.1,0.9-6.4,2.1-8.4,4.8c-1,1.3-1.5,3-1.5,4.7c0,1.6,0.3,3.3,0.8,4.9c1.9,6.3,5.1,12,8.1,17.8
		s6,11.6,8,17.7c0.7,2.2,1.2,4.4,1.5,6.6h0.3c-0.3-2.3-0.8-4.5-1.5-6.7c-2-6.2-5-12-7.9-17.8s-6.2-11.5-8-17.7
		c-0.9-3-1.3-6.6,0.7-9.2s5.2-3.8,8.2-4.6c5.2-1.4,10.7-2,16-3c0.2,0,0.4-0.1,0.6-0.1c0.8-0.1,1.7-0.3,2.6-0.5
		c3.2-0.6,6.3-1.6,9.4-2.8c3.1-1.2,5.9-3,8.2-5.4c2.3-2.4,3.9-5.3,4.7-8.6C163.1,355.9,163.1,352.6,162.6,349.4L162.6,349.4z"/>
	<path class="st4" d="M149.7,379.3c5.1,0.2,10.2,0.7,15.3,1.6c2.5,0.5,5,1.1,7.4,1.7c1.2,0.3,2.5,0.6,3.7,0.9
		c1.3,0.3,2.6,0.5,3.9,0.5c0.1,0,0.1,0.1,0.1,0.1c0,0,0,0.1-0.1,0.1c-2.5,0.3-4.9,0.2-7.4-0.3c-2.5-0.5-5-1.1-7.6-1.5
		c-5.1-1-10.2-2-15.4-2.6C149.4,379.7,149.5,379.3,149.7,379.3z"/>
	<path class="st4" d="M137.4,384.6c4.2-0.7,8.4-1.1,12.6-1.4c2.1-0.1,4.2-0.1,6.3,0c1,0,2,0.1,3,0.2s2.2,0.3,3.3,0.4
		c0.1,0,0.1,0.2,0,0.2c-1,0-2.1,0.1-3.1,0.2l-3.1,0.1c-2.1,0.1-4.2,0.2-6.3,0.2c-4.2,0.1-8.4,0.3-12.6,0.5
		C137.2,385,137.2,384.6,137.4,384.6z"/>
	<path class="st5" d="M138.5,296.4c-0.1,2.4,6.2,20,16.5,22.5c3.4,0.8,8.6-17.3,8.6-17.3l0.7-1.3l9.7-17.5l-17.8-20.6l-2.6-2.8
		c0,0-2.4,5-5.2,11.2c-0.1,0.3-0.3,0.6-0.4,0.9s-0.3,0.7-0.5,1c-0.4,0.9-0.9,1.9-1.3,2.8c-0.3,0.7-0.6,1.4-1,2.2s-0.6,1.5-1,2.3
		C141.1,287.3,138.5,295.4,138.5,296.4z"/>
	<path class="st4" d="M148.4,270.6c0.7,11.8,6.5,22.7,15.9,29.8l9.7-17.5l-17.8-20.6l-2.6-2.8C153.6,259.4,151.2,264.4,148.4,270.6z
		"/>
	<path class="st5" d="M206.9,256.4c-1.1,35.1-22.3,38.4-29.9,38.1c-6.9-0.2-30.3-1.9-32.8-36.9s14.2-45.6,29.9-45.9
		S208.1,221.3,206.9,256.4z"/>
	<path class="st4" d="M202.2,250.2c-0.8-0.2-1.6-0.4-2.3-0.6c-0.9-0.1-1.7-0.5-2.3-1.1c-0.3-0.5-0.3-1.1,0.1-1.5
		c0.9-0.7,2-0.9,3.1-0.6c1.1,0.2,2.1,0.8,2.8,1.8c0.4,0.6,0.2,1.5-0.4,1.9C202.8,250.1,202.5,250.2,202.2,250.2z"/>
	<path class="st4" d="M178.1,248.8c0.8-0.1,1.6-0.2,2.4-0.4c0.9,0,1.7-0.3,2.4-0.8c0.4-0.4,0.4-1.1,0.1-1.6c-0.8-0.8-1.9-1.2-3-0.9
		c-1.2,0.1-2.2,0.6-3,1.5c-0.5,0.6-0.4,1.4,0.2,1.9C177.4,248.7,177.8,248.8,178.1,248.8z"/>
	<path class="st4" d="M183.2,257.7c0-0.1-0.2,0.1-0.2,0.2c0,2.4-0.4,5.1-2.6,5.9c-0.1,0-0.1,0.1,0,0.1
		C183.1,263.6,183.6,260,183.2,257.7z"/>
	<path class="st4" d="M181.2,255.1c-3.8-0.4-4.4,7.3-0.8,7.7S184.4,255.5,181.2,255.1z"/>
	<path class="st4" d="M179.6,255.4c-0.7,0.4-1.4,1.1-2.2,1.1s-1.6-0.8-2.1-1.6c-0.1-0.1-0.1,0-0.1,0.1c-0.1,1.5,0.3,3,1.9,3.4
		s2.6-0.9,3-2.4C180.1,255.7,179.9,255.3,179.6,255.4z"/>
	<path class="st4" d="M196.5,258.1c0-0.1,0.2,0.1,0.2,0.2c-0.3,2.4-0.2,5.1,1.9,6.1c0.1,0,0,0.1,0,0.1
		C196,264,195.9,260.3,196.5,258.1z"/>
	<path class="st4" d="M198.8,255.8c3.9,0,3.6,7.7,0,7.7S195.6,255.8,198.8,255.8z"/>
	<path class="st4" d="M200.4,256.4c0.6,0.4,1.2,1.2,1.9,1.3s1.5-0.7,2.1-1.5c0.1-0.1,0.1,0,0.1,0.1c0,1.5-0.6,3-2,3.2
		s-2.2-1.1-2.5-2.6C200,256.6,200.2,256.2,200.4,256.4z"/>
	<path class="st4" d="M181.6,277.3c0.5,0.6,1,1.5,1.8,1.6c0.9,0.1,1.8,0,2.6-0.3c0,0,0.1,0,0.1,0.1c0,0,0,0,0,0.1
		c-0.8,0.9-2,1.2-3.2,0.9c-1-0.4-1.6-1.3-1.6-2.3C181.3,277.2,181.5,277.2,181.6,277.3z"/>
	<path class="st4" d="M191,273.9c-1,1.3-2.4,2.4-3.9,3c-0.8,0.3-1.8,0.4-2.7,0.2c-1.9-0.5-2-2.3-1.6-3.8c0.2-0.8,0.5-1.6,0.9-2.3
		C185.7,272.7,188.3,273.7,191,273.9z"/>
	<path class="st8" d="M187.1,277c-0.8,0.3-1.8,0.4-2.7,0.2c-1.9-0.5-2-2.3-1.6-3.8C184.9,273.5,187,274.9,187.1,277z"/>
	<path class="st4" d="M192.1,269.2c0,0,0.3,3.6,0.2,5.3c0,0.2-0.4,0.2-1,0.2c0,0,0,0-0.1,0c-3,0.4-5.9-1-7.6-3.4
		c-0.1-0.2,0.1-0.3,0.3-0.2c2.1,1.6,4.6,2.5,7.2,2.5c0.1-0.5-0.7-6.1-0.4-6.1c1.3,0.2,2.6,0.6,3.8,1.1c-0.4-7.5-1.9-14.9-2.2-22.4
		c0-0.1,0.1-0.2,0.2-0.2c0.1,0,0.2,0.1,0.2,0.1c2.2,7.6,2.8,16.2,3.4,24C196.1,271,192.7,269.5,192.1,269.2z"/>
	<path class="st4" d="M146.8,260.4c3.8-0.2,13.7-10.8,14-29.2c0,0-1.4,16.6-2.6,19s5.5-5.9,5.9-20.8c0,0,8.3,5.9,15.3,7.9
		s11.3,1.9,11.8,1.4s-9.9-3.7-12.7-6.9c0,0,18.7,8.6,27.3,9.2c1,0.1,2.1-20.4-11.2-29.1s-34.4,0.8-40.1,6.3c0,0-6.7,1-13.9,10.9
		S142.7,260.7,146.8,260.4z"/>
	<path class="st9" d="M175.9,269c-6-1-10-6.7-9-12.7c1-6,6.7-10,12.7-9c4.9,0.8,8.7,4.9,9.1,9.9l0,0c0.5,6.1-4,11.4-10,11.9
		c0,0,0,0,0,0C177.7,269.2,176.8,269.1,175.9,269z M179.3,248.7c-0.8-0.1-1.6-0.2-2.4-0.1c-5.3,0.4-9.2,5.1-8.7,10.3
		c0.4,5.3,5.1,9.2,10.3,8.7s9.2-5.1,8.7-10.3C186.8,253,183.6,249.4,179.3,248.7z"/>
	<path class="st9" d="M201.1,270.1c-4.2-0.7-7.2-5.6-6.9-11.3c0.1-2.7,1-5.4,2.7-7.6c2.1-3.1,6.4-4,9.5-1.9c0.9,0.6,1.7,1.5,2.2,2.4
		c1.4,2.3,2.1,5.1,1.9,7.8c-0.3,6.1-4.2,10.8-8.7,10.6C201.6,270.2,201.4,270.1,201.1,270.1z M203.4,249.7c-0.2,0-0.4-0.1-0.6-0.1
		c-1.9,0-3.7,0.9-4.8,2.5c-1.5,1.9-2.3,4.3-2.4,6.7c-0.3,5.3,2.5,9.7,6.3,9.9s6.9-4,7.2-9.2c0.2-2.4-0.4-4.9-1.7-6.9
		C206.6,251.1,205.1,250,203.4,249.7L203.4,249.7z"/>
	<path class="st9" d="M188.2,258.5l-0.9-1.2c1.7-1.3,5.7-3,8.2,0l-1.1,1C192.2,255.5,188.4,258.3,188.2,258.5z"/>
	<path class="st9" d="M139,258.9l-1.3-0.7c0.3-0.6,3.5-5.8,6.8-6.2c3.1-0.3,22.7,2.5,23.6,2.6l-0.2,1.4c-5.6-0.8-20.8-2.9-23.2-2.6
		C142.5,253.7,139.9,257.5,139,258.9z"/>
	<path class="st5" d="M143.8,270.5c0.5,0.3,1,0.5,1.6,0.6c0.5,0.2,1.1,0.2,1.6,0.2c0.7,0,1.4-0.1,2.1-0.4c0.5-0.2,1-0.5,1.4-0.9
		c0.6-0.5,1.1-1.1,1.6-1.8l-0.8-9.5c0,0-6.3-11.8-11.6-9.7S138.3,267.7,143.8,270.5z"/>
	<path class="st4" d="M140.9,253.8C140.9,253.8,140.9,253.8,140.9,253.8c-0.1,0.1-0.1,0.1-0.1,0.1c3.9,2.1,5.6,6.2,6.6,10.3
		c-1-1.6-2.6-2.7-4.8-1.5c-0.1,0.1,0,0.2,0.1,0.2c1.5-0.3,3.1,0.4,3.8,1.7c0.6,1.1,1.1,2.3,1.5,3.5c0.1,0.4,0.8,0.3,0.7-0.2v-0.1
		C149.6,262.7,146.4,255,140.9,253.8z"/>
	<path class="st7" d="M144.5,269.1c0.1,0.9,0.9,1.6,1.8,1.5s1.6-0.9,1.5-1.8c-0.1-0.9-0.9-1.6-1.8-1.5c0,0,0,0,0,0
		C145.1,267.5,144.4,268.2,144.5,269.1z"/>
	<path class="st7" d="M141.5,266.3c0.1,0.6,0.6,1.1,1.2,1.1s1.1-0.6,1.1-1.2c-0.1-0.6-0.6-1.1-1.2-1.1
		C141.9,265.1,141.4,265.7,141.5,266.3C141.5,266.3,141.5,266.3,141.5,266.3z"/>
	<path class="st5" d="M115.2,308.7c-23.9,37.1-55.4,99.1-38.3,111c28.2,19.6,106.4,25.8,124.3,26.5c7.7,0.3,19-50.9,13.4-57
		s-87.7-4-88.7-9c-0.6-2.8,4.1-27.7,9.7-58.7C142,285.9,122,298.1,115.2,308.7z"/>
	<path class="st5" d="M200.9,386.3c0,0,23.4-2.1,38.8-2.7c8.6-0.4,23.3,0.4,29.8,3c9.6,3.9,47.3,26.5,42,35.7
		c-4.8,8.4-34.7-15.1-34.7-15.1s32.3,21,24.7,30.1s-37.9-22-37.9-22s32.7,22.4,23.4,30.4c-7,6.1-36-20.5-36-20.5s28,19.4,21,26
		c-7.7,7.3-36-15.6-36-15.6c-20.5,13.8-35.9,11.9-46.7,9.3C186.6,444.3,200.9,386.3,200.9,386.3z"/>
	<path class="st4" d="M266.1,399.2c3.9,2.3,7.8,4.7,11.5,7.3s7.2,5.5,10.6,8.5c8.3,7.4,12.4,13.3,12.1,12.9
		c-6.9-8-19.8-17.7-23.5-20.4s-7.2-5.5-10.8-8.2C265.9,399.2,266,399.1,266.1,399.2z"/>
	<path class="st4" d="M256.2,412.2c4.8,3.2,9.7,6.2,14.4,9.6s8.8,7,13.2,10.7c0.3,0.3,0.1,0.4-0.3,0.1c-4.6-3.5-9-6.4-13.6-9.9
		s-9.1-7.1-13.8-10.4C256.1,412.3,256.1,412.2,256.2,412.2z"/>
	<path class="st4" d="M245.7,421.9c7.6,4.5,14.4,10.4,20.9,16.4c0.3,0.3,0,0.4-0.4,0.1c-6.9-5.6-12.2-10-20.7-16.2
		C245.4,422,245.6,421.8,245.7,421.9z"/>
	<path class="st6" d="M84.6,355.8l49.7-4.3c0,0,3.9-24.8,4.1-38.8c0.3-18.5-6.5-23-21.8-6.1C106.5,317.9,84.6,355.8,84.6,355.8z"/>
	<path class="st4" d="M128.3,352.1c0.5-0.1,5.6-0.8,6-0.7c0.4-2.9,0.7-5.9,1.1-8.8c0.2-1.5,0.4-2.9,0.7-4.4s0.5-3.4,0.8-4.9
		c0-0.2,0.3-0.2,0.3,0c-0.1,1.9-0.3,3.3-0.4,4.9c-0.1,1.4-0.3,2.9-0.4,4.3c-0.4,3-0.7,6.3-1.2,9.3c0,0.2-6.3,0.3-6.8,0.3
		C128.2,352.3,128.2,352.1,128.3,352.1z"/>
	<path class="st4" d="M89.2,350.7c7.2-1.1,14.4-2.1,21.6-2.8c3.6-0.4,7.2-0.6,10.9-0.9s7.3-0.1,10.9-0.4c0.1,0,0.1,0.1,0.1,0.2
		c0,0.1-0.1,0.1-0.1,0.1c-3.6,0.1-7.3,0.7-10.9,1s-7.2,0.6-10.9,1c-7.2,0.7-14.5,1.3-21.7,2.2C89,351,89,350.7,89.2,350.7z"/>
	<path class="st4" d="M311.5,422.3c0.5-1.2,0.5-2.6-0.2-3.8c-0.5-1.2-1.2-2.3-2-3.3c-1.6-2-3.4-4-5.4-5.7c-3.9-3.5-8.1-6.7-12.4-9.7
		c-4.3-3-8.7-5.9-13.2-8.6c-2.2-1.4-4.6-2.5-7-3.5c-1.2-0.5-2.4-0.8-3.7-1.2c-1.2-0.4-2.5-0.7-3.8-0.9c-2.6-0.4-5.2-0.7-7.8-0.8
		c-2.6-0.2-5.2-0.3-7.9-0.3c-5.3-0.1-10.5,0-15.8,0.2s-10.5,0.5-15.8,0.8s-10.5,0.8-15.8,1.1l0,0c-5.1-0.5-10.3-0.9-15.4-1.4
		c5.1,0.2,10.3,0.5,15.5,0.8h-0.1c5.2-0.6,10.5-1.1,15.7-1.6s10.5-0.8,15.8-1s10.6-0.4,15.8-0.3c5.3-0.1,10.6,0.3,15.9,1.1
		c1.3,0.2,2.6,0.6,3.9,1c1.3,0.4,2.5,0.8,3.8,1.3c2.5,1,4.9,2.2,7.1,3.6c4.5,2.7,8.9,5.8,13.1,8.9c4.3,3.1,8.4,6.4,12.2,10.1
		c1.9,1.8,3.7,3.9,5.2,6c0.8,1.1,1.4,2.2,1.9,3.5C312.1,419.7,312.1,421.1,311.5,422.3z"/>
</g>
<g id="freepik--Device--inject-2">
	<rect x="183.1" y="447.8" class="st10" width="122.6" height="5.5"/>
	<rect x="244" y="447.8" class="st9" width="61.7" height="5.5"/>
	<polygon class="st9" points="247.7,453.3 367.2,453.3 382.8,372.1 263.4,372.1 	"/>
	<polygon class="st10" points="252.6,453.3 372.1,453.3 387.7,372.1 268.2,372.1 	"/>
	<path class="st7" d="M312.9,412.7c-0.4,3.6,2.2,6.9,5.8,7.3c0.3,0,0.6,0,0.9,0c4.1-0.1,7.5-3.2,7.9-7.3c0.4-3.6-2.2-6.8-5.8-7.2
		c-0.3,0-0.5,0-0.8,0C316.7,405.5,313.3,408.6,312.9,412.7z"/>
</g>
<linearGradient id="SVGID_3_" gradientUnits="userSpaceOnUse" x1="68.275" y1="135.805" x2="164.305" y2="135.805">
	<stop  offset="0" style="stop-color:#645FCE;stop-opacity:0.2"/>
	<stop  offset="1" style="stop-color:#645FCE;stop-opacity:0.3"/>
</linearGradient>
<circle class="st11" cx="116.3" cy="135.8" r="48"/>
<circle class="st7" cx="340.5" cy="176.5" r="74.5"/>
<path class="st7" d="M280.8,262.7l40.3-23.7c2.1-1.2,2.5-4.1,0.7-5.8l-16.5-16.5c-1.7-1.7-4.6-1.4-5.8,0.7l-23.7,40.3
	C273.8,260.9,277.5,264.7,280.8,262.7z"/>
<g>
	<path class="st12" d="M332.1,207.9l1.3-1.3c0.8-0.8,0.8-2,0-2.8l-24.5-24.5c-0.8-0.8-2-0.8-2.8,0l-1.3,1.3c-0.8,0.8-0.8,2,0,2.8
		l24.5,24.5C330.1,208.7,331.3,208.7,332.1,207.9z"/>
	<path class="st12" d="M328,206.6l1.3,1.3c0.8,0.8,2,0.8,2.8,0l44.1-44.1c0.8-0.8,0.8-2,0-2.8l-1.3-1.3c-0.8-0.8-2-0.8-2.8,0
		L328,203.8C327.2,204.6,327.2,205.8,328,206.6z"/>
</g>
</svg>
