<?xml version="1.0" encoding="utf-8"?>
<!-- Generator: Adobe Illustrator 24.0.1, SVG Export Plug-In . SVG Version: 6.00 Build 0)  -->
<svg version="1.1" xmlns="http://www.w3.org/2000/svg" xmlns:xlink="http://www.w3.org/1999/xlink" x="0px" y="0px"
	 viewBox="0 0 500 500" style="enable-background:new 0 0 500 500;" xml:space="preserve">
<style type="text/css">
	.st0{fill:url(#SVGID_1_);}
	.st1{fill:url(#SVGID_2_);}
	.st2{fill:url(#SVGID_3_);}
	.st3{fill:#EBEBEB;}
	.st4{fill:#263238;}
	.st5{fill:#FFFFFF;}
	.st6{fill:#645FCE;}
	.st7{display:none;fill:#FFFFFF;}
	.st8{fill:#6A6A6A;}
	.st9{display:none;fill:#455A64;}
	.st10{display:none;fill:#DBDBDB;}
	.st11{display:none;fill:#263238;}
	.st12{fill:#A6A6A6;}
	.st13{fill:#C7C7C7;}
	.st14{display:none;fill:#6A6A6A;}
	.st15{fill:none;}
	.st16{fill:#F7A9A0;}
	.st17{fill:#DBDBDB;}
	.st18{opacity:0.2;enable-background:new    ;}
	.st19{fill:#37474F;}
	.st20{fill:#455A64;}
	.st21{opacity:0.2;}
	.st22{fill:#FF99BA;}
	.st23{font-family:'Jost-Medium';}
	.st24{font-size:9px;}
	.st25{font-family:'Jost-Heavy';}
	.st26{font-size:12px;}
</style>
<g id="Camada_3">
	<linearGradient id="SVGID_1_" gradientUnits="userSpaceOnUse" x1="113.9794" y1="377.4106" x2="371.8806" y2="119.5094">
		<stop  offset="0" style="stop-color:#645FCE;stop-opacity:0.5"/>
		<stop  offset="1" style="stop-color:#330080;stop-opacity:0.5"/>
	</linearGradient>
	<circle class="st0" cx="242.9" cy="248.5" r="182.4"/>
	<linearGradient id="SVGID_2_" gradientUnits="userSpaceOnUse" x1="65.57" y1="124.7909" x2="172.11" y2="124.7909">
		<stop  offset="0" style="stop-color:#645FCE;stop-opacity:0.2"/>
		<stop  offset="1" style="stop-color:#645FCE;stop-opacity:0.3"/>
	</linearGradient>
	<circle class="st1" cx="118.8" cy="124.8" r="53.3"/>
	<linearGradient id="SVGID_3_" gradientUnits="userSpaceOnUse" x1="260.6488" y1="263.4147" x2="463.4142" y2="263.4147">
		<stop  offset="0" style="stop-color:#645FCE;stop-opacity:0.2"/>
		<stop  offset="1" style="stop-color:#645FCE;stop-opacity:0.3"/>
	</linearGradient>
	<circle class="st2" cx="362" cy="263.4" r="101.4"/>
</g>
<g id="Camada_1">
	<g id="freepik--Shadow--inject-2">
		<path class="st3" d="M448.3,449c0,11.3-88.8,20.4-198.3,20.4S51.7,460.3,51.7,449s88.8-20.4,198.3-20.4S448.3,437.8,448.3,449z"/>
	</g>
	<g id="freepik--Device--inject-2">
		<path class="st4" d="M334.5,52.7H165.5c-9.5,0.1-17.2,7.9-17.1,17.4c0,0,0,0,0,0v348c-0.1,9.5,7.6,17.3,17.1,17.4h169.1
			c9.5-0.1,17.2-7.9,17.1-17.4v-348C351.7,60.6,344.1,52.8,334.5,52.7z M340.9,407.4c0,9.2-6.9,16.6-15.3,16.6H174.4
			c-8.5,0-15.3-7.4-15.3-16.6V83.3c0-18.7,6.9-19.6,15.3-19.6h30.3c1.8,0,3.2,2,3.2,4.5v1.1c0,5.8,3.2,5.8,7.1,5.8h70
			c3.9,0,7.1,0,7.1-5.8v-1.1c0-2.5,1.4-4.5,3.2-4.5h30.3c8.5,0,15.3,2.5,15.3,19.6L340.9,407.4z"/>
		<path class="st5" d="M340.9,83.3v324.1c0,9.2-6.9,16.6-15.3,16.6H174.4c-8.5,0-15.3-7.4-15.3-16.6V83.3c0-18.7,6.9-19.6,15.3-19.6
			h30.3c1.8,0,3.2,2,3.2,4.5v1.1c0,5.8,3.2,5.8,7.1,5.8h70c3.9,0,7.1,0,7.1-5.8v-1.1c0-2.5,1.4-4.5,3.2-4.5h30.3
			C334.1,63.7,340.9,66.2,340.9,83.3z"/>
		<path class="st5" d="M340.9,83.3v324.1c0,9.2-6.9,16.6-15.3,16.6H174.4c-8.5,0-15.3-7.4-15.3-16.6V83.3c0-18.7,6.9-19.6,15.3-19.6
			h30.3c1.8,0,3.2,2,3.2,4.5v1.1c0,5.8,3.2,5.8,7.1,5.8h70c3.9,0,7.1,0,7.1-5.8v-1.1c0-2.5,1.4-4.5,3.2-4.5h30.3
			C334.1,63.7,340.9,66.2,340.9,83.3z"/>
		<path class="st6" d="M340.9,83.3v28.8H159V83.3c0-18.7,6.9-19.6,15.3-19.6h30.3c1.8,0,3.2,2,3.2,4.5v1.1c0,5.8,3.2,5.8,7.1,5.8
			H285c3.9,0,7.1,0,7.1-5.8v-1.1c0-2.5,1.4-4.5,3.2-4.5h30.3C334.1,63.7,340.9,66.2,340.9,83.3z"/>
		<g id="freepik--u5Zjqx--inject-2">
			<path class="st5" d="M199.4,71l-0.3,0.3c-0.1,0-0.1,0.1-0.2,0.2c-1.6-1.6-4.1-1.6-5.6,0l-0.2-0.2l-0.3-0.3l0,0l0,0l0.4-0.3
				c0.3-0.2,0.6-0.4,0.9-0.6c0.4-0.2,0.7-0.3,1.1-0.4c0.2,0,0.4,0,0.6-0.1s0.5,0,0.5,0h0.4c0.3,0,0.7,0.1,1,0.3
				c0.2,0.1,0.5,0.2,0.7,0.3c0.2,0.1,0.5,0.3,0.7,0.5L199.4,71L199.4,71z"/>
			<path class="st5" d="M194.3,72.4c-0.1-0.2-0.3-0.3-0.5-0.5c1.3-1.3,3.4-1.3,4.7,0c0,0,0,0,0,0l-0.5,0.5c-0.5-0.5-1.2-0.8-1.9-0.8
				C195.5,71.6,194.8,71.9,194.3,72.4z"/>
			<path class="st5" d="M197.6,72.8l-0.5,0.5c-0.5-0.5-1.4-0.5-1.9,0l-0.5-0.5C195.5,72.1,196.8,72,197.6,72.8
				C197.6,72.8,197.6,72.8,197.6,72.8z"/>
			<path class="st5" d="M196.6,73.7c0,0.2-0.2,0.4-0.4,0.4l0,0c-0.2,0-0.4-0.1-0.5-0.4c0-0.2,0.1-0.4,0.4-0.5c0,0,0.1,0,0.1,0
				C196.4,73.3,196.6,73.5,196.6,73.7C196.6,73.7,196.6,73.7,196.6,73.7z"/>
		</g>
		<path class="st5" d="M170.9,71.9c0-0.7,0.5-1.2,1.2-1.2c0.7,0,1.2,0.5,1.2,1.2c0,0.7-0.5,1.2-1.2,1.2S170.9,72.6,170.9,71.9
			C170.9,71.9,170.9,71.9,170.9,71.9z"/>
		<path class="st5" d="M174.7,71.9c0-0.7,0.5-1.2,1.2-1.2c0.7,0,1.2,0.5,1.2,1.2c0,0.7-0.5,1.2-1.2,1.2S174.7,72.6,174.7,71.9
			C174.7,71.9,174.7,71.9,174.7,71.9z"/>
		<path class="st5" d="M178.5,71.9c0-0.7,0.5-1.2,1.2-1.2c0.7,0,1.2,0.5,1.2,1.2c0,0.7-0.5,1.2-1.2,1.2c0,0,0,0,0,0
			C179,73.1,178.5,72.6,178.5,71.9C178.5,71.9,178.5,71.9,178.5,71.9z"/>
		<path class="st5" d="M182.3,71.9c0-0.7,0.5-1.2,1.2-1.2c0.7,0,1.2,0.5,1.2,1.2c0,0.7-0.5,1.2-1.2,1.2c0,0,0,0,0,0
			C182.8,73.1,182.3,72.6,182.3,71.9C182.3,71.9,182.3,71.9,182.3,71.9z"/>
		<path class="st5" d="M186.1,71.9c0-0.7,0.5-1.2,1.2-1.2c0.7,0,1.2,0.5,1.2,1.2c0,0.7-0.5,1.2-1.2,1.2S186.1,72.6,186.1,71.9
			C186.1,71.9,186.1,71.9,186.1,71.9z"/>
		<path class="st5" d="M327.3,74.5h-9.8V70h9.8V74.5z M318,74h8.8v-3.5H318V74z"/>
		<rect x="318.3" y="70.8" class="st5" width="6.3" height="3"/>
		<rect x="327.3" y="71" class="st5" width="0.9" height="2.4"/>
		<polygon class="st5" points="175.6,101.5 170.3,96.4 175.6,91.4 176.5,92.3 172,96.4 176.5,100.6 		"/>
		<polygon class="st5" points="324.4,91.4 329.8,96.4 324.4,101.5 323.5,100.6 328,96.4 323.5,92.3 		"/>
		<path class="st7" d="M223.5,96.2c0-1.8,1.5-3.2,3.3-3.2c0.8,0,1.5,0.2,2.1,0.7c0.2,0.2,0.2,0.5,0.1,0.7c-0.2,0.2-0.5,0.3-0.7,0.1
			c-0.4-0.3-0.9-0.5-1.4-0.5c-0.6,0-1.2,0.2-1.6,0.7c-0.4,0.4-0.7,1-0.7,1.6c0,0.6,0.2,1.2,0.7,1.6c0.4,0.4,1,0.6,1.6,0.6
			c0.5,0,1-0.2,1.4-0.5c0.2-0.2,0.5-0.1,0.7,0.1c0.2,0.2,0.1,0.5-0.1,0.7c-0.6,0.5-1.3,0.7-2.1,0.7C225,99.5,223.5,98,223.5,96.2z"
			/>
		<path class="st7" d="M233.8,98h-2.2l-0.4,1.2c-0.1,0.2-0.3,0.3-0.5,0.3c-0.1,0-0.1,0-0.2,0c-0.3-0.1-0.4-0.4-0.3-0.7l2-5.3
			c0.1-0.3,0.4-0.4,0.7-0.3c0.1,0.1,0.2,0.1,0.3,0.3l2,5.3c0.1,0.3,0,0.6-0.3,0.7c-0.1,0-0.1,0-0.2,0c-0.2,0-0.4-0.1-0.5-0.3
			L233.8,98z M233.4,97l-0.7-1.9l-0.7,1.9H233.4z"/>
		<path class="st7" d="M239.3,94.2h-1.4V99c0,0.3-0.2,0.5-0.5,0.5c0,0,0,0,0,0c-0.3,0-0.5-0.2-0.5-0.5v-4.8h-1.4
			c-0.3,0-0.5-0.2-0.5-0.5c0,0,0,0,0,0c0-0.3,0.2-0.5,0.5-0.5c0,0,0,0,0,0h3.9c0.3,0,0.5,0.2,0.5,0.5c0,0,0,0,0,0
			C239.8,94,239.6,94.2,239.3,94.2z"/>
		<path class="st7" d="M243.6,98h-2.2l-0.5,1.2c-0.1,0.2-0.3,0.3-0.5,0.3c-0.1,0-0.1,0-0.2,0c-0.3-0.1-0.4-0.4-0.3-0.6c0,0,0,0,0,0
			l2-5.3c0.1-0.3,0.4-0.4,0.6-0.4c0.2,0,0.3,0.2,0.4,0.4l2,5.3c0.1,0.3,0,0.5-0.3,0.6c0,0,0,0,0,0c-0.1,0-0.1,0-0.2,0
			c-0.2,0-0.4-0.1-0.5-0.3L243.6,98z M243.3,97l-0.7-1.9l-0.7,1.9H243.3z"/>
		<path class="st7" d="M246.2,99v-5.3c0-0.3,0.2-0.5,0.5-0.5s0.5,0.2,0.5,0.5v4.8h2.4c0.3,0,0.5,0.2,0.5,0.5c0,0.3-0.2,0.5-0.5,0.5
			h-2.9C246.5,99.5,246.3,99.3,246.2,99z"/>
		<path class="st7" d="M255.9,94c1.2,1.3,1.2,3.3,0,4.6c-0.5,0.6-1.3,1-2.1,1c-0.8,0-1.6-0.4-2.2-1c-1.2-1.3-1.2-3.3,0-4.6
			c0.6-0.6,1.4-1,2.2-1C254.6,93,255.4,93.4,255.9,94z M255.8,96.3c0-0.6-0.2-1.1-0.6-1.6c-0.4-0.4-0.9-0.6-1.4-0.6
			c-0.6,0-1.1,0.2-1.5,0.6c-0.4,0.4-0.6,1-0.6,1.6c0,0.6,0.2,1.1,0.6,1.6c0.4,0.4,0.9,0.6,1.5,0.6c0.5,0,1.1-0.2,1.4-0.6
			C255.6,97.4,255.8,96.8,255.8,96.3L255.8,96.3z"/>
		<path class="st7" d="M258.3,96.3c0-1.8,1.5-3.3,3.3-3.3c0,0,0,0,0,0c0.7,0,1.5,0.2,2.1,0.7c0.2,0.1,0.3,0.5,0.2,0.7
			c-0.1,0.2-0.5,0.3-0.7,0.2c0,0-0.1,0-0.1-0.1c-0.4-0.3-0.9-0.5-1.4-0.5c-0.6,0-1.2,0.2-1.6,0.7c-0.9,0.8-0.9,2.2-0.1,3
			c0,0,0.1,0.1,0.1,0.1c0.4,0.4,1,0.7,1.6,0.7c0.4,0,0.9-0.1,1.2-0.3v-1.2h-1.3c-0.3,0-0.5-0.2-0.5-0.5c0-0.3,0.2-0.5,0.5-0.5l0,0
			h1.8c0.3,0,0.5,0.2,0.5,0.5c0,0,0,0,0,0v2c0,0.1,0,0.1,0,0.2l0,0l0,0c0,0.1-0.1,0.2-0.2,0.2c-0.6,0.5-1.3,0.7-2,0.7
			C259.9,99.5,258.4,98.1,258.3,96.3C258.3,96.3,258.3,96.3,258.3,96.3z"/>
		<path class="st7" d="M268.5,99.5c-1.4,0-2.6-1.2-2.6-2.6c0,0,0,0,0,0v-3.2c0-0.3,0.2-0.5,0.5-0.5c0,0,0,0,0,0
			c0.3,0,0.5,0.2,0.5,0.5c0,0,0,0,0,0v3.2c0.1,0.9,0.8,1.5,1.7,1.5c0.8-0.1,1.4-0.7,1.5-1.5v-3.2c0-0.3,0.2-0.5,0.5-0.5
			s0.5,0.2,0.5,0.5v3.2C271.1,98.3,270,99.5,268.5,99.5L268.5,99.5z"/>
		<path class="st7" d="M272.8,99v-5.3c0-0.3,0.2-0.5,0.5-0.5c0,0,0,0,0,0h2.9c0.3,0,0.5,0.2,0.5,0.5c0,0.3-0.2,0.5-0.5,0.5h-2.4v1.6
			h2.1c0.3,0,0.5,0.2,0.5,0.5c0,0.3-0.2,0.5-0.5,0.5c0,0,0,0,0,0h-2.1v1.7h2.4c0.3,0,0.5,0.2,0.5,0.5c0,0.3-0.2,0.5-0.5,0.5h-2.9
			l0,0l0,0C273,99.5,272.8,99.3,272.8,99C272.8,99,272.8,99,272.8,99z"/>
		<path class="st5" d="M259.5,67.8h-19.1c-0.7,0-1.2-0.5-1.2-1.2l0,0c0-0.7,0.5-1.2,1.2-1.2h19.1c0.7,0,1.2,0.5,1.2,1.2l0,0
			C260.7,67.3,260.2,67.8,259.5,67.8z"/>
		<rect x="175.5" y="369.3" class="st8" width="67.5" height="54.6"/>
		<rect x="257.1" y="369.3" class="st3" width="67.5" height="54.6"/>
		<rect x="175.5" y="268.2" class="st3" width="67.5" height="67.5"/>
		<rect x="257.1" y="268.2" class="st8" width="67.5" height="67.5"/>
		<rect x="257.1" y="167.1" class="st3" width="67.5" height="67.5"/>
		<rect x="175.5" y="167.1" class="st8" width="67.5" height="67.5"/>
		<rect x="175.5" y="241.1" class="st8" width="67.5" height="7.4"/>
		<rect x="185.8" y="241.1" class="st9" width="7.4" height="7.4"/>
		<rect x="196.1" y="241.1" class="st10" width="7.4" height="7.4"/>
		<rect x="206.4" y="241.1" class="st11" width="7.4" height="7.4"/>
		<rect x="257.1" y="241.1" class="st8" width="67.5" height="7.4"/>
		<rect x="267.4" y="241.1" class="st9" width="7.4" height="7.4"/>
		<rect x="277.7" y="241.1" class="st10" width="7.4" height="7.4"/>
		<rect x="288" y="241.1" class="st11" width="7.4" height="7.4"/>
		<path class="st11" d="M178.5,253.6c0.2,0,0.4,0.2,0.4,0.4c0,0,0,0,0,0v0.2c0.5,0.1,1,0.2,1.4,0.5c0.2,0.1,0.3,0.2,0.3,0.4
			c0,0.3-0.2,0.5-0.5,0.5c0,0,0,0,0,0c-0.1,0-0.2,0-0.3-0.1c-0.3-0.2-0.6-0.3-0.9-0.4v1.7c1.4,0.4,2,0.9,2,1.9s-0.8,1.6-1.9,1.8v0.5
			c0,0.2-0.2,0.4-0.4,0.4c0,0,0,0,0,0c-0.2,0-0.4-0.2-0.4-0.4l0,0v-0.5c-0.7-0.1-1.3-0.3-1.9-0.7c-0.2-0.1-0.2-0.3-0.2-0.4
			c0-0.3,0.2-0.5,0.5-0.5c0,0,0,0,0,0c0.1,0,0.2,0,0.3,0.1c0.4,0.3,0.8,0.5,1.3,0.6v-1.8c-1.3-0.4-1.9-0.8-1.9-1.9
			c0-1,0.9-1.8,1.9-1.7V254C178.2,253.8,178.3,253.7,178.5,253.6z M178.1,256.7v-1.6c-0.6,0.1-0.9,0.4-0.9,0.8
			C177.3,256.3,177.4,256.5,178.1,256.7z M178.8,258v1.6c0.6-0.1,0.9-0.4,0.9-0.8S179.5,258.2,178.8,258L178.8,258z"/>
		<path class="st11" d="M185.1,256.7c0.4,0.4,0.7,1,0.7,1.6c0,0.6-0.2,1.2-0.7,1.6c-0.4,0.4-1,0.7-1.6,0.7c-0.6,0-1.2-0.2-1.6-0.7
			c-0.2-0.2-0.2-0.5,0-0.7c0.2-0.2,0.5-0.2,0.7,0c0.5,0.5,1.2,0.5,1.7,0c0.2-0.2,0.4-0.5,0.4-0.9c0-0.3-0.1-0.6-0.4-0.9
			c-0.2-0.2-0.5-0.4-0.9-0.4c-0.1,0-0.3-0.1-0.4-0.2l0,0c-0.2-0.2-0.2-0.5,0-0.7l0.9-0.9h-1.5c-0.3,0-0.5-0.2-0.5-0.5c0,0,0,0,0,0
			c0-0.3,0.2-0.5,0.5-0.5c0,0,0,0,0,0h2.7c0.3,0,0.5,0.2,0.5,0.5c0,0.1,0,0.2-0.1,0.2l-0.1,0.1l-1.1,1.2
			C184.8,256.4,185,256.5,185.1,256.7z"/>
		<path class="st11" d="M187.2,256.4c0-1.2,1-2.2,2.2-2.2c1.1,0,2.1,0.8,2.2,2l0,0c0,0.2,0,0.4,0,0.5c0,0.6-0.1,1.2-0.3,1.8
			c-0.2,0.6-0.6,1.2-1.2,1.5c-0.4,0.3-0.9,0.4-1.4,0.4c-0.3,0-0.5-0.2-0.5-0.5c0-0.3,0.2-0.5,0.5-0.5c0.3,0,0.6-0.1,0.8-0.3
			c0.2-0.2,0.4-0.4,0.6-0.6c0-0.1,0.1-0.2,0.1-0.2c-0.3,0.1-0.6,0.2-0.9,0.2C188.2,258.5,187.2,257.6,187.2,256.4z M188.2,256.4
			c0,0.7,0.5,1.2,1.2,1.2c0.7,0,1.2-0.5,1.2-1.2s-0.5-1.2-1.2-1.2C188.7,255.2,188.2,255.7,188.2,256.4z"/>
		<path class="st11" d="M193.7,259.2c0.4,0,0.7,0.3,0.7,0.7s-0.3,0.7-0.7,0.7c0,0,0,0,0,0c-0.4,0-0.7-0.3-0.7-0.7
			C193,259.5,193.3,259.2,193.7,259.2z"/>
		<path class="st11" d="M194.9,256.4c0-1.2,1-2.2,2.3-2.1c1.1,0,2,0.8,2.1,1.9l0,0c0,0.2,0,0.4,0,0.5c0,0.6-0.1,1.3-0.3,1.8
			c-0.2,0.6-0.6,1.2-1.2,1.5c-0.4,0.3-0.9,0.4-1.4,0.4c-0.3,0-0.5-0.2-0.5-0.5c0-0.3,0.2-0.5,0.5-0.5c0.3,0,0.6-0.1,0.8-0.3
			c0.2-0.2,0.4-0.4,0.6-0.6l0.1-0.2c-0.3,0.1-0.6,0.2-0.9,0.2C195.9,258.6,195,257.6,194.9,256.4z M195.9,256.4
			c-0.1,0.7,0.4,1.2,1.1,1.3c0.7,0.1,1.2-0.4,1.3-1.1c0-0.1,0-0.1,0-0.2c-0.1-0.7-0.6-1.1-1.3-1.1
			C196.4,255.4,196,255.8,195.9,256.4z"/>
		<path class="st11" d="M200.7,256.4c0-1.2,1-2.2,2.3-2.1c1.1,0,2,0.8,2.1,1.9l0,0c0,0.2,0,0.4,0,0.5c0,0.6-0.1,1.3-0.3,1.8
			c-0.2,0.6-0.6,1.2-1.2,1.5c-0.4,0.3-0.9,0.4-1.4,0.4c-0.3,0-0.5-0.2-0.5-0.5c0,0,0,0,0,0c0-0.3,0.2-0.5,0.5-0.5
			c0.3,0,0.6-0.1,0.9-0.3c0.2-0.2,0.4-0.4,0.6-0.6c0-0.1,0.1-0.2,0.1-0.2c-0.3,0.1-0.6,0.2-0.9,0.2
			C201.7,258.5,200.7,257.6,200.7,256.4z M201.7,256.4c-0.1,0.7,0.4,1.2,1.1,1.3c0.7,0.1,1.2-0.4,1.3-1.1c0-0.1,0-0.1,0-0.2
			c-0.1-0.7-0.6-1.1-1.3-1.1C202.2,255.4,201.8,255.8,201.7,256.4z"/>
		<path class="st11" d="M260.1,253.6c0.2,0,0.4,0.2,0.4,0.4c0,0,0,0,0,0v0.2c0.5,0.1,1,0.2,1.4,0.5c0.2,0.1,0.3,0.2,0.3,0.4
			c0,0.3-0.2,0.5-0.5,0.5c0,0,0,0,0,0c-0.1,0-0.2,0-0.3-0.1c-0.3-0.2-0.6-0.3-0.9-0.4v1.7c1.4,0.4,2,0.9,2,1.9s-0.8,1.6-1.9,1.8v0.5
			c0,0.2-0.2,0.4-0.4,0.4c0,0,0,0,0,0c-0.2,0-0.4-0.2-0.4-0.4v0v-0.5c-0.7-0.1-1.3-0.3-1.9-0.7c-0.2-0.1-0.2-0.3-0.2-0.4
			c0-0.3,0.2-0.5,0.5-0.5c0,0,0,0,0,0c0.1,0,0.2,0,0.3,0.1c0.4,0.3,0.8,0.5,1.3,0.6v-1.8c-1.3-0.4-1.9-0.8-1.9-1.9
			c0-1,0.9-1.8,1.9-1.7V254C259.8,253.8,259.9,253.7,260.1,253.6z M259.7,256.7v-1.6c-0.6,0.1-0.9,0.4-0.9,0.8
			C258.9,256.3,259,256.5,259.7,256.7L259.7,256.7z M260.5,258v1.6c0.6-0.1,0.9-0.4,0.9-0.8S261.1,258.2,260.5,258L260.5,258z"/>
		<path class="st11" d="M268.2,258.8c0,0.3-0.2,0.5-0.5,0.5c0,0,0,0,0,0h-0.1v0.7c0,0.3-0.2,0.5-0.5,0.5c0,0,0,0,0,0
			c-0.3,0-0.5-0.2-0.5-0.5c0,0,0,0,0,0v-0.7h-2.8c-0.1,0-0.2,0-0.3-0.1c-0.2-0.2-0.3-0.5-0.1-0.7c0,0,0,0,0,0l3.3-4.1l0,0l0,0l0,0
			l0,0c0,0,0,0,0,0s0,0,0,0h0h0.2h0l0,0l0,0h0l0,0l0,0l0,0l0,0l0,0l0,0v0.1v0.1l0,0v3.7h0.1c0.2-0.3,0.5-0.3,0.8-0.2
			S268.3,258.6,268.2,258.8z M266.6,256.1l-1.8,2.2h1.8V256.1z"/>
		<path class="st11" d="M269.2,256.4c0-1.2,1-2.2,2.2-2.2c1.1,0,2.1,0.8,2.2,2l0,0c0,0.2,0,0.4,0,0.5c0,0.6-0.1,1.2-0.3,1.8
			c-0.2,0.6-0.6,1.2-1.2,1.5c-0.4,0.3-0.9,0.4-1.4,0.4c-0.3,0-0.5-0.2-0.5-0.5s0.2-0.5,0.5-0.5c0.3,0,0.6-0.1,0.8-0.3
			c0.2-0.2,0.4-0.4,0.6-0.6c0-0.1,0.1-0.2,0.1-0.2c-0.3,0.1-0.6,0.2-0.9,0.2C270.2,258.5,269.2,257.6,269.2,256.4z M270.2,256.4
			c0,0.7,0.5,1.2,1.2,1.2s1.2-0.5,1.2-1.2c0,0,0,0,0,0c0-0.7-0.5-1.2-1.2-1.2S270.2,255.7,270.2,256.4
			C270.2,256.4,270.2,256.4,270.2,256.4z"/>
		<path class="st11" d="M275.7,259.2c0.4,0,0.7,0.3,0.7,0.7s-0.3,0.7-0.7,0.7c0,0,0,0,0,0c-0.4,0-0.7-0.3-0.7-0.7
			C275.1,259.5,275.4,259.2,275.7,259.2z"/>
		<path class="st11" d="M277,256.4c0-1.2,1-2.2,2.3-2.1c1.1,0,2,0.8,2.1,1.9l0,0c0,0.2,0,0.4,0,0.5c0,0.6-0.1,1.3-0.3,1.8
			c-0.2,0.6-0.6,1.2-1.2,1.5c-0.4,0.3-0.9,0.4-1.4,0.4c-0.3,0-0.5-0.2-0.5-0.5c0,0,0,0,0,0c0-0.3,0.2-0.5,0.5-0.5
			c0.3,0,0.6-0.1,0.8-0.3c0.2-0.2,0.4-0.4,0.6-0.6l0.1-0.2c-0.3,0.1-0.6,0.2-0.9,0.2C278,258.5,277,257.6,277,256.4z M278,256.4
			c0,0.7,0.5,1.2,1.2,1.2c0.7,0,1.2-0.5,1.2-1.2c0,0,0,0,0,0c0-0.6-0.5-1.2-1.2-1.2c0,0,0,0,0,0C278.5,255.2,278,255.7,278,256.4
			C278,256.4,278,256.4,278,256.4z"/>
		<path class="st11" d="M282.8,256.4c0-1.2,1-2.2,2.3-2.1c1.1,0,2,0.8,2.1,1.9l0,0c0,0.2,0,0.4,0,0.5c0,0.6-0.1,1.3-0.3,1.8
			c-0.2,0.6-0.6,1.2-1.2,1.5c-0.4,0.3-0.9,0.4-1.4,0.4c-0.3,0-0.5-0.2-0.5-0.5s0.2-0.5,0.5-0.5c0.3,0,0.6-0.1,0.9-0.3
			c0.2-0.2,0.4-0.4,0.6-0.6c0-0.1,0.1-0.2,0.1-0.2c-0.3,0.1-0.6,0.2-0.9,0.2C283.8,258.6,282.8,257.6,282.8,256.4
			C282.8,256.4,282.8,256.4,282.8,256.4z M283.8,256.4c-0.1,0.7,0.4,1.2,1.1,1.3c0.7,0.1,1.2-0.4,1.3-1.1c0-0.1,0-0.1,0-0.2
			c-0.1-0.7-0.6-1.1-1.3-1.1C284.3,255.4,283.8,255.8,283.8,256.4z"/>
		<path class="st9" d="M314.6,313.4c-1,0.3-46.6-0.2-47.2-0.6s-0.9-7.2-1.1-14.8v-0.3c0-0.1,0-0.2,0-0.3l28.4,0v0.5
			c0,0,16.8,7.8,18.5,9.1S316.1,312.9,314.6,313.4z"/>
		<path class="st11" d="M314.1,311.7c-7.4-0.3-37.4-0.7-44.7-0.4c-0.1,0-0.1,0,0,0C276.8,311.7,306.7,311.9,314.1,311.7
			C314.3,311.8,314.3,311.7,314.1,311.7z"/>
		<path class="st11" d="M297.9,297.6c-2.9-0.6-6.5-0.2-8.8,1.9c-0.1,0.1,0,0.2,0.1,0.2c2.8-0.9,5.7-1.4,8.6-1.7
			c0.1,0,0.2-0.1,0.1-0.2C298,297.7,298,297.6,297.9,297.6z"/>
		<path class="st11" d="M300,298.9c-2.9-0.6-6.5-0.2-8.8,1.9c-0.1,0.1,0,0.2,0.1,0.2c2.8-0.9,5.7-1.4,8.6-1.7c0.1,0,0.2-0.1,0.2-0.2
			C300.1,299,300.1,298.9,300,298.9z"/>
		<path class="st11" d="M302.1,300.2c-2.9-0.6-6.5-0.2-8.8,1.9c-0.1,0.1,0,0.2,0.1,0.2c2.8-0.9,5.7-1.4,8.6-1.7
			c0.1,0,0.2-0.1,0.2-0.2C302.2,300.3,302.1,300.2,302.1,300.2z"/>
		<path class="st11" d="M301.8,291.3c-1.1-1.6-3.3-0.9-4.5,0.1c-1.9,1.6-3.4,3.6-4.3,5.9l-0.1,0.2c0,0,0,0.1,0,0.1l0,0v0.1
			c0,0.1-0.1,0.2-0.1,0.3c0,0,0,0.1,0,0.1c0,0,0,0,0,0c0,0.1,0.1,0.3,0.2,0.4c0.1,0,0.2,0,0.3,0c0.5-0.2,1-0.4,1.5-0.5l1.7-0.6
			c1.4-0.4,2.8-1.1,4-2C301.6,294.5,302.8,292.8,301.8,291.3z M301.2,293.1c-0.3,1.8-3.2,2.8-4.6,3.4c-0.9,0.4-1.9,0.7-2.8,1l0,0
			l-0.5,0.2l-0.2,0.1l0.1-0.2l0,0l0.1-0.1c0.8-1.2,1.6-2.4,2.6-3.5c0.5-0.6,1-1.1,1.6-1.7C298.3,291.5,301.7,289.9,301.2,293.1z"/>
		<path class="st11" d="M293.4,297.9l-0.1-0.2c0,0,0-0.1-0.1-0.1l0,0l-0.1-0.1c0-0.1-0.1-0.1-0.2-0.2c-1.4-2-3.4-3.6-5.6-4.8
			c-1.4-0.7-3.7-0.9-4.4,0.9s0.9,3.1,2.3,3.7c0.3,0.1,0.5,0.2,0.8,0.3c1.6,0.5,3.2,0.8,4.9,0.8c0.7,0.1,1.3,0.1,2,0.2h0.1
			c0.2,0,0.4-0.1,0.4-0.3c0,0,0-0.1,0-0.1C293.4,298,293.4,298,293.4,297.9C293.4,297.9,293.4,297.9,293.4,297.9z M292.8,297.7h-0.1
			c-0.5-0.1-1.1-0.1-1.6-0.2l-1.8-0.2c-1.5-0.2-4.5-0.5-5.2-2.2c-1.3-3,2.5-2.2,3.5-1.6c0.7,0.4,1.3,0.8,1.9,1.3
			c1.1,0.9,2.2,1.8,3.3,2.8L292.8,297.7L292.8,297.7l0.1,0L292.8,297.7z"/>
		<rect x="175.5" y="342.2" class="st8" width="67.5" height="7.4"/>
		<rect x="185.8" y="342.2" class="st9" width="7.4" height="7.4"/>
		<rect x="196.1" y="342.2" class="st10" width="7.4" height="7.4"/>
		<rect x="206.4" y="342.2" class="st11" width="7.4" height="7.4"/>
		<rect x="257.1" y="342.2" class="st12" width="67.5" height="7.4"/>
		<rect x="267.4" y="342.2" class="st9" width="7.4" height="7.4"/>
		<rect x="277.7" y="342.2" class="st10" width="7.4" height="7.4"/>
		<rect x="288" y="342.2" class="st11" width="7.4" height="7.4"/>
		<path class="st11" d="M178.5,354.7c0.2,0,0.4,0.2,0.4,0.4c0,0,0,0,0,0v0.2c0.5,0.1,1,0.2,1.4,0.5c0.2,0.1,0.3,0.2,0.3,0.4
			c0,0.3-0.2,0.5-0.5,0.5c0,0,0,0,0,0c-0.1,0-0.2,0-0.3-0.1c-0.3-0.2-0.6-0.3-0.9-0.4v1.7c1.4,0.3,2,0.9,2,1.9s-0.8,1.6-1.9,1.8v0.5
			c0,0.2-0.2,0.4-0.4,0.4c0,0,0,0,0,0c-0.2,0-0.4-0.2-0.4-0.4v-0.6c-0.7-0.1-1.3-0.3-1.9-0.7c-0.2-0.1-0.2-0.3-0.2-0.4
			c0-0.3,0.2-0.5,0.5-0.5c0,0,0,0,0,0c0.1,0,0.2,0,0.3,0.1c0.4,0.3,0.8,0.5,1.3,0.6v-1.8c-1.3-0.3-1.9-0.8-1.9-1.9
			c0-1,0.9-1.8,1.9-1.7v-0.2C178.1,354.9,178.3,354.8,178.5,354.7z M178.1,357.8v-1.6c-0.6,0.1-0.9,0.4-0.9,0.8
			S177.4,357.6,178.1,357.8L178.1,357.8z M178.8,359.1v1.6c0.6-0.1,0.9-0.4,0.9-0.8S179.5,359.3,178.8,359.1L178.8,359.1z"/>
		<path class="st11" d="M185.1,357.8c0.4,0.4,0.7,1,0.7,1.6c0,0.6-0.2,1.2-0.7,1.6c-0.4,0.4-1,0.7-1.6,0.7c-0.6,0-1.2-0.2-1.6-0.7
			c-0.2-0.2-0.2-0.5,0-0.7c0.2-0.2,0.5-0.2,0.7,0c0.5,0.5,1.2,0.5,1.7,0c0.2-0.2,0.4-0.5,0.4-0.9c0-0.3-0.1-0.6-0.4-0.9
			c-0.2-0.2-0.5-0.4-0.9-0.4c-0.1,0-0.3,0-0.4-0.2l0,0c-0.2-0.2-0.2-0.5,0-0.7l0.9-0.9h-1.5c-0.3-0.1-0.5-0.3-0.4-0.6
			c0-0.2,0.2-0.4,0.4-0.4h2.7c0.3,0,0.5,0.2,0.5,0.5c0,0,0,0,0,0c0,0.1,0,0.2-0.1,0.2l-0.1,0.1l-1.1,1.2
			C184.8,357.5,185,357.6,185.1,357.8z"/>
		<path class="st11" d="M187.2,357.5c0-1.2,1-2.2,2.2-2.2c1.1,0,2.1,0.8,2.2,2l0,0c0,0.2,0,0.3,0,0.5c0,0.6-0.1,1.3-0.3,1.9
			c-0.2,0.6-0.6,1.2-1.2,1.5c-0.4,0.3-0.9,0.4-1.4,0.4c-0.3,0-0.5-0.2-0.5-0.5c0,0,0,0,0,0c0-0.3,0.2-0.5,0.5-0.5
			c0.3,0,0.6-0.1,0.8-0.3c0.2-0.2,0.4-0.4,0.6-0.6c0-0.1,0.1-0.2,0.1-0.2c-0.3,0.1-0.6,0.2-0.9,0.2
			C188.2,359.6,187.2,358.7,187.2,357.5z M188.2,357.5c0,0.7,0.5,1.2,1.2,1.2c0.7,0,1.2-0.5,1.2-1.2s-0.5-1.2-1.2-1.2
			C188.7,356.3,188.2,356.8,188.2,357.5z"/>
		<path class="st11" d="M193.7,360.3c0.4,0,0.7,0.3,0.7,0.7s-0.3,0.7-0.7,0.7c0,0,0,0,0,0c-0.4,0-0.7-0.3-0.7-0.7
			C193,360.6,193.3,360.3,193.7,360.3z"/>
		<path class="st11" d="M194.9,357.5c0-1.2,1-2.2,2.3-2.1c1.1,0,2,0.8,2.1,1.9l0,0c0,0.2,0,0.3,0,0.5c0,0.6-0.1,1.3-0.3,1.9
			c-0.2,0.6-0.6,1.2-1.2,1.5c-0.4,0.3-0.9,0.4-1.4,0.4c-0.3,0-0.5-0.2-0.5-0.5c0,0,0,0,0,0c0-0.3,0.2-0.5,0.5-0.5
			c0.3,0,0.6-0.1,0.8-0.3c0.2-0.2,0.4-0.4,0.6-0.6l0.1-0.2c-0.3,0.1-0.6,0.2-0.9,0.2C195.9,359.6,195,358.7,194.9,357.5z
			 M195.9,357.5c-0.1,0.7,0.4,1.2,1.1,1.3c0.7,0.1,1.2-0.4,1.3-1.1c0-0.1,0-0.1,0-0.2c-0.1-0.7-0.6-1.1-1.3-1.1
			C196.4,356.4,196,356.9,195.9,357.5z"/>
		<path class="st11" d="M200.7,357.5c0-1.2,1-2.2,2.3-2.1c1.1,0,2,0.8,2.1,1.9l0,0c0,0.2,0,0.3,0,0.5c0,0.6-0.1,1.3-0.3,1.9
			c-0.2,0.6-0.6,1.2-1.2,1.5c-0.4,0.3-0.9,0.4-1.4,0.4c-0.3,0-0.5-0.2-0.5-0.5c0,0,0,0,0,0c0-0.3,0.2-0.5,0.5-0.5
			c0.3,0,0.6-0.1,0.9-0.3c0.2-0.2,0.4-0.4,0.6-0.6c0-0.1,0.1-0.2,0.1-0.2c-0.3,0.1-0.6,0.2-0.9,0.2
			C201.7,359.6,200.7,358.7,200.7,357.5z M201.7,357.5c-0.1,0.7,0.4,1.2,1.1,1.3c0.7,0.1,1.2-0.4,1.3-1.1c0-0.1,0-0.1,0-0.2
			c-0.1-0.7-0.6-1.1-1.3-1.1C202.2,356.4,201.8,356.9,201.7,357.5z"/>
		<path class="st11" d="M260.1,354.7c0.2,0,0.4,0.2,0.4,0.4c0,0,0,0,0,0v0.2c0.5,0.1,1,0.2,1.4,0.5c0.2,0.1,0.3,0.2,0.3,0.4
			c0,0.3-0.2,0.5-0.5,0.5c-0.1,0-0.2,0-0.3-0.1c-0.3-0.2-0.6-0.3-0.9-0.4v1.7c1.4,0.3,2,0.9,2,1.9s-0.8,1.6-1.9,1.8v0.5
			c0,0.2-0.2,0.4-0.4,0.4c0,0,0,0,0,0c-0.2,0-0.4-0.2-0.4-0.4v-0.6c-0.7-0.1-1.3-0.3-1.9-0.7c-0.2-0.1-0.2-0.3-0.2-0.4
			c0-0.3,0.2-0.5,0.5-0.5c0,0,0,0,0,0c0.1,0,0.2,0,0.3,0.1c0.4,0.3,0.8,0.5,1.3,0.6v-1.8c-1.3-0.3-1.9-0.8-1.9-1.9
			c0-1,0.9-1.8,1.9-1.7v-0.2C259.7,354.9,259.9,354.8,260.1,354.7z M259.7,357.8v-1.6c-0.6,0.1-0.9,0.4-0.9,0.8
			S259,357.6,259.7,357.8L259.7,357.8z M260.5,359.1v1.6c0.6-0.1,0.9-0.4,0.9-0.8S261.1,359.3,260.5,359.1L260.5,359.1z"/>
		<path class="st11" d="M266.8,357.8c0.4,0.4,0.7,1,0.7,1.6c0,0.6-0.2,1.2-0.7,1.6c-0.4,0.4-1,0.7-1.6,0.7c-0.6,0-1.2-0.2-1.6-0.7
			c-0.2-0.2-0.2-0.5,0-0.7c0.2-0.2,0.5-0.2,0.7,0c0.2,0.2,0.5,0.4,0.9,0.4c0.3,0,0.6-0.1,0.9-0.4c0.2-0.2,0.4-0.5,0.4-0.9
			c0-0.3-0.1-0.6-0.4-0.9c-0.2-0.2-0.5-0.4-0.9-0.4c-0.1,0-0.3,0-0.4-0.2l0,0c-0.2-0.2-0.2-0.5,0-0.7l0.9-0.9h-1.5
			c-0.3-0.1-0.5-0.3-0.4-0.6c0-0.2,0.2-0.4,0.4-0.4h2.7c0.3,0,0.5,0.2,0.5,0.5c0,0,0,0,0,0c0,0.1,0,0.2-0.1,0.2l-0.1,0.1l-1.1,1.2
			C266.4,357.5,266.6,357.6,266.8,357.8z"/>
		<path class="st11" d="M268.8,357.5c0-1.2,1-2.2,2.3-2.1c1.1,0,2,0.8,2.1,1.9l0,0c0,0.2,0,0.3,0,0.5c0,0.6-0.1,1.3-0.3,1.9
			c-0.2,0.6-0.6,1.2-1.2,1.5c-0.4,0.3-0.9,0.4-1.4,0.4c-0.3,0-0.5-0.2-0.5-0.5c0,0,0,0,0,0c0-0.3,0.2-0.5,0.5-0.5
			c0.3,0,0.6-0.1,0.8-0.3c0.2-0.2,0.4-0.4,0.6-0.6c0-0.1,0.1-0.2,0.1-0.2c-0.3,0.1-0.6,0.2-0.9,0.2
			C269.8,359.6,268.8,358.7,268.8,357.5z M269.8,357.5c0,0.7,0.5,1.2,1.2,1.2c0.7,0,1.2-0.5,1.2-1.2s-0.5-1.2-1.2-1.2
			S269.8,356.8,269.8,357.5z"/>
		<path class="st11" d="M275.3,360.3c0.4,0,0.7,0.3,0.7,0.7s-0.3,0.7-0.7,0.7c0,0,0,0,0,0c-0.4,0-0.7-0.3-0.7-0.7
			C274.6,360.6,274.9,360.3,275.3,360.3z"/>
		<path class="st11" d="M276.5,357.5c0-1.2,1-2.2,2.3-2.1c1.1,0,2,0.8,2.1,1.9l0,0c0,0.2,0,0.3,0,0.5c0,0.6-0.1,1.3-0.3,1.9
			c-0.2,0.6-0.6,1.2-1.2,1.5c-0.4,0.3-0.9,0.4-1.4,0.4c-0.3,0-0.5-0.2-0.5-0.5c0,0,0,0,0,0c0-0.3,0.2-0.5,0.5-0.5
			c0.3,0,0.6-0.1,0.9-0.3c0.2-0.2,0.4-0.4,0.6-0.6l0.1-0.2c-0.3,0.1-0.6,0.2-0.9,0.2C277.5,359.6,276.6,358.7,276.5,357.5z
			 M277.5,357.5c-0.1,0.7,0.4,1.2,1.1,1.3c0.7,0.1,1.2-0.4,1.3-1.1c0-0.1,0-0.1,0-0.2c-0.1-0.7-0.6-1.1-1.3-1.1
			C278.1,356.4,277.6,356.9,277.5,357.5z"/>
		<path class="st11" d="M282.3,357.5c0-1.2,1-2.2,2.3-2.1c1.1,0,2,0.8,2.1,1.9l0,0c0,0.2,0,0.3,0,0.5c0,0.6-0.1,1.3-0.3,1.9
			c-0.2,0.6-0.6,1.2-1.2,1.5c-0.4,0.3-0.9,0.4-1.4,0.4c-0.3,0-0.5-0.2-0.5-0.5c0,0,0,0,0,0c0-0.3,0.2-0.5,0.5-0.5
			c0.3,0,0.6-0.1,0.9-0.3c0.2-0.2,0.4-0.4,0.6-0.6c0-0.1,0.1-0.2,0.1-0.2c-0.3,0.1-0.6,0.2-0.9,0.2
			C283.3,359.6,282.3,358.7,282.3,357.5z M283.3,357.5c-0.1,0.7,0.4,1.2,1.1,1.3c0.7,0.1,1.2-0.4,1.3-1.1c0-0.1,0-0.1,0-0.2
			c-0.1-0.7-0.6-1.1-1.3-1.1C283.8,356.4,283.4,356.9,283.3,357.5z"/>
		<rect x="159" y="112.2" class="st13" width="181.9" height="37.2"/>
		<path class="st7" d="M225.3,133.1c0.3-0.3,0.8-0.4,1.1-0.1c0.8,0.7,1.8,1.1,2.9,1.2c0.7,0,1.3-0.2,1.9-0.6
			c0.4-0.2,0.6-0.6,0.6-1.1c0-0.2,0-0.3-0.1-0.5c-0.1-0.2-0.3-0.3-0.4-0.4c-0.6-0.4-1.3-0.6-2.1-0.7l0,0c-0.7-0.1-1.3-0.3-1.9-0.6
			c-0.6-0.3-1.1-0.7-1.4-1.2c-0.2-0.4-0.3-0.8-0.3-1.2c0-0.9,0.5-1.7,1.2-2.2c0.8-0.5,1.7-0.8,2.6-0.8c1.2,0.1,2.3,0.5,3.3,1.2
			c0.3,0.2,0.4,0.7,0.2,1.1c-0.2,0.4-0.7,0.5-1.1,0.2c0,0,0,0,0,0c-0.7-0.6-1.5-0.9-2.4-1c-0.6,0-1.2,0.2-1.7,0.5
			c-0.3,0.2-0.6,0.6-0.6,1c0,0.1,0,0.3,0.1,0.4c0.1,0.2,0.2,0.3,0.4,0.4c0.6,0.3,1.2,0.6,1.9,0.7l0,0c0.7,0.1,1.4,0.3,2.1,0.6
			c0.6,0.3,1.1,0.7,1.5,1.3c0.2,0.4,0.4,0.8,0.4,1.3c0,0.9-0.5,1.8-1.3,2.3c-0.8,0.6-1.8,0.9-2.8,0.9c-1.4-0.1-2.8-0.6-3.8-1.5
			C225.1,134,225,133.5,225.3,133.1z"/>
		<path class="st7" d="M235.6,134.9v-8.8c0-0.4,0.4-0.8,0.8-0.8c0,0,0,0,0,0c0.5,0,0.8,0.3,0.8,0.8c0,0,0,0,0,0v3.6h3.9v-3.6
			c0-0.4,0.4-0.8,0.8-0.8c0,0,0,0,0,0c0.5,0,0.8,0.3,0.8,0.8c0,0,0,0,0,0v8.8c0,0.5-0.4,0.8-0.8,0.8c0,0,0,0,0,0
			c-0.4,0-0.8-0.4-0.8-0.8c0,0,0,0,0,0v-3.6h-3.9v3.6c0,0.5-0.4,0.8-0.8,0.8c0,0,0,0,0,0C236,135.7,235.7,135.4,235.6,134.9
			C235.6,134.9,235.6,134.9,235.6,134.9z"/>
		<path class="st7" d="M254.1,126.5c1,1,1.5,2.4,1.5,3.8c0,1.4-0.5,2.8-1.5,3.8c-0.9,1-2.2,1.6-3.6,1.6c-1.4,0-2.7-0.6-3.7-1.6
			c-1-1-1.5-2.4-1.5-3.8c0-1.4,0.5-2.8,1.5-3.8c0.9-1,2.3-1.6,3.7-1.6C251.9,125,253.2,125.5,254.1,126.5z M253.9,130.3
			c0-1-0.4-1.9-1-2.6c-1.2-1.3-3.3-1.4-4.6-0.2c-0.1,0.1-0.1,0.1-0.2,0.2c-0.7,0.7-1,1.7-1,2.6c0,1,0.3,1.9,1,2.6
			c1.2,1.3,3.2,1.4,4.5,0.3c0.1-0.1,0.2-0.2,0.3-0.3C253.6,132.2,253.9,131.3,253.9,130.3z"/>
		<path class="st7" d="M258.6,134.9v-8.8c0-0.4,0.4-0.8,0.8-0.8c0,0,0,0,0,0h4.9c0.5,0,0.8,0.4,0.8,0.8c0,0.5-0.4,0.8-0.8,0.8h-4.1
			v2.7h3.5c0.5,0,0.8,0.4,0.8,0.8c0,0.5-0.4,0.8-0.8,0.8h-3.5v2.8h4.1c0.5,0.1,0.8,0.5,0.7,0.9c0,0.4-0.4,0.7-0.7,0.7h-4.9l0,0l0,0
			C259,135.8,258.6,135.4,258.6,134.9C258.6,134.9,258.6,134.9,258.6,134.9z"/>
		<path class="st7" d="M267.1,133.1c0.3-0.3,0.8-0.4,1.1-0.1c0.8,0.7,1.8,1.1,2.9,1.2c0.7,0,1.3-0.2,1.9-0.6
			c0.4-0.2,0.6-0.6,0.6-1.1c0-0.2,0-0.3-0.1-0.5c-0.1-0.2-0.3-0.3-0.5-0.4c-0.6-0.4-1.3-0.6-2.1-0.7l0,0c-0.7-0.1-1.3-0.3-1.9-0.6
			c-0.6-0.3-1.1-0.7-1.4-1.2c-0.2-0.4-0.3-0.8-0.3-1.2c0-0.9,0.5-1.7,1.2-2.2c0.8-0.5,1.7-0.8,2.6-0.8c1.2,0.1,2.3,0.5,3.3,1.2
			c0.4,0.2,0.4,0.7,0.2,1.1c0,0,0,0,0,0c-0.2,0.4-0.7,0.5-1.1,0.2c0,0,0,0,0,0c-0.7-0.6-1.5-0.9-2.4-1c-0.6,0-1.2,0.2-1.7,0.5
			c-0.3,0.2-0.6,0.6-0.6,1c0,0.1,0,0.3,0.1,0.4c0.1,0.2,0.2,0.3,0.4,0.4c0.6,0.3,1.2,0.6,1.9,0.7l0,0c0.7,0.1,1.4,0.3,2.1,0.6
			c0.6,0.3,1.1,0.7,1.5,1.3c0.2,0.4,0.4,0.8,0.4,1.3c0,0.9-0.5,1.8-1.3,2.3c-0.8,0.6-1.8,0.9-2.8,0.9c-1.4-0.1-2.8-0.6-3.8-1.5
			C266.9,134,266.9,133.5,267.1,133.1z"/>
		<path class="st9" d="M233.2,212.3c-1.6,0.5-46.2,0.6-47.9-0.4c-0.6-0.4-1.2-7.7-0.6-15.4l28.8,0.2c0,0,16.5,7.8,18.2,9.2
			S234.8,211.8,233.2,212.3z"/>
		<path class="st7" d="M233.9,211.3c0,0.4-0.3,0.8-0.7,1c-1.6,0.5-46.2,0.6-47.9-0.4c-0.3-0.4-0.4-0.9-0.4-1.4h37.7
			c0.2-1.7,0.9-3.2,2.1-4.4c1.1-1.1,2.6-1.7,4.2-1.8c1,0.5,1.9,1,2.8,1.6c1.2,1.2,2,2.8,2.2,4.6C233.9,210.7,233.9,211,233.9,211.3z
			"/>
		<path class="st11" d="M232.6,210.5c-7.5-0.2-37.7-0.5-45.1-0.1c-0.1,0-0.1,0,0,0C194.9,210.7,225.1,210.7,232.6,210.5
			C232.8,210.6,232.8,210.5,232.6,210.5z"/>
		<path class="st11" d="M228.9,204.3c-1.7-0.1-3.3,0.6-4.5,1.8c-1.1,1.1-1.7,2.5-1.7,4c0,0,0.1,0,0.1,0c0.5-3,3-5.4,6.1-5.7
			C228.9,204.4,228.9,204.4,228.9,204.3C228.9,204.3,228.9,204.3,228.9,204.3z"/>
		<path class="st11" d="M215.9,197.5c-3-0.1-6.5,1-8.3,3.4c-0.1,0.1,0.1,0.2,0.1,0.1c2.6-1.3,5.4-2.4,8.2-3.2c0.1,0,0.2-0.1,0.1-0.2
			C216,197.6,215.9,197.5,215.9,197.5z"/>
		<path class="st11" d="M218.2,198.4c-3-0.1-6.5,1-8.4,3.4c-0.1,0.1,0.1,0.2,0.1,0.1c2.6-1.4,5.4-2.4,8.3-3.2c0.1,0,0.2-0.1,0.1-0.2
			C218.3,198.5,218.2,198.4,218.2,198.4z"/>
		<path class="st11" d="M220.5,199.3c-3-0.1-6.5,1-8.4,3.4c-0.1,0.1,0.1,0.2,0.2,0.1c2.6-1.4,5.4-2.4,8.2-3.2c0.1,0,0.2-0.1,0.1-0.2
			C220.6,199.4,220.5,199.3,220.5,199.3z"/>
		<path class="st11" d="M222.8,200.3c-3-0.1-6.5,1-8.4,3.4c-0.1,0.1,0.1,0.2,0.1,0.1c2.6-1.4,5.4-2.4,8.3-3.2c0.1,0,0.2-0.1,0.1-0.2
			C222.9,200.3,222.9,200.3,222.8,200.3z"/>
		<path class="st7" d="M189.5,202c-3.4,0-3.4,5.2,0,5.2S192.9,202,189.5,202z"/>
		<path class="st11" d="M219.2,189.5c-1.5-1.3-3.4-0.1-4.4,1.2c-1.3,1.8-2.1,3.8-2.5,5.9c-0.1,0.3-0.1,0.6-0.2,0.9
			c0,0.1,0,0.3-0.1,0.4s0,0,0,0c0,0,0,0.1,0,0.1c0,0.1,0,0.2,0,0.3s0.1,0.1,0.1,0.1c0,0.1,0.1,0.3,0.3,0.3c0.1,0,0.2,0,0.2,0
			c0.6-0.4,1.2-0.8,1.8-1.2l0.3-0.2c1.5-0.9,2.9-2.1,4.1-3.4C219.8,192.7,220.6,190.7,219.2,189.5z M215.4,195.9
			c-0.5,0.4-1,0.7-1.5,1s-0.9,0.6-1.3,0.9l-0.1,0.1l-0.2,0.1l0.1-0.2l0,0l0.4-1.2c0.3-1,0.8-2.1,1.2-3.1c0.3-0.7,0.7-1.4,1.1-2
			c0.7-1,3.6-3.5,3.9-0.2C219.2,193.2,216.7,195,215.4,195.9z"/>
		<path class="st11" d="M212.7,198.2c0,0,0-0.1,0-0.1c0,0,0,0,0,0l-0.2-0.2l-0.1-0.1l0,0c-0.1-0.1-0.2-0.2-0.3-0.3
			c-0.4-0.3-0.8-0.6-1.2-0.9c-1.6-1.1-3.5-1.9-5.4-2.3c-1.6-0.3-3.8,0.1-4,2c0,0.1,0,0.1,0,0.2c-0.1,1.7,1.7,2.6,3.2,2.8
			c1.5,0.2,3.1,0.2,4.6-0.1c1.1-0.2,2.2-0.4,3.2-0.5l0,0C212.7,198.7,212.8,198.5,212.7,198.2C212.7,198.3,212.7,198.3,212.7,198.2z
			 M208.4,198.6c-1.5,0.2-4.6,0.6-5.7-0.8c-0.3-0.3-0.5-0.7-0.6-1.1c-0.2-1.5,2.6-1.6,3.6-1.4c0.8,0.2,1.5,0.4,2.2,0.7
			c0.5,0.2,1.1,0.4,1.6,0.7c0.9,0.4,1.7,0.9,2.5,1.3l0,0l0.2,0.1h-0.2h-0.4C210.5,198.3,209.5,198.4,208.4,198.6L208.4,198.6z"/>
		<path class="st14" d="M233.2,313.4c-1.6,0.5-46.2,0.6-47.9-0.5c-0.6-0.4-1.2-7.7-0.6-15.3l28.8,0.2c0,0,16.5,7.8,18.2,9.1
			S234.8,312.9,233.2,313.4z"/>
		<path class="st11" d="M232.6,311.6c-7.5-0.2-37.7-0.5-45.1-0.2c-0.1,0-0.1,0,0,0c7.4,0.4,37.6,0.4,45.1,0.2
			C232.8,311.7,232.8,311.6,232.6,311.6z"/>
		<path class="st11" d="M228.9,305.4c-1.7-0.1-3.3,0.6-4.5,1.8c-1.1,1.1-1.7,2.5-1.7,4c0,0,0.1,0,0.1,0c0.6-3,3-5.3,6.1-5.7V305.4z"
			/>
		<path class="st11" d="M215.9,298.6c-3-0.1-6.5,1-8.3,3.4c-0.1,0.1,0.1,0.2,0.1,0.1c2.6-1.4,5.4-2.4,8.2-3.2c0.1,0,0.2-0.1,0.1-0.2
			C216,298.6,215.9,298.6,215.9,298.6z"/>
		<path class="st11" d="M218.2,299.5c-3-0.1-6.5,1-8.4,3.4c-0.1,0.1,0.1,0.2,0.1,0.2c2.6-1.4,5.4-2.4,8.3-3.2c0.1,0,0.2-0.1,0.1-0.2
			C218.3,299.6,218.2,299.5,218.2,299.5z"/>
		<path class="st11" d="M220.5,300.4c-3-0.1-6.5,1-8.4,3.4c-0.1,0.1,0.1,0.2,0.2,0.1c2.6-1.3,5.4-2.4,8.2-3.2c0.1,0,0.2-0.1,0.1-0.2
			C220.6,300.5,220.5,300.4,220.5,300.4z"/>
		<path class="st11" d="M222.8,301.3c-3-0.1-6.5,1-8.4,3.4c-0.1,0.1,0.1,0.2,0.1,0.1c2.6-1.4,5.4-2.4,8.3-3.2c0.1,0,0.2-0.1,0.1-0.2
			C222.9,301.4,222.9,301.3,222.8,301.3z"/>
		<path class="st11" d="M189.5,304.3c-3.4,0-3.4,5.2,0,5.2S192.9,304.4,189.5,304.3z"/>
		<path class="st11" d="M219.2,290.6c-1.5-1.3-3.4,0-4.4,1.2c-1.2,1.8-2.1,3.8-2.5,6c-0.1,0.3-0.1,0.6-0.2,0.9c0,0.1,0,0.3-0.1,0.4
			s0,0,0,0v0.1v0.3c0,0,0,0.1,0.1,0.1c0,0,0,0,0,0c0,0.1,0.1,0.3,0.3,0.3c0.1,0,0.2,0,0.2,0c0.6-0.4,1.2-0.8,1.8-1.2l0.3-0.2
			c1.5-0.9,2.9-2.1,4.1-3.4C219.8,293.8,220.6,291.8,219.2,290.6z M215.4,297l-1.5,1l-1.3,0.9l-0.2,0.1l-0.2,0.1l0.1-0.2l0,0
			c0.1-0.4,0.3-0.8,0.4-1.2c0.4-1,0.8-2.1,1.2-3.1c0.3-0.7,0.7-1.4,1.1-2c0.7-1,3.6-3.5,3.9-0.2C219.2,294.3,216.7,296.1,215.4,297z
			"/>
		<path class="st11" d="M212.7,299.3c0,0,0-0.1,0-0.1c0,0,0,0,0,0c-0.1-0.1-0.1-0.1-0.2-0.1c0,0,0-0.1-0.1-0.1l0,0
			c-0.1-0.1-0.2-0.2-0.3-0.3c-0.4-0.3-0.8-0.6-1.2-0.9c-1.6-1.1-3.5-1.9-5.4-2.3c-1.6-0.3-3.8,0.1-4,2c0,0.1,0,0.1,0,0.2
			c-0.1,1.7,1.7,2.6,3.2,2.8c1.5,0.2,3.1,0.1,4.6-0.1c1.1-0.2,2.1-0.4,3.2-0.5l0,0C212.7,299.8,212.8,299.6,212.7,299.3
			C212.7,299.4,212.7,299.4,212.7,299.3z M208.4,299.7c-1.5,0.2-4.6,0.6-5.7-0.8c-0.3-0.3-0.5-0.7-0.6-1.1c-0.2-1.5,2.6-1.6,3.6-1.4
			c0.7,0.2,1.5,0.4,2.2,0.7c0.5,0.2,1.1,0.5,1.6,0.7c0.9,0.4,1.7,0.9,2.5,1.3l0,0l0.2,0.1H212h-0.4
			C210.5,299.4,209.5,299.5,208.4,299.7L208.4,299.7z"/>
		<path class="st14" d="M314.8,212.3c-1.6,0.5-46.2,0.6-47.9-0.4c-0.6-0.4-1.3-15.4-0.6-23l28.8,0.2c0,0,0.2,7.7,0.5,7.9
			c2.9,1.4,16.1,7.7,17.6,8.9C315,207.3,316.4,211.8,314.8,212.3z"/>
		<path class="st11" d="M314.2,210.5c-7.5-0.2-37.7-0.5-45.1-0.1c-0.1,0-0.1,0,0,0C276.5,210.7,306.7,210.7,314.2,210.5
			C314.4,210.6,314.4,210.5,314.2,210.5z"/>
		<path class="st11" d="M310.5,204.3c-1.7-0.1-3.3,0.6-4.5,1.8c-1.1,1.1-1.7,2.5-1.7,4c0,0,0.1,0.1,0.1,0c0.5-3,3-5.4,6.1-5.7
			C310.5,204.4,310.5,204.4,310.5,204.3C310.5,204.3,310.5,204.3,310.5,204.3L310.5,204.3z"/>
		<path class="st11" d="M297.5,197.5c-3-0.1-6.5,1-8.4,3.4c-0.1,0.1,0.1,0.2,0.2,0.2c2.6-1.4,5.4-2.4,8.2-3.2c0.1,0,0.2-0.1,0.1-0.2
			C297.6,197.6,297.5,197.5,297.5,197.5z"/>
		<path class="st11" d="M299.8,198.4c-3-0.1-6.5,1-8.4,3.4c-0.1,0.1,0.1,0.2,0.1,0.1c2.6-1.3,5.4-2.4,8.3-3.2c0.1,0,0.2-0.1,0.1-0.2
			C299.9,198.5,299.9,198.4,299.8,198.4z"/>
		<path class="st11" d="M302.1,199.3c-3-0.1-6.5,1-8.4,3.4c-0.1,0.1,0.1,0.2,0.1,0.1c2.6-1.4,5.4-2.4,8.3-3.2c0.1,0,0.2-0.1,0.2-0.2
			S302.2,199.3,302.1,199.3z"/>
		<path class="st11" d="M304.4,200.3c-3-0.1-6.5,1-8.4,3.4c-0.1,0.1,0.1,0.2,0.1,0.1c2.6-1.4,5.4-2.4,8.2-3.2c0.1,0,0.2-0.1,0.1-0.2
			C304.5,200.3,304.5,200.3,304.4,200.3z"/>
		<path class="st11" d="M271.1,191.7c-3.4,0-3.4,5.2,0,5.2S274.5,191.7,271.1,191.7z"/>
		<path class="st11" d="M300.8,189.5c-1.5-1.3-3.4-0.1-4.4,1.2c-0.4,0.6-0.8,1.2-1.1,1.9c-0.8,1.5-1.3,3.2-1.5,4.9
			c0,0.1,0,0.3,0,0.4c0,0,0,0.1,0,0.1c0,0.1,0,0.2,0,0.3c0,0,0,0.1,0.1,0.1c0,0,0,0,0,0c0,0.1,0.2,0.3,0.3,0.3c0.1,0,0.2,0,0.2,0
			c0.6-0.4,1.2-0.8,1.8-1.2l0.3-0.2c1.5-0.9,2.9-2.1,4.1-3.4C301.5,192.7,302.2,190.7,300.8,189.5z M297.1,195.9l-1.4,1
			c-0.5,0.3-0.9,0.6-1.4,1l-0.1,0.1l-0.2,0.1l0.1-0.2l0,0c0.4-1.2,0.8-2.4,1.3-3.5c0.1-0.2,0.2-0.5,0.3-0.7c0.3-0.7,0.7-1.4,1.1-2
			c0.7-1,3.6-3.5,3.9-0.2C300.8,193.2,298.3,195,297.1,195.9L297.1,195.9z"/>
		<path class="st11" d="M294.3,198.3c0,0,0-0.1,0-0.1c0,0,0,0,0,0l-0.2-0.2l-0.1-0.1l0,0l-0.3-0.3c-1.9-1.6-4.2-2.7-6.6-3.2
			c-1.6-0.3-3.8,0.1-4,2s1.6,2.8,3.2,3c1.5,0.2,3.1,0.2,4.6-0.1c1.1-0.2,2.2-0.4,3.2-0.5l0,0C294.2,198.7,294.3,198.5,294.3,198.3
			C294.3,198.3,294.3,198.3,294.3,198.3z M290,198.6c-1.5,0.2-4.5,0.6-5.6-0.8c-2-2.6,1.9-2.8,3-2.5c0.7,0.2,1.5,0.4,2.2,0.7
			c1.4,0.6,2.8,1.3,4.1,2l0,0l0.1,0.1h-0.2h-0.5C292.1,198.3,291.1,198.4,290,198.6L290,198.6z"/>
		<path class="st9" d="M233.2,414.5c-1.6,0.5-46.2,0.6-47.9-0.5c-0.6-0.4-1.2-15.4-0.6-23l28.8,0.2c0,0,0.2,7.7,0.6,7.9
			c2.9,1.4,16.1,7.6,17.6,8.9C233.4,409.5,234.8,414,233.2,414.5z"/>
		<path class="st11" d="M232.6,412.7c-7.5-0.2-37.7-0.5-45.1-0.1c-0.1,0-0.1,0,0,0C194.9,413,225.1,413,232.6,412.7
			C232.8,412.9,232.8,412.7,232.6,412.7z"/>
		<path class="st11" d="M228.9,406.5c-1.7-0.1-3.3,0.6-4.5,1.8c-1.1,1.1-1.7,2.5-1.7,4c0,0,0.1,0,0.1,0c0.6-3,3-5.3,6.1-5.7V406.5z"
			/>
		<path class="st11" d="M214.6,394.2c-2.8-1.2-6.4-1.5-9,0c-0.1,0.1,0,0.2,0.1,0.2c2.9-0.3,5.9-0.2,8.8,0.1
			C214.6,394.5,214.7,394.4,214.6,394.2C214.6,394.2,214.6,394.2,214.6,394.2z"/>
		<path class="st11" d="M214.9,396.5c-2.8-1.2-6.4-1.5-9,0c-0.1,0.1,0,0.2,0.1,0.2c2.9-0.3,5.9-0.2,8.8,0.1c0.1,0,0.2-0.1,0.2-0.2
			C215,396.6,214.9,396.6,214.9,396.5z"/>
		<path class="st11" d="M215.1,398.9c-2.8-1.2-6.4-1.5-9,0c-0.1,0.1,0,0.2,0.1,0.2c2.9-0.3,5.9-0.2,8.8,0.1c0.1,0,0.2-0.1,0.2-0.2
			C215.3,399,215.2,399,215.1,398.9z"/>
		<path class="st11" d="M190.7,391.5c0.1,1.6,0.2,3.2,0.3,4.8s0.1,3.2,0.1,4.8s0,3.2-0.1,4.8s-0.1,3.2-0.3,4.8
			c-0.2-1.6-0.2-3.2-0.3-4.8s-0.1-3.2-0.1-4.8s0-3.2,0.1-4.8S190.6,393.1,190.7,391.5z"/>
		<path class="st14" d="M314.8,414.5c-1.6,0.5-46.2,0.6-47.9-0.5c-0.6-0.4-1.3-26-0.6-33.6l28.8,0.2c0,0,0.2,18.4,0.5,18.6
			c2.9,1.4,16.1,7.6,17.6,8.9C315,409.5,316.4,414,314.8,414.5z"/>
		<path class="st11" d="M314.2,412.7c-7.5-0.2-37.7-0.5-45.1-0.1c-0.1,0-0.1,0,0,0C276.5,413,306.7,413,314.2,412.7
			C314.4,412.9,314.4,412.7,314.2,412.7z"/>
		<path class="st11" d="M310.5,406.5c-1.7-0.1-3.3,0.6-4.5,1.8c-1.1,1.1-1.7,2.5-1.7,4c0,0,0.1,0,0.1,0c0.6-3,3-5.3,6.1-5.7
			C310.5,406.6,310.5,406.5,310.5,406.5z"/>
		<path class="st11" d="M296.1,394.3c-2.7-1.3-6.3-1.7-9-0.2c-0.1,0.1,0,0.2,0.1,0.2c2.9-0.2,5.9-0.1,8.8,0.4c0.1,0,0.2-0.1,0.2-0.2
			C296.2,394.4,296.2,394.3,296.1,394.3z"/>
		<path class="st11" d="M296.3,396.7c-2.7-1.3-6.3-1.7-9-0.2c-0.1,0.1,0,0.2,0.1,0.2c2.9-0.2,5.9-0.1,8.8,0.4c0.1,0,0.2-0.1,0.2-0.2
			C296.4,396.8,296.4,396.7,296.3,396.7z"/>
		<path class="st11" d="M295.9,391.9c-2.7-1.3-6.3-1.7-9-0.2c-0.1,0.1,0,0.2,0.1,0.2c3-0.2,5.9-0.1,8.8,0.4c0.1,0,0.2-0.1,0.2-0.2
			C296,392,296,391.9,295.9,391.9z"/>
		<path class="st11" d="M295.7,389.5c-2.7-1.3-6.3-1.7-9-0.2c-0.1,0.1,0,0.2,0.1,0.2c2.9-0.2,5.9-0.1,8.8,0.4c0.1,0,0.2-0.1,0.2-0.2
			C295.8,389.6,295.8,389.6,295.7,389.5z"/>
		<path class="st11" d="M295.5,387.1c-2.7-1.3-6.3-1.7-9-0.2c-0.1,0.1,0,0.2,0.1,0.2c2.9-0.2,5.9-0.1,8.8,0.4c0.1,0,0.2,0,0.2-0.1
			C295.6,387.3,295.6,387.2,295.5,387.1L295.5,387.1z"/>
		<path class="st11" d="M295.3,384.8c-2.7-1.3-6.3-1.7-9-0.2c-0.1,0,0,0.2,0.1,0.2c3-0.2,5.9-0.1,8.8,0.4c0.1,0,0.2-0.1,0.2-0.2
			C295.4,384.8,295.3,384.8,295.3,384.8z"/>
		<path class="st11" d="M296.6,399.1c-2.7-1.3-6.3-1.7-9-0.2c-0.1,0,0,0.2,0.1,0.2c2.9-0.2,5.9-0.1,8.8,0.4c0.1,0,0.2-0.1,0.2-0.2
			C296.7,399.2,296.6,399.1,296.6,399.1z"/>
		<path class="st11" d="M272.3,380.5c0.1,2.5,0.2,5,0.3,7.5s0,5,0.1,7.5s0,5-0.1,7.5s-0.1,5-0.3,7.5c-0.2-2.5-0.2-5-0.3-7.5
			s-0.1-5-0.1-7.5s0-5,0.1-7.5S272.2,383,272.3,380.5z"/>
	</g>
	<g id="freepik--Character--inject-2">
		<path class="st4" d="M340.3,129.4l-0.4,0.1c0,0,0-0.1,0.1-0.1l0,0L340.3,129.4z"/>
		<path class="st15" d="M371.3,178L371.3,178"/>
		<path class="st15" d="M371.3,178L371.3,178"/>
		<path class="st16" d="M351.8,418.3h-0.2v-0.1L351.8,418.3z"/>
		<polygon class="st17" points="348,349.7 345.6,364 329.6,450.8 327,450.8 338.6,364 340.4,349.7 		"/>
		<polygon class="st12" points="340.4,349.7 348,349.7 345.6,364 338.6,364 		"/>
		<polygon class="st17" points="398.5,450.8 395.9,450.8 379.8,364 377.5,349.7 385.1,349.7 386.8,364 		"/>
		<polygon class="st12" points="385.1,349.7 386.8,364 379.8,364 377.5,349.7 		"/>
		<polygon class="st17" points="446.7,450.8 444.1,450.8 428,364 425.7,349.7 433.3,349.7 435,364 		"/>
		<polygon class="st12" points="435,364 428,364 425.7,349.7 433.3,349.7 		"/>
		<polygon class="st17" points="442.6,356.4 324.8,356.4 324.8,344 368.9,344 383.7,279.4 438.1,279.4 		"/>
		<polygon class="st12" points="442.6,356.4 436.2,356.4 432,279.4 438.1,279.4 		"/>
		<path class="st16" d="M323.4,460.9c2.2,0.3,62.9-13.9,64.9-15.8c0.2-0.2-1.9-11.9-1.9-11.9c-1-4.8-17.5-43.8-17.5-43.8l-39.6,9.8
			l16.8,36.2c0,0-7.6,5.1-14,10l0,0c-2.9,2-5.6,4.2-8.2,6.6C321.8,454.3,321.2,460.6,323.4,460.9z"/>
		<path class="st3" d="M388.3,445.1c-2,1.9-62.6,16.1-64.9,15.8s-1.6-6.6,0.3-8.9c2.6-2.4,5.4-4.5,8.2-6.6l0,0c6.5-4.9,14-10,14-10
			l-3.7-8.1l38.4-9.4c2.9,7.3,5.3,13.5,5.6,15.2C386.4,433.2,388.5,444.9,388.3,445.1z"/>
		<path class="st8" d="M323.2,461.1c2.3,0.2,63.4-13.5,65.4-15.5c0.8-0.7-0.7-9.8-2.8-20.6c0-0.1,0-0.2-0.1-0.3l-39.5,8.4l0.2,0.7
			c0,0-21,15.7-23,18.1S320.9,460.8,323.2,461.1z"/>
		<path class="st4" d="M323.4,458.5c10.3-2.6,51.8-11.9,62.2-13.7c0.1,0,0.1,0,0,0.1c-10.1,2.8-51.8,11.8-62.1,13.8
			C323.2,458.7,323.2,458.6,323.4,458.5z"/>
		<path class="st4" d="M341.9,434.1c3.9-1.7,9-2.1,12.7,0c0.1,0.1,0,0.3-0.1,0.3c-4.2-0.4-8.3-0.3-12.5,0.2c-0.1,0-0.2-0.2-0.2-0.3
			C341.8,434.2,341.8,434.2,341.9,434.1z"/>
		<path class="st4" d="M339.4,436.6c3.9-1.7,9-2.1,12.7,0c0.1,0.1,0,0.3-0.1,0.3c-4.2-0.4-8.3-0.3-12.5,0.2c-0.1,0-0.2-0.2-0.2-0.3
			C339.3,436.7,339.3,436.6,339.4,436.6z"/>
		<path class="st4" d="M336.8,439c3.9-1.7,9-2.2,12.7,0c0.1,0.1,0,0.3-0.1,0.3c-4.2-0.4-8.3-0.3-12.5,0.2c-0.1,0-0.2-0.2-0.2-0.3
			C336.7,439.1,336.8,439,336.8,439z"/>
		<path class="st4" d="M337.7,431.9c3.4,1.6,7.3,1.7,10.9,2.1c0.3,0,0.5-0.2,0.5-0.5c0-0.1,0-0.1,0-0.2c0.1,0,0.1-0.1,0.1-0.2
			c0,0,0,0,0,0c-2-3.3-4.9-6-8.3-7.9c-2-1-5.2-1.4-6.3,1.2S335.8,430.9,337.7,431.9z M336,428.9c-1.7-4.3,3.6-3,5-2.2
			c0.9,0.6,1.8,1.2,2.7,1.8c1.7,1.4,3.4,2.9,5,4.5c-1.8-0.4-3.5-0.5-5.3-0.8C341.2,431.8,336.9,431.2,336,428.9L336,428.9z"/>
		<path class="st4" d="M361.4,424c-1.5-2.3-4.6-1.4-6.4,0c-3,2.4-5.3,5.6-6.8,9.3c0,0.1,0,0.1,0.1,0.1c0,0,0,0,0,0
			c0,0.3,0.3,0.7,0.6,0.5c3.5-1.1,7.3-1.9,10.4-4.1C361.1,428.6,362.9,426.2,361.4,424z M353.9,431.1c-1.7,0.6-3.4,1.1-5.1,1.8
			c1.3-1.8,2.6-3.6,4.1-5.3c0.7-0.8,1.5-1.6,2.3-2.3c1.3-1.1,6.3-3.3,5.4,1.2C360,429,355.9,430.4,353.9,431.1L353.9,431.1z"/>
		<path class="st18" d="M341.1,457.5c-9.6,2.1-17.1,3.6-17.8,3.5c-2.3-0.2-1.8-6.8,0.2-9.2c2.5-2.4,5.2-4.6,8-6.7L341.1,457.5z"/>
		<path class="st19" d="M343.4,434l42.1-9.9c0,0-35.1-80.5-32-84.6c1.5-2,40.7-2.6,53.2-13.2c16.2-13.7,5.3-34.7,5.3-34.7l-43.8-1.3
			c0,0,0.5,9.1-1.2,10.5c-1.1,0.9-53.3,5.3-59,22.9C301,345.3,343.4,434,343.4,434z"/>
		<path class="st4" d="M343.4,427.5c1.1-0.5,12-3.7,14.5-4.3c4.9-1.3,9.9-2.5,14.8-3.6c2.6-0.6,8.1-1.9,8.5-1.8c0.2,0,0.2,0.3,0,0.4
			c-4.8,1.6-9.7,2.9-14.5,4.3s-21.6,5.4-23.1,5.5C343.4,427.9,343.2,427.6,343.4,427.5z"/>
		<path class="st4" d="M346,335.9c1-0.6,2.1-1,3.3-1l19-3.2c5.9-1,11.9-1.9,17.7-3c4.9-0.9,9.8-2.2,14-4.8c4.1-2.6,7.2-6.6,8.6-11.3
			c1.3-4.7,1.7-9.6,1.1-14.4c-0.1-1.2-0.3-2.4-0.5-3.5c0-0.1,0.1-0.1,0.1,0c1.6,9,1.7,19.4-5,26.5c-3.3,3.4-7.8,5.5-12.3,6.8
			c-5.2,1.3-10.6,2.4-15.9,3.1l-19,3.2c-3,0.5-6.1,0.9-9.1,1.5c-0.6,0.1-1.2,0.3-1.6,0.7c-0.4,0.6-0.5,1.5-0.3,2.2
			c0.3,1.5,0.7,3,1.1,4.4c3.5,11.8,28.9,71.8,29.6,73.1c0.1,0.1-0.1,0.2-0.2,0.1c-5.8-10.3-24.9-57.6-28.7-68.7
			c-1-2.8-1.8-5.7-2.5-8.7C345.1,337.9,345,336.7,346,335.9z"/>
		<path class="st16" d="M260.8,463.5c2.1,0.7,62.8-0.1,65.1-1.6c2.5-2.4,3.6-59.7,3.6-59.7l-39-0.3l-2.4,41.1c0,0-8.4,3.5-15.8,7
			l0,0c-3.2,1.4-6.3,3-9.4,4.8C260.6,456.7,258.7,462.8,260.8,463.5z"/>
		<path class="st3" d="M328.5,436.1c-0.6,12.9-1.4,24.7-2.5,25.8c-2.3,1.5-63,2.3-65.1,1.6s-0.3-6.8,2.1-8.7c3-1.8,6.2-3.4,9.4-4.8
			l0,0c7.3-3.5,15.8-7,15.8-7l0.4-6.9L328.5,436.1z"/>
		<path class="st8" d="M259.6,463.6c2.2,0.7,64.9,0.4,67.2-1.1c0.9-0.6,1.4-9.7,1.7-20.7c0-0.1,0-0.2,0-0.3l-40.4-0.3v0.7
			c0,0-23.9,10.8-26.4,12.8S257.4,462.9,259.6,463.6z"/>
		<path class="st4" d="M260.3,461.1c10.6-0.3,53.2-0.6,63.7-0.1c0.1,0,0.1,0.1,0,0.1c-10.5,0.5-53.1,0.5-63.7,0.2
			C260,461.3,260,461.1,260.3,461.1z"/>
		<path class="st4" d="M283.5,441.3c4.1-0.8,9.2-0.2,12.4,2.8c0.1,0.1,0,0.3-0.2,0.2c-4-1.3-8.1-2.1-12.2-2.5
			c-0.1,0-0.3-0.1-0.3-0.3S283.4,441.3,283.5,441.3z"/>
		<path class="st4" d="M280.6,443.1c4.1-0.8,9.2-0.2,12.4,2.8c0.1,0.1,0,0.3-0.2,0.2c-4-1.3-8.1-2.1-12.2-2.5
			c-0.1,0-0.3-0.1-0.3-0.3C280.3,443.2,280.4,443.1,280.6,443.1z"/>
		<path class="st4" d="M277.6,444.9c4.2-0.8,9.2-0.2,12.4,2.8c0.1,0.1,0,0.3-0.2,0.2c-4-1.3-8.1-2.1-12.2-2.5
			c-0.1,0-0.3-0.1-0.3-0.3S277.4,444.9,277.6,444.9L277.6,444.9z"/>
		<path class="st4" d="M280,438.2c3,2.3,6.8,3.2,10.2,4.4c0.3,0.1,0.6-0.1,0.6-0.4c0,0,0-0.1,0-0.1c0.1,0,0.1-0.1,0.1-0.1
			c0,0,0,0,0,0c-1.3-3.7-3.5-6.9-6.5-9.5c-1.7-1.5-4.8-2.4-6.4-0.2S278.3,436.8,280,438.2z M278.9,434.8c-0.8-4.5,4.1-2.2,5.4-1.1
			c0.8,0.7,1.5,1.5,2.2,2.4c1.4,1.8,2.7,3.6,3.9,5.5c-1.6-0.7-3.4-1.3-5-1.9C283.4,438.9,279.3,437.3,278.9,434.8L278.9,434.8z"/>
		<path class="st4" d="M304.8,435.5c-1-2.6-4.2-2.4-6.3-1.4c-3.5,1.7-6.4,4.4-8.6,7.6c0,0,0,0.1,0,0.2c0,0,0,0,0,0
			c-0.1,0.3,0.1,0.6,0.3,0.6c0.1,0,0.1,0,0.2,0c3.6-0.4,7.6-0.3,11-1.8C303.5,439.9,305.8,438,304.8,435.5z M295.9,440.9
			c-1.8,0.2-3.6,0.4-5.4,0.7c1.7-1.5,3.3-3,5.1-4.3c0.9-0.6,1.8-1.2,2.7-1.8c1.5-0.8,6.8-1.9,5,2.4
			C302.4,440.1,298,440.6,295.9,440.9L295.9,440.9z"/>
		<path class="st19" d="M285.9,441.6h44c0,0-0.6-79.5,2.9-83.9c4.6-5.9,69-5.7,82.8-24.9c12.4-17.2,1.9-41.6,1.9-41.6l-48.8-1.4
			c1.1,5.2,2.6,10.3,4.5,15.3c0,0-58.8,10.9-75.2,28.9C287,346.1,285.9,441.6,285.9,441.6z"/>
		<path class="st4" d="M364.8,301.8c1.4,0.3,2.8,0.7,4.1,1.3c1.4,0.5,2.8,1.1,4.1,1.8c2.6,1.3,5.2,2.8,7.7,4.4c0.1,0,0,0.2-0.1,0.1
			c-2.6-1.4-5.4-2.6-8.1-3.8l-3.9-1.6c-1.4-0.5-2.7-1.1-4-1.8C364.5,302.1,364.6,301.8,364.8,301.8z"/>
		<path class="st4" d="M367.7,289.8c0.6,2.2,1,4.5,1.7,6.7c0.3,1,0.6,2,1,3c0.3,0.8,0.8,1.8,1.8,2c1.1,0.2,1.4-0.7,1.3-1.6
			s-0.4-2-0.6-3c-0.2-1.2-0.5-2.3-0.7-3.5c-0.1-0.6-0.2-1.2-0.3-1.7c0-0.1-0.1-1.3-0.2-1.6c0,0,0,0-0.1,0l0,0c0,0-0.1,0-0.1-0.1
			c0-0.1,0-0.1,0.1-0.2c0,0,0.1,0,0.1,0c0.2,0.1,0.2,0.4,0.3,0.6c0.2,0.6,0.4,1.1,0.5,1.7c0.3,1.1,0.6,2.1,0.9,3.2s0.5,2.1,0.8,3.2
			c0.3,0.8,0.3,1.6,0.2,2.5c-0.2,0.8-0.9,1.4-1.8,1.4c0,0.1,0.1,0.1,0.1,0.2c0.1,0.2,0.2,0.5,0.3,0.7s0.2,0.5,0.2,0.7
			c0,0.1,0,0.2,0.1,0.3c0,0.1,0,0.3,0,0.4s-0.3,0.3-0.4,0.1s-0.1-0.2-0.2-0.3s-0.1-0.3-0.2-0.4s-0.1-0.5-0.2-0.7s-0.1-0.5-0.2-0.7
			s0-0.3,0-0.4c-0.5,0-0.9-0.2-1.3-0.5c-0.6-0.5-1.1-1.2-1.3-2c-0.3-0.9-0.6-1.9-0.9-2.8c-0.7-2.3-1.2-4.7-1.4-7.2
			C367.3,289.6,367.6,289.5,367.7,289.8z"/>
		<path class="st4" d="M396.7,295.3c0.2,1.1,0.3,2.2,0.6,3.3s0.5,2.1,0.9,3.2c0.3,1,0.8,2,1.4,2.9c0.6,0.8,1.3,1.6,2.2,2.2
			c1.6,1.2,3.3,2.2,5.2,2.9c0.9,0.3,1.9,0.6,2.9,0.9c0.5,0.1,1,0.2,1.5,0.3c0.4,0,0.9,0.1,1.3,0.3c0.1,0.1,0.2,0.2,0.1,0.3
			c0,0-0.1,0.1-0.1,0.1c-0.8,0.2-1.5,0.3-2.3,0.1c-0.8-0.1-1.7-0.2-2.5-0.4c-1.6-0.4-3.2-1.1-4.7-2c-1.5-0.8-2.8-1.9-3.9-3.2
			c-1-1.3-1.8-2.9-2.1-4.6c-0.5-2-0.7-4.1-0.7-6.2C396.5,295.2,396.6,295.2,396.7,295.3C396.7,295.2,396.7,295.2,396.7,295.3z"/>
		<path class="st4" d="M323.6,386.5c0.4-6.9,1-13.8,1.7-20.7c0.2-1.7,0.4-3.4,0.6-5.1c0.1-1.3,0.4-2.6,0.9-3.9
			c1-2.6,3.2-3.9,5.8-4.6c3.1-0.8,6.3-1.2,9.4-1.8s6.4-1,9.6-1.4c6.5-0.9,13-1.7,19.5-2.8c6.5-1,12.9-2.5,19.1-4.3
			c5.8-1.7,11.7-3.9,16.3-7.9c9.9-8.6,10.3-23,9.1-35c-0.2-1.7-0.4-3.4-0.6-5.1c0-0.1,0.1-0.1,0.1,0c0.8,6.8,1.7,13.6,1,20.5
			c-0.4,5.7-2.3,11.1-5.4,15.8c-3.4,4.8-8.3,7.9-13.7,10.1c-5.9,2.3-12,4-18.3,5.3c-12.9,2.7-26,3.8-39,6c-1.6,0.3-3.2,0.6-4.8,0.9
			c-1.5,0.2-2.9,0.6-4.3,1.1c-2.9,1.3-3.8,4.2-4.1,7.1c-0.9,6.9-1.4,13.8-1.9,20.7c-1,13.9-1.5,27.9-1.5,41.8c0,1.7,0,7.5,0,9.2
			c0,0.1-0.2,0.1-0.2,0C322.5,418.4,322.7,400.4,323.6,386.5z"/>
		<path class="st4" d="M288,434.7c10-0.7,38.7-0.4,39-0.3c0.1,0,0.1,0.2,0.1,0.3c0,0-0.1,0.1-0.1,0.1c-5,0.4-37.5,0.5-38.9,0.3
			C287.8,435,287.8,434.7,288,434.7z"/>
		<path class="st4" d="M373,305.3c-9,1.1-17.9,2.9-26.6,5.5c-8.8,2.5-17.3,5.5-25.6,9.3c-4.7,2.1-9.2,4.4-13.7,6.9
			c-0.1,0,0,0.2,0.1,0.1c8.1-4.2,16.4-7.8,25-10.9c8.5-3.1,17.2-5.6,26-7.5c5-1.1,10-1.9,15-2.8C373.5,305.8,373.4,305.3,373,305.3z
			"/>
		<path class="st4" d="M330.1,375.5c0.3-4.8,0.8-9.6,1.6-14.3c0.3-1.9,0.4-4.4,2.4-5.3c0.9-0.4,19.6-3.7,22.3-3.6
			c0.1,0,0.1,0,0.1,0.1c0,0.1,0,0.1-0.1,0.1c-0.2,0.1-18,3.5-20.2,4c-1,0.1-1.9,0.5-2.5,1.3c-0.4,1-0.7,2-0.8,3.1
			c-1.5,9.3-2.3,18.7-2.5,28.1c-0.1,2.6-0.1,5.2-0.1,7.8s0.1,5.4-0.1,8c0,0.1-0.1,0.2-0.2,0.2s-0.2-0.1-0.2-0.2l0,0
			c-0.2-2.4-0.1-4.9-0.1-7.3s0-4.9,0-7.3C329.7,385.3,329.8,380.4,330.1,375.5z"/>
		<path class="st19" d="M331.3,214.4l10.9,26.7c0.3,0.4,0.2,1.1-0.2,1.4c-0.1,0.1-0.3,0.2-0.5,0.2l-14.3,2c-0.9,0.1-1.7-0.4-2.2-1.2
			l-10.9-26.7c-0.3-0.4-0.2-1.1,0.2-1.4c0.2-0.1,0.3-0.2,0.5-0.2l14.3-2C330,213.1,330.8,213.6,331.3,214.4z"/>
		<path class="st20" d="M329.6,214.6l10.9,26.7c0.4,0.8,0.1,1.5-0.7,1.6l-14.3,2c-0.9,0.1-1.8-0.4-2.2-1.2L312.4,217
			c-0.4-0.8-0.1-1.5,0.7-1.6l14.3-2C328.3,213.4,329.1,213.8,329.6,214.6z"/>
		<path class="st4" d="M325.8,216.4c0.1,0.7,0.7,1.1,1.4,1s1.1-0.7,1-1.4c-0.1-0.7-0.7-1.1-1.4-1c0,0,0,0,0,0
			C326.2,215.1,325.7,215.8,325.8,216.4z"/>
		<path class="st16" d="M383.2,249.8c-5.5,18.4-20.3,43.4-27.8,44.6c-3.6,0.6-9.8,2.4-15.1-1c-11.5-7.4-22.6-23.2-25.8-32.8
			c-1.1-3.4,14.7-13.5,17.6-11c6.9,5.8,15.6,17.8,16.6,17.5c3.8-0.9,16.9-15.6,26.1-26C385.9,228.7,385.4,242.5,383.2,249.8z"/>
		<path class="st16" d="M311.4,242.7c0.7-7.3,2-9.1-0.6-15.6c-1.8-4.3,0.2-7.2,3.9-4.1c6,5.1,7.1,14.7,6.5,18.2L311.4,242.7z"/>
		<path class="st16" d="M315.8,263.6c0,0-4.6-9.4-4.6-17.3c0-5.5,1.4-17.3,15.4-25.6c3.3-2,9.5-2.4,5.2,2.8c-3,3.7-6.1,5.1-7.5,7.6
			c0,0,7.9,0.4,9.7,3.8c1.6,3,3,6.1,4.1,9.3c-0.5,0.3-1.1,0.7-1.7,0.9c0,0,1.6,3.3-0.2,8.5L315.8,263.6z"/>
		<path class="st16" d="M312,241.1c1.9-2.2,6-6.6,10.6-9.2c5.1-2.8,15.7-6.8,17.8-3c1.5,2.8-2.4,4.7-2.4,4.7s4.7-0.7,5.5,2.1
			c0.7,2.6-2.4,3.8-2.4,3.8s3,0.1,3.2,2.6c0.3,3.1-6,2.5-8.4,5.9C335.2,248.8,312,241.1,312,241.1z"/>
		<path class="st4" d="M324.6,237.8c3.8-2.7,8.4-4.2,13.2-4.3c0.1,0,0.2,0.1,0.1,0.1C333.3,234.5,328.8,235.9,324.6,237.8
			L324.6,237.8z"/>
		<path class="st4" d="M327.6,242.9c4.1-2.4,8.7-3.6,13.4-3.5c0.1,0,0.2,0.1,0.1,0.1C336.5,240.2,331.9,241.3,327.6,242.9
			C327.6,243,327.5,242.9,327.6,242.9z"/>
		<path class="st8" d="M315.4,267.9c0,0,18,25.3,26.5,27.3s13.3,0.5,16.2-0.4c1.1-0.4,2.1-1.1,2.9-2c7.3-7,18.7-29.7,22.9-42.2
			c3.1-9.3,1.5-17.1-4.9-13.6c-2.1,1.3-4,3-5.6,4.9c-10.8,12.2-23.7,24.2-24.4,24s-9.5-10.4-9.5-10.4L315.4,267.9z"/>
		<path class="st18" d="M315.4,267.9c0,0,18,25.3,26.5,27.3s13.3,0.5,16.2-0.4c1.1-0.4,2.1-1.1,2.9-2c7.3-7,18.7-29.7,22.9-42.2
			c3.1-9.3,1.5-17.1-4.9-13.6c-2.1,1.3-4,3-5.6,4.9c-10.8,12.2-23.7,24.2-24.4,24s-9.5-10.4-9.5-10.4L315.4,267.9z"/>
		<path class="st4" d="M319.6,272.3c0.8-0.6,9-5.3,10.8-6.3s9.1-5.1,11.1-5.9c0,0,0.1,0,0.1,0s0,0.1,0,0.1l0,0
			c-1.7,1.2-9.1,5.3-10.9,6.4s-10,5.5-11,5.9C319.5,272.5,319.5,272.4,319.6,272.3z"/>
		<path class="st8" d="M363.3,301.5c1.3,1.4,59.8,11.7,60.1,11.3c0.9-1-6.3-57.1-28.5-77.8c-3.9-3.6-11-2.7-14.2-0.9
			c-1.6,0.9-7.3,8.9-9,15.8S362.5,300.6,363.3,301.5z"/>
		<path class="st19" d="M412.6,264.7l-43.3-2.7c0.2-1.1,0.4-2.1,0.5-3l41.5,2.6C411.8,262.6,412.2,263.6,412.6,264.7z"/>
		<path class="st19" d="M414.8,271l-46.6-2.9c0.2-1,0.4-2,0.5-3l45,2.8C414.1,268.9,414.5,269.9,414.8,271z"/>
		<path class="st8" d="M398.8,236.4c19.8,10.1,42.6,32.8,41.3,40.4c-1.5,8.4-30-5.8-29.7-7.1c0.3-1.1-5.7-10.1-14.3-23.1
			C387.4,233.4,393.9,233.9,398.8,236.4z"/>
		<g class="st21">
			<path d="M398.8,236.4c19.8,10.1,42.6,32.8,41.3,40.4c-1.5,8.4-30-5.8-29.7-7.1c0.3-1.1-5.7-10.1-14.3-23.1
				C387.4,233.4,393.9,233.9,398.8,236.4z"/>
		</g>
		<path class="st16" d="M440.1,276.8c-1.7,5.9-10.5,9.8-31.7,21.8c-2.9,1.7-20.2-15.9-17.2-17.8c3.8-2.4,19.2-11.1,20.4-11.6
			C421.8,265.1,441.3,272.8,440.1,276.8z"/>
		<path class="st16" d="M395.5,278.3c0,0-9.1,4.7-13.1,8.6c-4.1,4.2-7.1,9.3-8.8,14.9c-1.8,6-2,21.9,2.5,22.8
			c4.1,0.8,3.5-15.5,3.5-15.5s-2.1,16.7,3,16.7S386,307,386,307s-1.8,17.2,3.5,16.4c4-0.6,3.4-17.7,3.4-17.7s-1.5,14.8,2.7,14.3
			c4.6-0.5,5-16.4,5-16.4c10.4-2.9,14.1-8.6,16.3-12.9C417.4,289.6,395.5,278.3,395.5,278.3z"/>
		<path class="st4" d="M380,303.3c-0.3,2-0.7,3.9-0.8,5.9s-0.2,4-0.2,5.9c0,2.6,0.3,5.2,0.9,7.7c-0.7-4.5-0.3-11.6-0.1-13.6
			S379.9,305.2,380,303.3C380,303.2,380,303.2,380,303.3z"/>
		<path class="st4" d="M387.1,303.7c-0.3,2.5-0.7,5-0.9,7.5s-0.1,4.9-0.2,7.4c0,0.2,0.1,0.1,0.1-0.1c0.1-2.5,0.4-4.8,0.6-7.3
			S386.9,306.2,387.1,303.7L387.1,303.7z"/>
		<path class="st4" d="M393.3,302.9c-0.6,3.8-0.7,7.7-0.5,11.6c0,0.2,0.1,0.1,0.1-0.1c0.1-3.9,0.1-6.9,0.5-11.5
			C393.4,302.9,393.3,302.8,393.3,302.9z"/>
		<path class="st8" d="M390.9,278.8c0,0,24.4,18.6,24.6,18.5s24.2-14.1,24.6-20.5s-19.4-11-28.4-7.5S390.9,278.8,390.9,278.8z"/>
		<path class="st18" d="M390.9,278.8c0,0,24.4,18.6,24.6,18.5s24.2-14.1,24.6-20.5s-19.4-11-28.4-7.5S390.9,278.8,390.9,278.8z"/>
		<path class="st4" d="M399.2,276.1c1,0.6,8.6,6.8,10.3,8.2s8.4,7,10,8.5c0,0,0,0.1,0,0.1c0,0-0.1,0-0.1,0
			c-1.8-1.2-8.7-6.9-10.4-8.2s-9.2-7.7-9.9-8.5C399,276.1,399.1,276,399.2,276.1z"/>
		<path class="st4" d="M422.5,268.3c-2.1-0.3-7.9-0.8-12.5,1.5c0,0,0,0.1,0,0.1C414,268.7,418.3,268.2,422.5,268.3
			C422.5,268.3,422.6,268.3,422.5,268.3z"/>
		<path class="st19" d="M378.5,234.9c-2.5,2.2-3.4,9.6,1.4,11s11.4-6.3,12.1-10.5S384,230,378.5,234.9z"/>
		<path class="st16" d="M379.9,244c3.4,0.8,9.1-4.5,11.4-8.8c0.2-0.3-1.2-11.8-1.3-14.1c0-0.5-14.4,3.8-14.4,3.8
			c0.9,2.9,1.4,5.8,1.5,8.8C377.1,234.1,376.6,243.3,379.9,244z"/>
		<path class="st4" d="M389.6,221.2c-0.7,3.7-3.2,13.4-11,13.8c-0.5,0-0.9,0-1.4-0.1c0-0.6,0-1,0-1.1c-0.2-3-0.7-5.9-1.6-8.8l0,0
			l0.2-0.1l0,0c0.1,0,0.2-0.1,0.4-0.1l0.2-0.1l0.3-0.1l0.4-0.1l0.7-0.2l0.3-0.1l0.5-0.1l2-0.6l0.8-0.2l1-0.3l1-0.3h0.1l1.7-0.5
			l0.6-0.1l1.1-0.3l0.7-0.2l1.4-0.3l0.3-0.1L389.6,221.2z"/>
		<path class="st16" d="M389.7,203.4c2.3,4.9,1.6,19.9-1.6,23.7c-4.6,5.5-13.1,7.1-18,1.4c-4.8-5.6-3.5-25.1,0.1-28.7
			C375.5,194.6,386.3,196.3,389.7,203.4z"/>
		<path class="st4" d="M376.3,214.3C376.3,214.3,376.4,214.3,376.3,214.3c0,1.1,0.1,2.3,1,2.6c0,0,0,0.1,0,0.1
			C376.2,216.8,376.1,215.3,376.3,214.3z"/>
		<path class="st4" d="M377.3,213.3c1.6-0.1,1.6,3.2,0.1,3.3S375.9,213.4,377.3,213.3z"/>
		<path class="st4" d="M370.7,214.5C370.7,214.5,370.6,214.5,370.7,214.5c-0.1,1.1-0.2,2.3-1.1,2.6c0,0,0,0.1,0,0
			C370.7,217,370.9,215.4,370.7,214.5z"/>
		<path class="st4" d="M369.8,213.4c-1.6-0.1-1.8,3.1-0.3,3.3S371.1,213.5,369.8,213.4z"/>
		<path class="st4" d="M378.5,211.8c-0.4-0.1-0.9-0.3-1.3-0.4c-0.5-0.1-0.9-0.3-1.2-0.7c-0.2-0.3-0.1-0.6,0.1-0.8
			c0.5-0.4,1.2-0.4,1.7-0.2c0.6,0.2,1.1,0.6,1.5,1.1c0.2,0.4,0.1,0.8-0.3,1C378.9,211.8,378.7,211.9,378.5,211.8z"/>
		<path class="st4" d="M368.5,212.9c0.5-0.1,0.9-0.2,1.3-0.3c0.5-0.1,0.9-0.3,1.3-0.6c0.2-0.2,0.2-0.6,0-0.8
			c-0.5-0.4-1.1-0.5-1.7-0.3c-0.6,0.1-1.2,0.5-1.5,1c-0.2,0.4-0.1,0.8,0.3,1C368.2,212.8,368.4,212.9,368.5,212.9z"/>
		<path class="st4" d="M377.5,223.7c-0.2,0.2-0.5,0.6-0.9,0.6c-0.4,0-0.7-0.1-1.1-0.3 M375.5,224.1c0.3,0.4,0.8,0.6,1.3,0.6
			c0.4-0.1,0.7-0.5,0.8-0.9c0-0.1-0.1-0.1-0.1,0L375.5,224.1z"/>
		<path class="st4" d="M376.4,220.7c-0.5,0.8-1.4,1.4-2.3,1.5c-0.4,0.1-0.8,0.1-1.3,0.1h-0.2h-0.2c-0.1,0-0.2-0.1-0.2-0.2l0,0
			c0,0,0-0.1,0-0.1l0,0v-0.1c0-0.8,0.1-2,0.1-2c-0.3,0.1-1.7,0.8-1.7,0.4c0.1-3.5,0.5-7,1.3-10.4c0-0.1,0.2-0.1,0.2,0
			c-0.1,3.3-0.7,6.5-0.8,9.7c0.5-0.2,1.1-0.4,1.6-0.5c0.1,0-0.2,2.3-0.1,2.6l0,0c1.3,0.1,2.6-0.3,3.6-1.1
			C376.4,220.5,376.5,220.6,376.4,220.7z"/>
		<path class="st4" d="M373.4,221.9c0.4,0.6,1,1,1.6,1.3c0.4,0.1,0.7,0.2,1.1,0.1c0.8-0.2,0.8-1,0.7-1.6c-0.1-0.3-0.2-0.7-0.4-1
			C375.6,221.4,374.5,221.8,373.4,221.9z"/>
		<path class="st22" d="M375,223.2c0.4,0.1,0.7,0.2,1.1,0.1c0.8-0.2,0.8-1,0.7-1.6C375.9,221.7,375.2,222.3,375,223.2z"/>
		<path class="st4" d="M368.3,205.9c5.3,3.3,12.1-2.3,12.1-2.3c1,2.3,3.4,3.6,5.8,3.3c0,0,1.4,8.7,3.7,8.6
			c3.5-0.2,4.1-12.1,2.9-14.4s-4.2-2.8-4.2-2.8c-0.4-1.4-1.3-2.6-2.5-3.4c-2.5-1.7-10.6,1.1-10.6,1.1c-0.5-1.1-1.3-2-2.2-2.8
			c-0.9-0.8-2.3-0.6-3.1,0.4c0,0,0,0,0,0.1c0.5,0.6,0.8,1.4,0.9,2.1c0.5,2.5-1.6,2.6-1.6,0.3c-0.1-0.9,0.2-1.7,0.7-2.4
			c-1.1-1.5-2.8-1.9-3.8-1C364.6,194.1,363.9,203.1,368.3,205.9z"/>
		<path class="st16" d="M388.2,215.8c0,0,2.8-5.1,5.1-4.2s0.6,8.1-1.8,9.4c-1.2,0.7-2.8,0.3-3.6-0.9c0,0,0-0.1-0.1-0.1L388.2,215.8z
			"/>
		<path class="st4" d="M392.7,213.7c-1.7,0.9-2.4,2.7-2.9,4.5c0.3-0.7,1.2-1.1,1.9-0.7c0.1,0,0.1,0.1,0.2,0.1c0,0,0,0,0,0.1
			s0,0.1,0,0.1c-0.7-0.1-1.3,0.2-1.7,0.8c-0.3,0.5-0.5,1-0.7,1.5c-0.1,0.2-0.4,0.1-0.3-0.1v-0.1
			C388.9,217.6,390.3,214.2,392.7,213.7L392.7,213.7z"/>
	</g>
</g>
<g id="Camada_2">
	<rect x="222.4" y="92.8" class="st15" width="55.3" height="7.3"/>
	<text transform="matrix(1 0 0 1 222.41 99.799)" class="st5 st23 st24">PORTAL </text>
	<rect x="224.2" y="124.8" class="st15" width="51.7" height="13.3"/>
	<text transform="matrix(1 0 0 1 224.1827 134.1509)" class="st6 st25 st26">CURSOS</text>
</g>
</svg>
